<svg width="28" height="28" viewBox="0 0 28 28" fill="none" xmlns="http://www.w3.org/2000/svg">
<path d="M14 28C21.732 28 28 21.732 28 14C28 6.26801 21.732 0 14 0C6.26801 0 0 6.26801 0 14C0 21.732 6.26801 28 14 28Z" fill="#00EF8B"/>
<path d="M16.1899 11.8103H20.1435V15.7639H16.1899V11.8103ZM12.2391 17.2451C12.2391 17.5386 12.1521 17.8255 11.989 18.0696C11.8259 18.3136 11.5942 18.5038 11.323 18.6161C11.0518 18.7284 10.7535 18.7578 10.4656 18.7006C10.1777 18.6433 9.91331 18.502 9.70577 18.2944C9.49823 18.0869 9.35689 17.8225 9.29963 17.5346C9.24237 17.2467 9.27176 16.9483 9.38408 16.6772C9.4964 16.406 9.6866 16.1742 9.93065 16.0112C10.1747 15.8481 10.4616 15.7611 10.7551 15.7611H12.2391V11.8103H10.7551C7.75351 11.8103 5.32031 14.2435 5.32031 17.2451C5.32031 20.2467 7.75351 22.6799 10.7551 22.6799C13.7567 22.6799 16.1899 20.2467 16.1899 17.2451V15.7611H12.2391V17.2451ZM17.6739 9.83348H22.1203V5.87988H17.6739C14.6737 5.88296 12.2422 8.31448 12.2391 11.3147V11.8103H16.1899V11.3147C16.1907 10.9216 16.3473 10.5448 16.6256 10.2671C16.9038 9.98945 17.2808 9.83348 17.6739 9.83348V9.83348Z" fill="white"/>
<path d="M12.2383 15.7613H16.1891V11.8105H12.2383V15.7613Z" fill="#16FF99"/>
</svg>
