<svg width="96" height="40" viewBox="0 0 96 40" fill="none" xmlns="http://www.w3.org/2000/svg">
<path d="M55.0791 19.96H52.5191V29.6H48.9191V19.96H47.0391V16.88H48.9191V15.68C48.9191 12.56 50.8391 10.96 53.7991 10.96C54.2391 10.96 54.7191 11 55.1591 11.12V14.72C54.7591 14.56 54.3591 14.48 53.9191 14.48C53.1991 14.44 52.5591 14.96 52.5191 15.68C52.5191 15.76 52.5191 15.8 52.5191 15.88V16.84H55.0791V19.96ZM60.4791 29.56H56.8391V11.24H60.4791V29.56Z" fill="#231F20"/>
<path d="M68.5601 16.0801C72.3601 16.0801 75.4801 19.1601 75.4801 22.9601C75.4801 26.7601 72.4001 29.8801 68.6001 29.8801C64.8001 29.8801 61.6801 26.8001 61.6801 23.0001C61.6801 23.0001 61.6801 23.0001 61.6801 22.9601C61.6401 19.2001 64.6401 16.1201 68.4001 16.0801C68.4401 16.0801 68.5201 16.0801 68.5601 16.0801ZM68.5601 26.3201C70.4001 26.3201 71.7601 24.7601 71.7601 22.9601C71.8401 21.2001 70.4801 19.6801 68.7201 19.6001C68.6801 19.6001 68.6001 19.6001 68.5601 19.6001C66.7201 19.6801 65.2401 21.2401 65.3201 23.0801C65.4001 24.8401 66.8001 26.2801 68.5601 26.3201Z" fill="#231F20"/>
<path d="M79.2395 16.3198L81.5995 25.1198L83.9595 18.1198L83.3195 16.3198H86.9195L89.9995 25.1198L92.2795 16.3198H95.9995L92.0795 29.5598H88.3195L85.6795 22.3198L83.2395 29.5598H79.4395L75.5195 16.3198H79.2395V16.3198Z" fill="#231F20"/>
<path d="M20 40C31.0457 40 40 31.0457 40 20C40 8.95431 31.0457 0 20 0C8.95431 0 0 8.95431 0 20C0 31.0457 8.95431 40 20 40Z" fill="#00EF8B"/>
<path d="M28.7611 16.8799H23.1211V22.5199H28.7611V16.8799Z" fill="white"/>
<path d="M17.4816 24.6399C17.4816 25.7999 16.5216 26.7599 15.3616 26.7599C14.2016 26.7599 13.2416 25.7999 13.2416 24.6399C13.2416 23.4799 14.2016 22.5199 15.3616 22.5199H17.4816V16.8799H15.3616C11.0816 16.8799 7.60156 20.3599 7.60156 24.6399C7.60156 28.9199 11.0816 32.3999 15.3616 32.3999C19.6416 32.3999 23.1216 28.9199 23.1216 24.6399V22.5199H17.4816V24.6399Z" fill="white"/>
<path d="M25.2405 14.0399H31.6005V8.3999H25.2405C20.9605 8.3999 17.4805 11.8799 17.4805 16.1599V16.8799H23.1205V16.1599C23.1205 14.9999 24.0805 14.0399 25.2405 14.0399Z" fill="white"/>
<path d="M17.4805 22.5199H23.1205V16.8799H17.4805V22.5199Z" fill="#16FF99"/>
</svg>
