<svg xmlns="http://www.w3.org/2000/svg" xmlns:xlink="http://www.w3.org/1999/xlink" width="200" height="200" version="1.1" style="shape-rendering:geometricPrecision;text-rendering:geometricPrecision;image-rendering:optimizeQuality;fill-rule:evenodd;clip-rule:evenodd"><g><path style="opacity:.012" fill="#d295fe" d="M 105.5,19.5 C 102.023,18.6773 98.3563,18.1773 94.5,18C 99.9042,17.2282 105.238,17.5615 110.5,19C 108.866,19.4935 107.199,19.6602 105.5,19.5 Z"/></g><g><path style="opacity:.975" fill="#b14e20" d="M 101.5,19.5 C 101.5,19.8333 101.5,20.1667 101.5,20.5C 100.167,20.5 98.8333,20.5 97.5,20.5C 98.114,32.751 97.4474,44.751 95.5,56.5C 94.5,56.5 93.5,56.5 92.5,56.5C 92.5,45.1667 92.5,33.8333 92.5,22.5C 95.925,22.6332 96.2583,21.9665 93.5,20.5C 96.0545,19.612 98.7212,19.2786 101.5,19.5 Z"/></g><g><path style="opacity:.983" fill="#ab4122" d="M 101.5,20.5 C 106.08,22.0783 109.413,25.0783 111.5,29.5C 110.603,30.5981 109.77,30.5981 109,29.5C 108.5,38.4938 108.334,47.4938 108.5,56.5C 104.167,56.5 99.8333,56.5 95.5,56.5C 97.4474,44.751 98.114,32.751 97.5,20.5C 98.8333,20.5 100.167,20.5 101.5,20.5 Z"/></g><g><path style="opacity:.012" fill="#debafd" d="M 113.5,21.5 C 114.849,20.2035 116.182,20.3702 117.5,22C 116.906,22.4643 116.239,22.631 115.5,22.5C 115.158,21.6618 114.492,21.3284 113.5,21.5 Z"/></g><g><path style="opacity:1" fill="#b65620" d="M 93.5,20.5 C 96.2583,21.9665 95.925,22.6332 92.5,22.5C 92.5,33.8333 92.5,45.1667 92.5,56.5C 90.8333,56.5 89.1667,56.5 87.5,56.5C 86.2159,51.2441 85.5492,45.7441 85.5,40C 85.8333,34.8333 86.1667,29.6667 86.5,24.5C 87.4252,23.6431 88.0919,22.6431 88.5,21.5C 90.0418,20.6993 91.7085,20.366 93.5,20.5 Z"/></g><g><path style="opacity:.012" fill="#fe5500" d="M 72.5,27.5 C 73.8333,28.1667 73.8333,28.1667 72.5,27.5 Z"/></g><g><path style="opacity:.999" fill="#d38b1b" d="M 101.5,20.5 C 101.5,20.1667 101.5,19.8333 101.5,19.5C 102.833,19.5 104.167,19.5 105.5,19.5C 107.961,20.531 110.627,21.1977 113.5,21.5C 113.842,22.3382 114.508,22.6716 115.5,22.5C 118.798,24.4854 122.131,26.4854 125.5,28.5C 123.747,35.2794 122.747,41.9461 122.5,48.5C 118.581,42.3303 114.914,35.9969 111.5,29.5C 109.413,25.0783 106.08,22.0783 101.5,20.5 Z"/></g><g><path style="opacity:1" fill="#bd621f" d="M 88.5,21.5 C 88.0919,22.6431 87.4252,23.6431 86.5,24.5C 86.1667,29.6667 85.8333,34.8333 85.5,40C 85.5492,45.7441 86.2159,51.2441 87.5,56.5C 84.5,56.5 81.5,56.5 78.5,56.5C 77.791,55.596 76.791,55.2627 75.5,55.5C 75.9175,54.7784 76.5842,54.2784 77.5,54C 76.1667,45.6667 76.1667,37.3333 77.5,29C 76.9056,28.5357 76.2389,28.369 75.5,28.5C 79.3472,25.4074 83.6805,23.0741 88.5,21.5 Z"/></g><g><path style="opacity:.968" fill="#a23023" d="M 111.5,29.5 C 114.914,35.9969 118.581,42.3303 122.5,48.5C 124.196,51.8501 125.863,55.1835 127.5,58.5C 121.348,56.6876 115.015,56.0209 108.5,56.5C 108.334,47.4938 108.5,38.4938 109,29.5C 109.77,30.5981 110.603,30.5981 111.5,29.5 Z"/></g><g><path style="opacity:.004" fill="#e248ff" d="M 68.5,31.5 C 67.8333,31.5 67.5,31.8333 67.5,32.5C 65.0248,32.2533 65.0248,31.5866 67.5,30.5C 68.1067,30.6236 68.44,30.9569 68.5,31.5 Z"/></g><g><path style="opacity:.999" fill="#c7741d" d="M 75.5,28.5 C 76.2389,28.369 76.9056,28.5357 77.5,29C 76.1667,37.3333 76.1667,45.6667 77.5,54C 76.5842,54.2784 75.9175,54.7784 75.5,55.5C 70.5,55.5 65.5,55.5 60.5,55.5C 60.9175,54.7784 61.5842,54.2784 62.5,54C 61.6007,48.0073 61.2674,42.1739 61.5,36.5C 63.5,35.1667 65.5,33.8333 67.5,32.5C 68.1667,32.5 68.5,32.1667 68.5,31.5C 70.9538,30.7729 73.2872,29.7729 75.5,28.5 Z"/></g><g><path style="opacity:.99" fill="#c8761d" d="M 125.5,28.5 C 127.833,29.8333 130.167,31.1667 132.5,32.5C 131.232,44.08 131.232,55.4133 132.5,66.5C 132.167,66.5 131.833,66.5 131.5,66.5C 131.672,65.5084 131.338,64.8417 130.5,64.5C 130.672,63.5084 130.338,62.8417 129.5,62.5C 129.068,61.2905 128.401,60.2905 127.5,59.5C 127.5,59.1667 127.5,58.8333 127.5,58.5C 125.863,55.1835 124.196,51.8501 122.5,48.5C 122.747,41.9461 123.747,35.2794 125.5,28.5 Z"/></g><g><path style="opacity:.991" fill="#c0671e" d="M 132.5,32.5 C 135.203,34.1807 137.869,35.8474 140.5,37.5C 139.34,50.3268 139.173,63.3268 140,76.5C 140.465,77.9308 141.299,79.0975 142.5,80C 141.906,80.4643 141.239,80.631 140.5,80.5C 139.488,79.1283 138.488,77.795 137.5,76.5C 137.068,75.2905 136.401,74.2905 135.5,73.5C 135.672,72.5084 135.338,71.8417 134.5,71.5C 134.672,70.5084 134.338,69.8417 133.5,69.5C 132.89,68.609 132.557,67.609 132.5,66.5C 131.232,55.4133 131.232,44.08 132.5,32.5 Z"/></g><g><path style="opacity:.998" fill="#d7911b" d="M 61.5,36.5 C 61.2674,42.1739 61.6007,48.0073 62.5,54C 61.5842,54.2784 60.9175,54.7784 60.5,55.5C 60.1667,55.5 59.8333,55.5 59.5,55.5C 51.6484,55.1746 43.9818,55.508 36.5,56.5C 34.9382,56.7329 33.6049,57.3995 32.5,58.5C 32.1667,58.5 31.8333,58.5 31.5,58.5C 31.7329,56.9382 32.3995,55.6049 33.5,54.5C 34.1667,54.5 34.5,54.1667 34.5,53.5C 35.5,53.1667 36.1667,52.5 36.5,51.5C 37.1667,51.5 37.5,51.1667 37.5,50.5C 38.1667,50.5 38.5,50.1667 38.5,49.5C 46.0045,44.9135 53.6712,40.5801 61.5,36.5 Z"/></g><g><path style="opacity:.999" fill="#b75620" d="M 140.5,37.5 C 143.032,38.5957 145.365,39.9291 147.5,41.5C 147.539,42.7562 147.039,43.7562 146,44.5C 145.26,58.1881 145.427,71.8547 146.5,85.5C 144.091,84.2993 142.091,82.6326 140.5,80.5C 141.239,80.631 141.906,80.4643 142.5,80C 141.299,79.0975 140.465,77.9308 140,76.5C 139.173,63.3268 139.34,50.3268 140.5,37.5 Z"/></g><g><path style="opacity:.999" fill="#b04921" d="M 147.5,41.5 C 150.032,42.5957 152.365,43.9291 154.5,45.5C 153.542,45.9528 152.708,46.6195 152,47.5C 151.333,59.5 151.333,71.5 152,83.5C 152.41,84.9007 152.91,86.234 153.5,87.5C 151.106,86.9853 148.772,86.3186 146.5,85.5C 145.427,71.8547 145.26,58.1881 146,44.5C 147.039,43.7562 147.539,42.7562 147.5,41.5 Z"/></g><g><path style="opacity:1" fill="#a93d22" d="M 154.5,45.5 C 156.368,46.2632 158.035,47.2632 159.5,48.5C 158.883,48.6107 158.383,48.944 158,49.5C 157.57,62.3419 157.403,75.0086 157.5,87.5C 156.167,87.5 154.833,87.5 153.5,87.5C 152.91,86.234 152.41,84.9007 152,83.5C 151.333,71.5 151.333,59.5 152,47.5C 152.708,46.6195 153.542,45.9528 154.5,45.5 Z"/></g><g><path style="opacity:.004" fill="#fab8f9" d="M 38.5,49.5 C 37.8333,49.5 37.5,49.8333 37.5,50.5C 36.8333,50.5 36.5,50.8333 36.5,51.5C 35.8333,51.5 35.1667,51.5 34.5,51.5C 35.375,49.1939 36.7084,48.5272 38.5,49.5 Z"/></g><g><path style="opacity:.993" fill="#9f2b24" d="M 159.5,48.5 C 170.954,55.2172 174.954,64.8839 171.5,77.5C 170.833,77.5 170.5,77.8333 170.5,78.5C 169.662,78.8417 169.328,79.5084 169.5,80.5C 168.833,80.5 168.5,80.8333 168.5,81.5C 167.833,81.5 167.5,81.8333 167.5,82.5C 166.833,82.5 166.5,82.8333 166.5,83.5C 165.833,83.5 165.5,83.8333 165.5,84.5C 164.508,84.3284 163.842,84.6618 163.5,85.5C 162.508,85.3284 161.842,85.6618 161.5,86.5C 160.041,86.4326 158.708,86.7659 157.5,87.5C 157.403,75.0086 157.57,62.3419 158,49.5C 158.383,48.944 158.883,48.6107 159.5,48.5 Z"/></g><g><path style="opacity:.004" fill="#ffacf6" d="M 34.5,51.5 C 34.5,52.1667 34.5,52.8333 34.5,53.5C 33.8333,53.5 33.5,53.8333 33.5,54.5C 32.2848,53.221 32.6182,52.221 34.5,51.5 Z"/></g><g><path style="opacity:.987" fill="#ac4422" d="M 59.5,55.5 C 55.6877,56.3238 51.6877,56.8238 47.5,57C 52.82,62.6408 58.4866,67.8075 64.5,72.5C 64.5,72.8333 64.5,73.1667 64.5,73.5C 63.6618,73.8417 63.3284,74.5084 63.5,75.5C 62.6618,75.8417 62.3284,76.5084 62.5,77.5C 61.8333,77.5 61.5,77.8333 61.5,78.5C 60.448,78.6495 59.448,78.4828 58.5,78C 50.8319,70.1532 43.4986,62.9865 36.5,56.5C 43.9818,55.508 51.6484,55.1746 59.5,55.5 Z"/></g><g><path style="opacity:.999" fill="#a33224" d="M 59.5,55.5 C 59.8333,55.5 60.1667,55.5 60.5,55.5C 65.5,55.5 70.5,55.5 75.5,55.5C 76.791,55.2627 77.791,55.596 78.5,56.5C 76.847,56.6596 75.5137,57.3263 74.5,58.5C 73.8333,58.5 73.5,58.8333 73.5,59.5C 72.8333,59.5 72.5,59.8333 72.5,60.5C 71.8333,60.5 71.5,60.8333 71.5,61.5C 70.6618,61.8417 70.3284,62.5084 70.5,63.5C 69.6618,63.8417 69.3284,64.5084 69.5,65.5C 68.8333,65.5 68.5,65.8333 68.5,66.5C 67.6618,66.8417 67.3284,67.5084 67.5,68.5C 66.6618,68.8417 66.3284,69.5084 66.5,70.5C 65.6618,70.8417 65.3284,71.5084 65.5,72.5C 65.1667,72.5 64.8333,72.5 64.5,72.5C 58.4866,67.8075 52.82,62.6408 47.5,57C 51.6877,56.8238 55.6877,56.3238 59.5,55.5 Z"/></g><g><path style="opacity:.008" fill="#881613" d="M 74.5,59.5 C 74.5,59.1667 74.5,58.8333 74.5,58.5C 77.1667,58.8333 77.1667,59.1667 74.5,59.5 Z"/></g><g><path style="opacity:.984" fill="#b45220" d="M 36.5,56.5 C 43.4986,62.9865 50.8319,70.1532 58.5,78C 59.448,78.4828 60.448,78.6495 61.5,78.5C 61.5,78.8333 61.5,79.1667 61.5,79.5C 60.8333,79.5 60.5,79.8333 60.5,80.5C 59.6618,80.8417 59.3284,81.5084 59.5,82.5C 58.5116,83.795 57.5116,85.1283 56.5,86.5C 48.2493,78.7509 40.0826,70.7509 32,62.5C 31.4209,61.0715 31.5876,59.7382 32.5,58.5C 33.6049,57.3995 34.9382,56.7329 36.5,56.5 Z"/></g><g><path style="opacity:.016" fill="#be403f" d="M 73.5,59.5 C 73.8333,59.5 74.1667,59.5 74.5,59.5C 74.3147,60.1701 73.9813,60.1701 73.5,59.5 Z"/></g><g><path style="opacity:.012" fill="#bf7a01" d="M 127.5,59.5 C 127.489,62.0009 126.822,62.1676 125.5,60C 126.094,59.5357 126.761,59.369 127.5,59.5 Z"/></g><g><path style="opacity:.02" fill="#983332" d="M 72.5,60.5 C 72.8333,60.5 73.1667,60.5 73.5,60.5C 73.3147,61.1701 72.9813,61.1701 72.5,60.5 Z"/></g><g><path style="opacity:.008" fill="#8d0000" d="M 71.5,61.5 C 71.8333,61.5 72.1667,61.5 72.5,61.5C 72.6716,62.4916 72.3382,63.1583 71.5,63.5C 71.5,62.8333 71.5,62.1667 71.5,61.5 Z"/></g><g><path style="opacity:.012" fill="#9d6500" d="M 129.5,62.5 C 129.5,63.1667 129.5,63.8333 129.5,64.5C 128.167,63.8333 128.167,63.1667 129.5,62.5 Z"/></g><g><path style="opacity:.004" fill="#d42e1f" d="M 70.5,63.5 C 70.8333,63.5 71.1667,63.5 71.5,63.5C 71.6716,64.4916 71.3382,65.1583 70.5,65.5C 70.5,64.8333 70.5,64.1667 70.5,63.5 Z"/></g><g><path style="opacity:.008" fill="#a98e00" d="M 129.5,64.5 C 129.833,64.5 130.167,64.5 130.5,64.5C 130.5,65.1667 130.5,65.8333 130.5,66.5C 129.662,66.1583 129.328,65.4916 129.5,64.5 Z"/></g><g><path style="opacity:.004" fill="#3c2115" d="M 69.5,65.5 C 69.8333,65.5 70.1667,65.5 70.5,65.5C 70.573,67.0269 69.9063,68.0269 68.5,68.5C 68.5,67.8333 68.5,67.1667 68.5,66.5C 69.1667,66.5 69.5,66.1667 69.5,65.5 Z"/></g><g><path style="opacity:.004" fill="#eb4cfe" d="M 130.5,66.5 C 130.833,66.5 131.167,66.5 131.5,66.5C 131.167,69.1667 130.833,69.1667 130.5,66.5 Z"/></g><g><path style="opacity:.008" fill="#8f7300" d="M 67.5,68.5 C 67.8333,68.5 68.1667,68.5 68.5,68.5C 68.6716,69.4916 68.3382,70.1583 67.5,70.5C 67.5,69.8333 67.5,69.1667 67.5,68.5 Z"/></g><g><path style="opacity:.012" fill="#9d6500" d="M 133.5,69.5 C 133.5,70.1667 133.5,70.8333 133.5,71.5C 132.167,70.8333 132.167,70.1667 133.5,69.5 Z"/></g><g><path style="opacity:.004" fill="#d42e1f" d="M 66.5,70.5 C 66.8333,70.5 67.1667,70.5 67.5,70.5C 67.6716,71.4916 67.3382,72.1583 66.5,72.5C 66.5,71.8333 66.5,71.1667 66.5,70.5 Z"/></g><g><path style="opacity:.016" fill="#7f403f" d="M 65.5,72.5 C 65.8333,72.5 66.1667,72.5 66.5,72.5C 66.3147,73.1701 65.9813,73.1701 65.5,72.5 Z"/></g><g><path style="opacity:.008" fill="#986fff" d="M 133.5,71.5 C 133.833,71.5 134.167,71.5 134.5,71.5C 134.5,72.1667 134.5,72.8333 134.5,73.5C 133.662,73.1583 133.328,72.4916 133.5,71.5 Z"/></g><g><path style="opacity:.988" fill="#c26b1e" d="M 26.5,66.5 C 34.8047,75.8077 43.138,85.1411 51.5,94.5C 51.5,95.1667 51.5,95.8333 51.5,96.5C 50.6618,96.8417 50.3284,97.5084 50.5,98.5C 49.2223,98.7822 48.2223,99.4489 47.5,100.5C 39.2865,91.976 31.6198,83.976 24.5,76.5C 24.5465,73.0314 25.2132,69.698 26.5,66.5 Z"/></g><g><path style="opacity:.012" fill="#c64aff" d="M 64.5,73.5 C 64.8333,73.5 65.1667,73.5 65.5,73.5C 65.6716,74.4916 65.3382,75.1583 64.5,75.5C 64.5,74.8333 64.5,74.1667 64.5,73.5 Z"/></g><g><path style="opacity:.004" fill="#eb4cfe" d="M 134.5,73.5 C 134.833,73.5 135.167,73.5 135.5,73.5C 135.167,76.1667 134.833,76.1667 134.5,73.5 Z"/></g><g><path style="opacity:.008" fill="#8e2602" d="M 63.5,75.5 C 63.8333,75.5 64.1667,75.5 64.5,75.5C 64.6716,76.4916 64.3382,77.1583 63.5,77.5C 63.5,76.8333 63.5,76.1667 63.5,75.5 Z"/></g><g><path style="opacity:1" fill="#bb5e1f" d="M 31.5,58.5 C 31.8333,58.5 32.1667,58.5 32.5,58.5C 31.5876,59.7382 31.4209,61.0715 32,62.5C 40.0826,70.7509 48.2493,78.7509 56.5,86.5C 55.8902,87.391 55.5569,88.391 55.5,89.5C 54.6618,89.8417 54.3284,90.5084 54.5,91.5C 53.8333,91.5 53.5,91.8333 53.5,92.5C 52.6618,92.8417 52.3284,93.5084 52.5,94.5C 52.1667,94.5 51.8333,94.5 51.5,94.5C 43.138,85.1411 34.8047,75.8077 26.5,66.5C 27.6803,63.4604 29.347,60.7937 31.5,58.5 Z"/></g><g><path style="opacity:.012" fill="#9d6500" d="M 137.5,76.5 C 137.631,77.2389 137.464,77.9056 137,78.5C 136.308,77.5632 136.475,76.8966 137.5,76.5 Z"/></g><g><path style="opacity:.012" fill="#a90000" d="M 171.5,77.5 C 172.833,78.1667 172.833,78.1667 171.5,77.5 Z"/></g><g><path style="opacity:.004" fill="#ea271d" d="M 62.5,77.5 C 62.8333,77.5 63.1667,77.5 63.5,77.5C 63.6716,78.4916 63.3382,79.1583 62.5,79.5C 62.5,78.8333 62.5,78.1667 62.5,77.5 Z"/></g><g><path style="opacity:.012" fill="#a95500" d="M 61.5,79.5 C 61.8333,79.5 62.1667,79.5 62.5,79.5C 62.3147,80.1701 61.9813,80.1701 61.5,79.5 Z"/></g><g><path style="opacity:.008" fill="#a80003" d="M 170.5,78.5 C 170.833,78.5 171.167,78.5 171.5,78.5C 171.672,79.4916 171.338,80.1583 170.5,80.5C 170.5,79.8333 170.5,79.1667 170.5,78.5 Z"/></g><g><path style="opacity:.012" fill="#a90000" d="M 169.5,80.5 C 169.833,80.5 170.167,80.5 170.5,80.5C 170.315,81.1701 169.981,81.1701 169.5,80.5 Z"/></g><g><path style="opacity:.012" fill="#c56200" d="M 60.5,80.5 C 60.8333,80.5 61.1667,80.5 61.5,80.5C 61.6716,81.4916 61.3382,82.1583 60.5,82.5C 60.5,81.8333 60.5,81.1667 60.5,80.5 Z"/></g><g><path style="opacity:.016" fill="#7f403f" d="M 168.5,81.5 C 168.833,81.5 169.167,81.5 169.5,81.5C 169.315,82.1701 168.981,82.1701 168.5,81.5 Z"/></g><g><path style="opacity:.016" fill="#be403f" d="M 167.5,82.5 C 167.833,82.5 168.167,82.5 168.5,82.5C 168.315,83.1701 167.981,83.1701 167.5,82.5 Z"/></g><g><path style="opacity:.004" fill="#e92700" d="M 59.5,82.5 C 59.8333,82.5 60.1667,82.5 60.5,82.5C 60.1667,85.1667 59.8333,85.1667 59.5,82.5 Z"/></g><g><path style="opacity:.016" fill="#7f403f" d="M 166.5,83.5 C 166.833,83.5 167.167,83.5 167.5,83.5C 167.315,84.1701 166.981,84.1701 166.5,83.5 Z"/></g><g><path style="opacity:.012" fill="#a90000" d="M 165.5,84.5 C 165.833,84.5 166.167,84.5 166.5,84.5C 166.315,85.1701 165.981,85.1701 165.5,84.5 Z"/></g><g><path style="opacity:.999" fill="#c8771d" d="M 47.5,100.5 C 47.0248,102.784 46.0248,104.784 44.5,106.5C 44.5,107.167 44.1667,107.5 43.5,107.5C 37.8695,101.369 32.0362,95.3686 26,89.5C 25.8019,91.3817 25.3019,93.0484 24.5,94.5C 24.5,88.5 24.5,82.5 24.5,76.5C 31.6198,83.976 39.2865,91.976 47.5,100.5 Z"/></g><g><path style="opacity:.004" fill="#d32f00" d="M 163.5,86.5 C 163.5,86.1667 163.5,85.8333 163.5,85.5C 164.167,85.5 164.833,85.5 165.5,85.5C 165.158,86.3382 164.492,86.6716 163.5,86.5 Z"/></g><g><path style="opacity:.008" fill="#8e2602" d="M 161.5,86.5 C 162.167,86.5 162.833,86.5 163.5,86.5C 162.833,87.8333 162.167,87.8333 161.5,86.5 Z"/></g><g><path style="opacity:.004" fill="#eec1fc" d="M 55.5,89.5 C 56.8333,90.1667 56.8333,90.8333 55.5,91.5C 55.5,90.8333 55.5,90.1667 55.5,89.5 Z"/></g><g><path style="opacity:.016" fill="#be4000" d="M 54.5,91.5 C 54.8333,91.5 55.1667,91.5 55.5,91.5C 55.3147,92.1701 54.9813,92.1701 54.5,91.5 Z"/></g><g><path style="opacity:.012" fill="#c64aff" d="M 53.5,92.5 C 53.8333,92.5 54.1667,92.5 54.5,92.5C 54.6716,93.4916 54.3382,94.1583 53.5,94.5C 53.5,93.8333 53.5,93.1667 53.5,92.5 Z"/></g><g><path style="opacity:.008" fill="#ac78fe" d="M 52.5,94.5 C 52.8333,94.5 53.1667,94.5 53.5,94.5C 53.6716,95.4916 53.3382,96.1583 52.5,96.5C 52.5,95.8333 52.5,95.1667 52.5,94.5 Z"/></g><g><path style="opacity:.999" fill="#d1881c" d="M 43.5,107.5 C 41.0031,113.165 38.0031,118.498 34.5,123.5C 32.5817,120.076 30.0817,117.076 27,114.5C 26.6667,111.5 26.3333,108.5 26,105.5C 25.8019,107.382 25.3019,109.048 24.5,110.5C 24.5,105.167 24.5,99.8333 24.5,94.5C 25.3019,93.0484 25.8019,91.3817 26,89.5C 32.0362,95.3686 37.8695,101.369 43.5,107.5 Z"/></g><g><path style="opacity:.008" fill="#958000" d="M 51.5,96.5 C 51.8333,96.5 52.1667,96.5 52.5,96.5C 52.1667,99.1667 51.8333,99.1667 51.5,96.5 Z"/></g><g><path style="opacity:1" fill="#ab4121" d="M 50.5,98.5 C 49.6993,100.042 49.366,101.708 49.5,103.5C 49.6027,120.67 49.436,138.003 49,155.5C 47.9614,156.244 47.4614,157.244 47.5,158.5C 46.5,158.167 45.8333,157.5 45.5,156.5C 46.6502,140.574 46.8169,124.574 46,108.5C 45.7216,107.584 45.2216,106.918 44.5,106.5C 46.0248,104.784 47.0248,102.784 47.5,100.5C 48.2223,99.4489 49.2223,98.7822 50.5,98.5 Z"/></g><g><path style="opacity:.992" fill="#b14b21" d="M 49.5,103.5 C 51.1473,106.795 52.8139,110.128 54.5,113.5C 54.1269,121.293 54.1269,129.293 54.5,137.5C 54.4665,145.401 53.7998,153.067 52.5,160.5C 50.7162,160.107 49.0495,159.441 47.5,158.5C 47.4614,157.244 47.9614,156.244 49,155.5C 49.436,138.003 49.6027,120.67 49.5,103.5 Z"/></g><g><path style="opacity:.982" fill="#a23123" d="M 44.5,106.5 C 45.2216,106.918 45.7216,107.584 46,108.5C 46.8169,124.574 46.6502,140.574 45.5,156.5C 44.1667,156.167 42.8333,155.833 41.5,155.5C 41.5,154.833 41.1667,154.5 40.5,154.5C 35.743,151.077 32.0763,146.744 29.5,141.5C 29.335,138.15 29.5017,134.817 30,131.5C 31.7653,128.968 33.2653,126.301 34.5,123.5C 38.0031,118.498 41.0031,113.165 43.5,107.5C 44.1667,107.5 44.5,107.167 44.5,106.5 Z"/></g><g><path style="opacity:.997" fill="#e3a619" d="M 166.5,120.5 C 159.333,121.817 152.166,121.817 145,120.5C 144.047,122.373 142.88,122.706 141.5,121.5C 149.56,113.989 157.893,113.655 166.5,120.5 Z"/></g><g><path style="opacity:.995" fill="#de9f1a" d="M 34.5,123.5 C 33.2653,126.301 31.7653,128.968 30,131.5C 29.5017,134.817 29.335,138.15 29.5,141.5C 29.1667,141.5 28.8333,141.5 28.5,141.5C 28.6716,140.508 28.3382,139.842 27.5,139.5C 27.6716,138.508 27.3382,137.842 26.5,137.5C 24.7381,128.61 24.0715,119.61 24.5,110.5C 25.3019,109.048 25.8019,107.382 26,105.5C 26.3333,108.5 26.6667,111.5 27,114.5C 30.0817,117.076 32.5817,120.076 34.5,123.5 Z"/></g><g><path style="opacity:1" fill="#b75820" d="M 54.5,113.5 C 57.4032,117.63 60.0699,121.963 62.5,126.5C 60.7925,139.171 59.7925,152.171 59.5,165.5C 56.9528,164.066 54.6195,162.4 52.5,160.5C 53.7998,153.067 54.4665,145.401 54.5,137.5C 54.1269,129.293 54.1269,121.293 54.5,113.5 Z"/></g><g><path style="opacity:.999" fill="#d38b1b" d="M 166.5,120.5 C 168.822,121.802 170.155,123.802 170.5,126.5C 159.833,126.5 149.167,126.5 138.5,126.5C 139.11,124.566 140.11,122.899 141.5,121.5C 142.88,122.706 144.047,122.373 145,120.5C 152.166,121.817 159.333,121.817 166.5,120.5 Z"/></g><g><path style="opacity:.016" fill="#9d780e" d="M 137.5,126.5 C 136.833,126.5 136.5,126.833 136.5,127.5C 135.287,126.503 135.454,125.503 137,124.5C 137.464,125.094 137.631,125.761 137.5,126.5 Z"/></g><g><path style="opacity:.012" fill="#d568fe" d="M 173.5,128.5 C 173.167,128.5 172.833,128.5 172.5,128.5C 172.672,127.508 172.338,126.842 171.5,126.5C 171.369,125.761 171.536,125.094 172,124.5C 173.188,125.563 173.688,126.897 173.5,128.5 Z"/></g><g><path style="opacity:1" fill="#c5711e" d="M 137.5,126.5 C 137.833,126.5 138.167,126.5 138.5,126.5C 149.167,126.5 159.833,126.5 170.5,126.5C 170.833,126.5 171.167,126.5 171.5,126.5C 171.328,127.492 171.662,128.158 172.5,128.5C 172.5,129.5 172.5,130.5 172.5,131.5C 159.913,132.48 147.246,132.813 134.5,132.5C 135.441,130.95 136.107,129.284 136.5,127.5C 137.167,127.5 137.5,127.167 137.5,126.5 Z"/></g><g><path style="opacity:.994" fill="#c0681e" d="M 62.5,126.5 C 65.263,131.701 68.263,136.701 71.5,141.5C 71.5,142.167 71.8333,142.5 72.5,142.5C 72.5,142.833 72.5,143.167 72.5,143.5C 72.5,143.833 72.5,144.167 72.5,144.5C 71.6365,143.537 70.9698,143.537 70.5,144.5C 71.0402,145.748 71.7069,146.915 72.5,148C 71.7862,155.801 71.1195,163.634 70.5,171.5C 66.8333,169.5 63.1667,167.5 59.5,165.5C 59.7925,152.171 60.7925,139.171 62.5,126.5 Z"/></g><g><path style="opacity:.012" fill="#bd5900" d="M 173.5,128.5 C 174.833,132.167 174.833,135.833 173.5,139.5C 173.5,135.833 173.5,132.167 173.5,128.5 Z"/></g><g><path style="opacity:.008" fill="#e98000" d="M 26.5,137.5 C 26.5,138.167 26.5,138.833 26.5,139.5C 25.1667,138.833 25.1667,138.167 26.5,137.5 Z"/></g><g><path style="opacity:1" fill="#b24c21" d="M 172.5,131.5 C 172.5,134.167 172.5,136.833 172.5,139.5C 171.833,139.5 171.5,139.833 171.5,140.5C 157.882,139.535 144.216,139.202 130.5,139.5C 131.58,137.004 132.914,134.67 134.5,132.5C 147.246,132.813 159.913,132.48 172.5,131.5 Z"/></g><g><path style="opacity:.012" fill="#a95500" d="M 172.5,139.5 C 172.833,139.5 173.167,139.5 173.5,139.5C 173.672,140.492 173.338,141.158 172.5,141.5C 172.5,140.833 172.5,140.167 172.5,139.5 Z"/></g><g><path style="opacity:.004" fill="#e8b5fa" d="M 26.5,139.5 C 26.8333,139.5 27.1667,139.5 27.5,139.5C 27.5,140.167 27.5,140.833 27.5,141.5C 26.6618,141.158 26.3284,140.492 26.5,139.5 Z"/></g><g><path style="opacity:.02" fill="#ac431d" d="M 72.5,142.5 C 71.8333,142.5 71.5,142.167 71.5,141.5C 71.7467,139.025 72.4134,139.025 73.5,141.5C 73.3764,142.107 73.0431,142.44 72.5,142.5 Z"/></g><g><path style="opacity:.004" fill="#d42e1f" d="M 27.5,141.5 C 27.8333,141.5 28.1667,141.5 28.5,141.5C 28.1667,144.167 27.8333,144.167 27.5,141.5 Z"/></g><g><path style="opacity:.012" fill="#9c3e01" d="M 171.5,141.5 C 171.833,141.5 172.167,141.5 172.5,141.5C 172.672,142.492 172.338,143.158 171.5,143.5C 171.5,142.833 171.5,142.167 171.5,141.5 Z"/></g><g><path style="opacity:1" fill="#9e2a24" d="M 130.5,139.5 C 144.216,139.202 157.882,139.535 171.5,140.5C 171.5,140.833 171.5,141.167 171.5,141.5C 170.662,141.842 170.328,142.508 170.5,143.5C 169.833,143.5 169.5,143.833 169.5,144.5C 167.079,144.878 164.746,145.545 162.5,146.5C 149.167,146.5 135.833,146.5 122.5,146.5C 125.761,144.91 128.427,142.576 130.5,139.5 Z"/></g><g><path style="opacity:.004" fill="#e8b5fa" d="M 170.5,143.5 C 170.833,143.5 171.167,143.5 171.5,143.5C 171.672,144.492 171.338,145.158 170.5,145.5C 170.5,144.833 170.5,144.167 170.5,143.5 Z"/></g><g><path style="opacity:.012" fill="#feaa00" d="M 169.5,145.5 C 169.833,145.5 170.167,145.5 170.5,145.5C 170.315,146.17 169.981,146.17 169.5,145.5 Z"/></g><g><path style="opacity:.016" fill="#febf00" d="M 168.5,146.5 C 168.833,146.5 169.167,146.5 169.5,146.5C 169.315,147.17 168.981,147.17 168.5,146.5 Z"/></g><g><path style="opacity:.987" fill="#c46f1e" d="M 128.5,147.5 C 130.418,155.228 131.085,163.228 130.5,171.5C 129.833,171.5 129.5,171.833 129.5,172.5C 128.508,172.328 127.842,172.662 127.5,173.5C 126.508,173.328 125.842,173.662 125.5,174.5C 124.833,174.5 124.5,174.833 124.5,175.5C 124.167,175.5 123.833,175.5 123.5,175.5C 123.5,166.167 123.5,156.833 123.5,147.5C 125.167,147.5 126.833,147.5 128.5,147.5 Z"/></g><g><path style="opacity:.999" fill="#a33123" d="M 72.5,143.5 C 74.1401,144.32 75.8068,145.153 77.5,146C 83.4908,146.499 89.4908,146.666 95.5,146.5C 94.0484,147.302 92.3817,147.802 90.5,148C 91.4825,156.081 91.8158,164.248 91.5,172.5C 90.5,172.5 89.5,172.5 88.5,172.5C 83.1667,163.167 77.8333,153.833 72.5,144.5C 72.5,144.167 72.5,143.833 72.5,143.5 Z"/></g><g><path style="opacity:.999" fill="#aa3f22" d="M 95.5,146.5 C 96.8333,146.5 98.1667,146.5 99.5,146.5C 98.7375,147.268 97.7375,147.768 96.5,148C 97.448,148.483 98.448,148.649 99.5,148.5C 99.6665,158.839 99.4998,169.172 99,179.5C 97.9887,180.337 96.8221,180.67 95.5,180.5C 92.4503,178.451 90.117,175.784 88.5,172.5C 89.5,172.5 90.5,172.5 91.5,172.5C 91.8158,164.248 91.4825,156.081 90.5,148C 92.3817,147.802 94.0484,147.302 95.5,146.5 Z"/></g><g><path style="opacity:.999" fill="#b14c21" d="M 99.5,146.5 C 101.833,146.5 104.167,146.5 106.5,146.5C 103.742,147.967 104.075,148.633 107.5,148.5C 107.5,159.167 107.5,169.833 107.5,180.5C 104.075,180.367 103.742,181.033 106.5,182.5C 104.139,182.674 101.806,183.007 99.5,183.5C 98.5525,182.022 97.2191,181.022 95.5,180.5C 96.8221,180.67 97.9887,180.337 99,179.5C 99.4998,169.172 99.6665,158.839 99.5,148.5C 98.448,148.649 97.448,148.483 96.5,148C 97.7375,147.768 98.7375,147.268 99.5,146.5 Z"/></g><g><path style="opacity:.999" fill="#bd621f" d="M 115.5,146.5 C 117.833,146.5 120.167,146.5 122.5,146.5C 135.833,146.5 149.167,146.5 162.5,146.5C 155.687,147.491 148.687,147.825 141.5,147.5C 137.167,147.5 132.833,147.5 128.5,147.5C 126.833,147.5 125.167,147.5 123.5,147.5C 123.5,156.833 123.5,166.167 123.5,175.5C 122.833,175.5 122.5,175.833 122.5,176.5C 121.508,176.328 120.842,176.662 120.5,177.5C 119.508,177.328 118.842,177.662 118.5,178.5C 117.833,178.5 117.5,178.833 117.5,179.5C 116.833,179.5 116.167,179.5 115.5,179.5C 111.757,179.541 111.59,178.874 115,177.5C 115.5,167.839 115.666,158.172 115.5,148.5C 114.448,148.649 113.448,148.483 112.5,148C 113.737,147.768 114.737,147.268 115.5,146.5 Z"/></g><g><path style="opacity:1" fill="#cc7f1c" d="M 128.5,147.5 C 132.833,147.5 137.167,147.5 141.5,147.5C 142.278,148.156 142.944,148.989 143.5,150C 142.217,152.848 142.217,155.682 143.5,158.5C 142.926,160.059 142.26,161.559 141.5,163C 142.094,163.464 142.761,163.631 143.5,163.5C 143.5,163.833 143.5,164.167 143.5,164.5C 142.508,164.328 141.842,164.662 141.5,165.5C 138.669,166.079 136.336,167.412 134.5,169.5C 133.508,169.328 132.842,169.662 132.5,170.5C 131.833,170.5 131.5,170.833 131.5,171.5C 131.167,171.5 130.833,171.5 130.5,171.5C 131.085,163.228 130.418,155.228 128.5,147.5 Z"/></g><g><path style="opacity:1" fill="#b85920" d="M 106.5,146.5 C 109.5,146.5 112.5,146.5 115.5,146.5C 114.737,147.268 113.737,147.768 112.5,148C 113.448,148.483 114.448,148.649 115.5,148.5C 115.666,158.172 115.5,167.839 115,177.5C 111.59,178.874 111.757,179.541 115.5,179.5C 115.5,179.833 115.5,180.167 115.5,180.5C 114.209,180.263 113.209,180.596 112.5,181.5C 111.209,181.263 110.209,181.596 109.5,182.5C 108.5,182.5 107.5,182.5 106.5,182.5C 103.742,181.033 104.075,180.367 107.5,180.5C 107.5,169.833 107.5,159.167 107.5,148.5C 104.075,148.633 103.742,147.967 106.5,146.5 Z"/></g><g><path style="opacity:.997" fill="#da961b" d="M 169.5,144.5 C 169.5,144.833 169.5,145.167 169.5,145.5C 168.833,145.5 168.5,145.833 168.5,146.5C 166.167,148.167 164.167,150.167 162.5,152.5C 161.833,152.5 161.5,152.833 161.5,153.5C 160.833,153.5 160.5,153.833 160.5,154.5C 159.508,154.328 158.842,154.662 158.5,155.5C 157.833,155.5 157.5,155.833 157.5,156.5C 156.508,156.328 155.842,156.662 155.5,157.5C 154.508,157.328 153.842,157.662 153.5,158.5C 152.508,158.328 151.842,158.662 151.5,159.5C 150.833,159.5 150.5,159.833 150.5,160.5C 149.508,160.328 148.842,160.662 148.5,161.5C 147.508,161.328 146.842,161.662 146.5,162.5C 145.508,162.328 144.842,162.662 144.5,163.5C 144.167,163.5 143.833,163.5 143.5,163.5C 142.761,163.631 142.094,163.464 141.5,163C 142.26,161.559 142.926,160.059 143.5,158.5C 142.217,155.682 142.217,152.848 143.5,150C 142.944,148.989 142.278,148.156 141.5,147.5C 148.687,147.825 155.687,147.491 162.5,146.5C 164.746,145.545 167.079,144.878 169.5,144.5 Z"/></g><g><path style="opacity:.004" fill="#e67cfb" d="M 162.5,152.5 C 164.793,153.301 164.46,153.968 161.5,154.5C 161.5,154.167 161.5,153.833 161.5,153.5C 162.167,153.5 162.5,153.167 162.5,152.5 Z"/></g><g><path style="opacity:.004" fill="#361612" d="M 40.5,154.5 C 41.1667,154.5 41.5,154.833 41.5,155.5C 40.5029,156.713 39.5029,156.546 38.5,155C 39.0944,154.536 39.7611,154.369 40.5,154.5 Z"/></g><g><path style="opacity:.016" fill="#be8000" d="M 160.5,154.5 C 160.833,154.5 161.167,154.5 161.5,154.5C 161.315,155.17 160.981,155.17 160.5,154.5 Z"/></g><g><path style="opacity:.008" fill="#fe8000" d="M 158.5,156.5 C 158.5,156.167 158.5,155.833 158.5,155.5C 159.167,155.5 159.833,155.5 160.5,155.5C 160.158,156.338 159.492,156.672 158.5,156.5 Z"/></g><g><path style="opacity:.012" fill="#feaa00" d="M 157.5,156.5 C 157.833,156.5 158.167,156.5 158.5,156.5C 158.315,157.17 157.981,157.17 157.5,156.5 Z"/></g><g><path style="opacity:.004" fill="#ead300" d="M 155.5,158.5 C 155.5,158.167 155.5,157.833 155.5,157.5C 156.167,157.5 156.833,157.5 157.5,157.5C 157.158,158.338 156.492,158.672 155.5,158.5 Z"/></g><g><path style="opacity:.999" fill="#d1871c" d="M 72.5,144.5 C 77.8333,153.833 83.1667,163.167 88.5,172.5C 90.117,175.784 92.4503,178.451 95.5,180.5C 97.2191,181.022 98.5525,182.022 99.5,183.5C 88.8131,181.991 79.1464,177.991 70.5,171.5C 71.1195,163.634 71.7862,155.801 72.5,148C 71.7069,146.915 71.0402,145.748 70.5,144.5C 70.9698,143.537 71.6365,143.537 72.5,144.5 Z"/></g><g><path style="opacity:.008" fill="#a98e00" d="M 153.5,159.5 C 153.5,159.167 153.5,158.833 153.5,158.5C 154.167,158.5 154.833,158.5 155.5,158.5C 155.158,159.338 154.492,159.672 153.5,159.5 Z"/></g><g><path style="opacity:.012" fill="#9b9b00" d="M 151.5,160.5 C 151.5,160.167 151.5,159.833 151.5,159.5C 152.167,159.5 152.833,159.5 153.5,159.5C 153.158,160.338 152.492,160.672 151.5,160.5 Z"/></g><g><path style="opacity:.016" fill="#be8000" d="M 150.5,160.5 C 150.833,160.5 151.167,160.5 151.5,160.5C 151.315,161.17 150.981,161.17 150.5,160.5 Z"/></g><g><path style="opacity:.004" fill="#ead300" d="M 148.5,162.5 C 148.5,162.167 148.5,161.833 148.5,161.5C 149.167,161.5 149.833,161.5 150.5,161.5C 150.158,162.338 149.492,162.672 148.5,162.5 Z"/></g><g><path style="opacity:.008" fill="#ff8e00" d="M 146.5,163.5 C 146.5,163.167 146.5,162.833 146.5,162.5C 147.167,162.5 147.833,162.5 148.5,162.5C 148.158,163.338 147.492,163.672 146.5,163.5 Z"/></g><g><path style="opacity:.012" fill="#ff85fd" d="M 144.5,164.5 C 144.5,164.167 144.5,163.833 144.5,163.5C 145.167,163.5 145.833,163.5 146.5,163.5C 146.158,164.338 145.492,164.672 144.5,164.5 Z"/></g><g><path style="opacity:.016" fill="#be8000" d="M 143.5,164.5 C 143.833,164.5 144.167,164.5 144.5,164.5C 144.315,165.17 143.981,165.17 143.5,164.5 Z"/></g><g><path style="opacity:.004" fill="#ead300" d="M 141.5,165.5 C 142.167,165.5 142.833,165.5 143.5,165.5C 142.833,166.833 142.167,166.833 141.5,165.5 Z"/></g><g><path style="opacity:.004" fill="#ead300" d="M 134.5,170.5 C 134.5,170.167 134.5,169.833 134.5,169.5C 137.167,169.833 137.167,170.167 134.5,170.5 Z"/></g><g><path style="opacity:.012" fill="#c56200" d="M 132.5,171.5 C 132.5,171.167 132.5,170.833 132.5,170.5C 133.167,170.5 133.833,170.5 134.5,170.5C 134.158,171.338 133.492,171.672 132.5,171.5 Z"/></g><g><path style="opacity:.012" fill="#feaa00" d="M 131.5,171.5 C 131.833,171.5 132.167,171.5 132.5,171.5C 132.315,172.17 131.981,172.17 131.5,171.5 Z"/></g><g><path style="opacity:.004" fill="#eb4cfe" d="M 129.5,173.5 C 129.5,173.167 129.5,172.833 129.5,172.5C 130.167,172.5 130.833,172.5 131.5,172.5C 131.158,173.338 130.492,173.672 129.5,173.5 Z"/></g><g><path style="opacity:.008" fill="#ac78fe" d="M 127.5,174.5 C 127.5,174.167 127.5,173.833 127.5,173.5C 128.167,173.5 128.833,173.5 129.5,173.5C 129.158,174.338 128.492,174.672 127.5,174.5 Z"/></g><g><path style="opacity:.012" fill="#9d6500" d="M 125.5,175.5 C 125.5,175.167 125.5,174.833 125.5,174.5C 126.167,174.5 126.833,174.5 127.5,174.5C 127.158,175.338 126.492,175.672 125.5,175.5 Z"/></g><g><path style="opacity:.016" fill="#be8000" d="M 124.5,175.5 C 124.833,175.5 125.167,175.5 125.5,175.5C 125.315,176.17 124.981,176.17 124.5,175.5 Z"/></g><g><path style="opacity:.004" fill="#eb4cfe" d="M 122.5,177.5 C 122.5,177.167 122.5,176.833 122.5,176.5C 123.167,176.5 123.833,176.5 124.5,176.5C 124.158,177.338 123.492,177.672 122.5,177.5 Z"/></g><g><path style="opacity:.008" fill="#e17100" d="M 120.5,178.5 C 120.5,178.167 120.5,177.833 120.5,177.5C 121.167,177.5 121.833,177.5 122.5,177.5C 122.158,178.338 121.492,178.672 120.5,178.5 Z"/></g><g><path style="opacity:.004" fill="#6a2a0b" d="M 118.5,178.5 C 119.167,178.5 119.833,178.5 120.5,178.5C 120.027,179.906 119.027,180.573 117.5,180.5C 117.5,180.167 117.5,179.833 117.5,179.5C 118.167,179.5 118.5,179.167 118.5,178.5 Z"/></g><g><path style="opacity:.004" fill="#eec1fc" d="M 115.5,181.5 C 115.5,181.167 115.5,180.833 115.5,180.5C 116.167,180.5 116.833,180.5 117.5,180.5C 117.158,181.338 116.492,181.672 115.5,181.5 Z"/></g><g><path style="opacity:.016" fill="#c64a06" d="M 112.5,181.5 C 113.5,181.5 114.5,181.5 115.5,181.5C 113.68,183.461 111.68,183.794 109.5,182.5C 110.791,182.737 111.791,182.404 112.5,181.5 Z"/></g></svg>