<svg xmlns="http://www.w3.org/2000/svg" xmlns:xlink="http://www.w3.org/1999/xlink" width="200" height="76" version="1.1" style="shape-rendering:geometricPrecision;text-rendering:geometricPrecision;image-rendering:optimizeQuality;fill-rule:evenodd;clip-rule:evenodd"><g><path style="opacity:.016" fill="#000" d="M 35.5,-0.5 C 35.8333,-0.5 36.1667,-0.5 36.5,-0.5C 36.825,7.01905 36.4916,14.3524 35.5,21.5C 35.5,20.1667 34.8333,19.5 33.5,19.5C 35.3993,13.1176 36.0659,6.45092 35.5,-0.5 Z"/></g><g><path style="opacity:.841" fill="#000" d="M 37.5,-0.5 C 39.8333,-0.5 42.1667,-0.5 44.5,-0.5C 44.7828,0.28913 45.2828,0.955796 46,1.5C 46.1705,6.86421 46.6705,12.1975 47.5,17.5C 48.1067,17.3764 48.44,17.0431 48.5,16.5C 49.1667,16.5 49.5,16.1667 49.5,15.5C 56.0485,13.5664 62.0485,14.5664 67.5,18.5C 67.5,19.1667 67.8333,19.5 68.5,19.5C 68.5,20.1667 68.8333,20.5 69.5,20.5C 70.3201,22.1401 71.1534,23.8068 72,25.5C 72.8086,31.3168 73.642,36.9834 74.5,42.5C 73.6403,46.4338 73.307,50.4338 73.5,54.5C 72.6618,54.8417 72.3284,55.5084 72.5,56.5C 69.8333,56.5 67.1667,56.5 64.5,56.5C 64.6664,47.8269 64.4998,39.1603 64,30.5C 63.79,28.9419 63.29,27.6085 62.5,26.5C 58.9487,22.6065 54.9487,21.9398 50.5,24.5C 49.8333,24.5 49.5,24.8333 49.5,25.5C 48.8333,25.5 48.5,25.8333 48.5,26.5C 47.6618,26.8417 47.3284,27.5084 47.5,28.5C 46.7829,37.7035 46.1162,47.0368 45.5,56.5C 42.8806,56.7683 40.3806,56.435 38,55.5C 37.5001,36.8363 37.3334,18.1696 37.5,-0.5 Z M 47.5,28.5 C 47.6664,37.5062 47.4998,46.5062 47,55.5C 46.6174,56.056 46.1174,56.3893 45.5,56.5C 46.1162,47.0368 46.7829,37.7035 47.5,28.5 Z"/></g><g><path style="opacity:.89" fill="#000" d="M 193.5,-0.5 C 195.5,-0.5 197.5,-0.5 199.5,-0.5C 199.5,18.5 199.5,37.5 199.5,56.5C 197.143,56.6633 194.81,56.4966 192.5,56C 191.809,54.9326 191.309,53.7659 191,52.5C 190.283,53.0442 189.783,53.7109 189.5,54.5C 174.355,60.427 164.022,55.7604 158.5,40.5C 158.5,37.5 158.5,34.5 158.5,31.5C 159.434,30.4324 159.768,29.099 159.5,27.5C 164.626,18.0742 172.626,13.7408 183.5,14.5C 184.514,15.6737 185.847,16.3404 187.5,16.5C 187.842,17.3382 188.508,17.6716 189.5,17.5C 189.783,18.2891 190.283,18.9558 191,19.5C 190.929,12.5587 191.763,5.89206 193.5,-0.5 Z M 183.5,14.5 C 184.959,14.4326 186.292,14.7659 187.5,15.5C 187.5,15.8333 187.5,16.1667 187.5,16.5C 185.847,16.3404 184.514,15.6737 183.5,14.5 Z M 182.5,23.5 C 180.801,23.3398 179.134,23.5065 177.5,24C 185.49,23.9902 189.49,27.9902 189.5,36C 188.611,46.306 183.278,49.6394 173.5,46C 169.248,40.7573 168.415,34.9239 171,28.5C 172.319,26.5125 174.152,25.3459 176.5,25C 175.552,24.5172 174.552,24.3505 173.5,24.5C 176.373,22.5185 179.373,22.1851 182.5,23.5 Z"/></g><g><path style="opacity:.016" fill="#000" d="M 189.5,17.5 C 189.158,16.6618 188.492,16.3284 187.5,16.5C 187.5,16.1667 187.5,15.8333 187.5,15.5C 189.285,10.9325 190.118,5.93251 190,0.5C 190.818,6.34875 190.652,12.0154 189.5,17.5 Z"/></g><g><path style="opacity:.005" fill="#000" d="M 49.5,15.5 C 48.8333,15.5 48.5,15.8333 48.5,16.5C 47.3503,11.6842 47.1837,6.68422 48,1.5C 48.2227,6.24972 48.7227,10.9164 49.5,15.5 Z"/></g><g><path style="opacity:.856" fill="#000" d="M 33.5,19.5 C 33.8333,20.5 34.5,21.1667 35.5,21.5C 35.5,22.1667 35.5,22.8333 35.5,23.5C 34.8333,23.5 34.5,23.8333 34.5,24.5C 33.1851,25.4756 31.8518,26.4756 30.5,27.5C 29.8165,27.1373 29.1499,26.8039 28.5,26.5C 28.5,25.8333 28.1667,25.5 27.5,25.5C 20.1542,20.8847 13.9875,22.218 9,29.5C 5.3826,40.6101 9.21594,47.2768 20.5,49.5C 24.4658,48.7667 27.9658,47.1001 31,44.5C 32.3026,44.9783 33.4693,45.645 34.5,46.5C 34.5,47.1667 34.8333,47.5 35.5,47.5C 35.5,48.5 35.5,49.5 35.5,50.5C 33.8333,51.5 32.5,52.8333 31.5,54.5C 30.5084,54.3284 29.8417,54.6618 29.5,55.5C 28.5084,55.3284 27.8417,55.6618 27.5,56.5C 26.209,56.2627 25.209,56.596 24.5,57.5C 12.7226,58.677 4.38925,54.0104 -0.5,43.5C -0.5,38.5 -0.5,33.5 -0.5,28.5C 1.697,24.7623 4.36366,21.429 7.5,18.5C 8.16667,18.5 8.5,18.1667 8.5,17.5C 17.2828,13.0324 25.6161,13.6991 33.5,19.5 Z"/></g><g><path style="opacity:.862" fill="#000" d="M 113.5,30.5 C 113.5,33.5 113.5,36.5 113.5,39.5C 103.5,39.5 93.5,39.5 83.5,39.5C 84.6039,45.6022 88.2706,48.9355 94.5,49.5C 97.5548,49.2633 100.221,48.2633 102.5,46.5C 103.167,46.5 103.5,46.1667 103.5,45.5C 106.736,42.8077 109.736,43.141 112.5,46.5C 111.873,47.4168 111.539,48.4168 111.5,49.5C 110.833,49.5 110.5,49.8333 110.5,50.5C 109.833,50.5 109.5,50.8333 109.5,51.5C 108.833,51.5 108.5,51.8333 108.5,52.5C 107.833,52.5 107.5,52.8333 107.5,53.5C 106.833,53.5 106.5,53.8333 106.5,54.5C 105.508,54.3284 104.842,54.6618 104.5,55.5C 103.508,55.3284 102.842,55.6618 102.5,56.5C 91.6777,59.3049 83.0111,56.3049 76.5,47.5C 76.6716,46.5084 76.3382,45.8417 75.5,45.5C 75.7373,44.209 75.404,43.209 74.5,42.5C 74.5,38.1667 74.5,33.8333 74.5,29.5C 75.404,28.791 75.7373,27.791 75.5,26.5C 83.3204,13.8408 93.6537,11.3408 106.5,19C 109.952,22.2565 112.285,26.0899 113.5,30.5 Z M 91.5,23.5 C 94.3404,22.0829 97.007,22.4162 99.5,24.5C 98.7611,24.369 98.0944,24.5357 97.5,25C 99.687,26.025 101.354,27.525 102.5,29.5C 96.6807,30.3276 90.6807,30.8276 84.5,31C 87.6667,31.1667 90.8333,31.3333 94,31.5C 97.5758,31.4848 100.742,30.8182 103.5,29.5C 104.404,30.209 104.737,31.209 104.5,32.5C 97.5,32.5 90.5,32.5 83.5,32.5C 83.4021,30.4471 84.0687,28.7804 85.5,27.5C 85.369,28.2389 85.5357,28.9056 86,29.5C 86.4652,28.0692 87.2986,26.9025 88.5,26C 91.1013,25.0797 93.7679,24.413 96.5,24C 94.8659,23.5065 93.1992,23.3398 91.5,23.5 Z"/></g><g><path style="opacity:.863" fill="#000" d="M 156.5,74.5 C 155.508,74.3284 154.842,74.6618 154.5,75.5C 152.167,75.5 149.833,75.5 147.5,75.5C 147.831,68.1365 147.497,60.8032 146.5,53.5C 145.893,53.6236 145.56,53.9569 145.5,54.5C 144.833,54.5 144.5,54.8333 144.5,55.5C 143.508,55.3284 142.842,55.6618 142.5,56.5C 141.209,56.2627 140.209,56.596 139.5,57.5C 124.723,57.7834 116.389,50.6167 114.5,36C 115.287,33.9011 115.62,31.7345 115.5,29.5C 123.599,14.0254 135.265,10.6921 150.5,19.5C 152.512,19.1604 154.512,18.8271 156.5,18.5C 156.5,37.1667 156.5,55.8333 156.5,74.5 Z M 141.5,25.5 C 142.167,26.8333 143.167,27.8333 144.5,28.5C 145.833,33.5 145.833,38.5 144.5,43.5C 143.167,44.1667 142.167,45.1667 141.5,46.5C 138.627,46.8023 135.961,47.469 133.5,48.5C 132.209,48.7373 131.209,48.404 130.5,47.5C 131.239,47.631 131.906,47.4643 132.5,47C 128.074,45.2936 125.74,42.1269 125.5,37.5C 125.5,36.5 125.5,35.5 125.5,34.5C 127.36,25.9505 132.693,22.9505 141.5,25.5 Z M 125.5,29.5 C 125.5,31.1667 125.5,32.8333 125.5,34.5C 124.167,35.5 124.167,36.5 125.5,37.5C 125.5,39.1667 125.5,40.8333 125.5,42.5C 122.833,38.1667 122.833,33.8333 125.5,29.5 Z"/></g><g><path style="opacity:.009" fill="#000" d="M 8.5,17.5 C 7.83333,17.5 7.5,17.8333 7.5,18.5C 5.02482,18.2533 5.02482,17.5866 7.5,16.5C 8.10667,16.6236 8.44001,16.9569 8.5,17.5 Z"/></g><g><path style="opacity:.01" fill="#000" d="M 153.5,17.5 C 153.897,16.475 154.563,16.3083 155.5,17C 154.906,17.4643 154.239,17.631 153.5,17.5 Z"/></g><g><path style="opacity:.009" fill="#000" d="M 67.5,18.5 C 67.8966,17.475 68.5632,17.3083 69.5,18C 70.7736,18.9772 70.7736,19.8106 69.5,20.5C 68.8333,20.5 68.5,20.1667 68.5,19.5C 67.8333,19.5 67.5,19.1667 67.5,18.5 Z"/></g><g><path style="opacity:.018" fill="#000" d="M 159.5,27.5 C 158.566,28.5676 158.232,29.901 158.5,31.5C 157.355,27.6888 157.188,23.6888 158,19.5C 158.395,22.2066 158.895,24.8733 159.5,27.5 Z"/></g><g><path style="opacity:.017" fill="#000" d="M 35.5,23.5 C 36.8333,31.5 36.8333,39.5 35.5,47.5C 34.8333,47.5 34.5,47.1667 34.5,46.5C 35.8333,39.1667 35.8333,31.8333 34.5,24.5C 35.1667,24.5 35.5,24.1667 35.5,23.5 Z"/></g><g><path style="opacity:.01" fill="#000" d="M 50.5,25.5 C 50.5,25.1667 50.5,24.8333 50.5,24.5C 55.8333,24.8333 55.8333,25.1667 50.5,25.5 Z"/></g><g><path style="opacity:.018" fill="#000" d="M 75.5,26.5 C 74.596,27.209 74.2627,28.209 74.5,29.5C 73.156,27.8151 73.3227,26.1484 75,24.5C 75.4643,25.0944 75.631,25.7611 75.5,26.5 Z"/></g><g><path style="opacity:.01" fill="#000" d="M 27.5,25.5 C 28.1667,25.5 28.5,25.8333 28.5,26.5C 27.5029,27.7125 26.5029,27.5458 25.5,26C 26.0944,25.5357 26.7611,25.369 27.5,25.5 Z"/></g><g><path style="opacity:.024" fill="#000" d="M 49.5,25.5 C 49.8333,25.5 50.1667,25.5 50.5,25.5C 50.3147,26.1701 49.9813,26.1701 49.5,25.5 Z"/></g><g><path style="opacity:.011" fill="#000" d="M 141.5,25.5 C 142.167,25.5 142.833,25.5 143.5,25.5C 143.5,26.1667 143.833,26.5 144.5,26.5C 144.5,27.1667 144.5,27.8333 144.5,28.5C 143.167,27.8333 142.167,26.8333 141.5,25.5 Z"/></g><g><path style="opacity:.016" fill="#000" d="M 48.5,26.5 C 48.8333,26.5 49.1667,26.5 49.5,26.5C 49.1667,29.1667 48.8333,29.1667 48.5,26.5 Z"/></g><g><path style="opacity:.011" fill="#000" d="M 62.5,26.5 C 62.5,28.1667 62.5,29.8333 62.5,31.5C 61.1667,29.8333 61.1667,28.1667 62.5,26.5 Z"/></g><g><path style="opacity:.012" fill="#000" d="M 115.5,29.5 C 114.833,29.8333 114.167,30.1667 113.5,30.5C 114.066,26.1943 114.732,25.861 115.5,29.5 Z"/></g><g><path style="opacity:.02" fill="#000" d="M 102.5,29.5 C 102.833,29.5 103.167,29.5 103.5,29.5C 100.742,30.8182 97.5758,31.4848 94,31.5C 90.8333,31.3333 87.6667,31.1667 84.5,31C 90.6807,30.8276 96.6807,30.3276 102.5,29.5 Z"/></g><g><path style="opacity:.015" fill="#000" d="M 62.5,31.5 C 63.6561,39.3225 63.8228,47.3225 63,55.5C 62.5003,47.5069 62.3336,39.5069 62.5,31.5 Z"/></g><g><path style="opacity:.018" fill="#000" d="M 113.5,39.5 C 114.573,40.2506 114.74,41.2506 114,42.5C 104.619,42.0056 94.7861,41.5056 84.5,41C 94.342,40.83 104.009,40.33 113.5,39.5 Z"/></g><g><path style="opacity:.017" fill="#000" d="M 158.5,40.5 C 158.357,42.2624 158.691,43.9291 159.5,45.5C 158.857,55.2952 158.19,64.9619 157.5,74.5C 157.172,62.9877 157.505,51.6544 158.5,40.5 Z"/></g><g><path style="opacity:.011" fill="#000" d="M 103.5,45.5 C 102.833,45.5 102.5,45.8333 102.5,46.5C 100.343,45.9467 100.51,44.9467 103,43.5C 103.464,44.0944 103.631,44.7611 103.5,45.5 Z"/></g><g><path style="opacity:.011" fill="#000" d="M 144.5,43.5 C 144.5,44.1667 144.5,44.8333 144.5,45.5C 143.833,45.5 143.5,45.8333 143.5,46.5C 142.833,46.5 142.167,46.5 141.5,46.5C 142.167,45.1667 143.167,44.1667 144.5,43.5 Z"/></g><g><path style="opacity:.007" fill="#000" d="M 75.5,45.5 C 75.3284,46.4916 75.6618,47.1583 76.5,47.5C 75.7724,50.0795 75.2724,52.7462 75,55.5C 74.6174,56.056 74.1174,56.3893 73.5,56.5C 73.5,55.8333 73.5,55.1667 73.5,54.5C 74.1667,51.5 74.8333,48.5 75.5,45.5 Z"/></g><g><path style="opacity:.012" fill="#000" d="M 112.5,48.5 C 113.833,49.1667 113.833,49.1667 112.5,48.5 Z"/></g><g><path style="opacity:.02" fill="#000" d="M 111.5,49.5 C 111.833,49.5 112.167,49.5 112.5,49.5C 112.315,50.1701 111.981,50.1701 111.5,49.5 Z"/></g><g><path style="opacity:.016" fill="#000" d="M 35.5,50.5 C 36.6129,51.9464 36.7796,53.6131 36,55.5C 35.6258,54.5838 35.1258,53.7504 34.5,53C 35.2524,52.3292 35.5858,51.4959 35.5,50.5 Z"/></g><g><path style="opacity:.02" fill="#000" d="M 110.5,50.5 C 110.833,50.5 111.167,50.5 111.5,50.5C 111.315,51.1701 110.981,51.1701 110.5,50.5 Z"/></g><g><path style="opacity:.02" fill="#000" d="M 109.5,51.5 C 109.833,51.5 110.167,51.5 110.5,51.5C 110.315,52.1701 109.981,52.1701 109.5,51.5 Z"/></g><g><path style="opacity:.02" fill="#000" d="M 108.5,52.5 C 108.833,52.5 109.167,52.5 109.5,52.5C 109.315,53.1701 108.981,53.1701 108.5,52.5 Z"/></g><g><path style="opacity:.02" fill="#000" d="M 107.5,53.5 C 107.833,53.5 108.167,53.5 108.5,53.5C 108.315,54.1701 107.981,54.1701 107.5,53.5 Z"/></g><g><path style="opacity:.02" fill="#000" d="M 31.5,54.5 C 32.8333,55.1667 32.8333,55.1667 31.5,54.5 Z"/></g><g><path style="opacity:.016" fill="#000" d="M 106.5,54.5 C 106.833,54.5 107.167,54.5 107.5,54.5C 107.315,55.1701 106.981,55.1701 106.5,54.5 Z"/></g><g><path style="opacity:.009" fill="#000" d="M 145.5,54.5 C 146.491,61.3134 146.825,68.3134 146.5,75.5C 146.167,75.5 145.833,75.5 145.5,75.5C 145.823,68.9779 145.49,62.6446 144.5,56.5C 144.5,56.1667 144.5,55.8333 144.5,55.5C 145.167,55.5 145.5,55.1667 145.5,54.5 Z"/></g><g><path style="opacity:.035" fill="#000" d="M 189.5,54.5 C 190.833,55.1667 190.833,55.1667 189.5,54.5 Z"/></g><g><path style="opacity:.01" fill="#000" d="M 29.5,56.5 C 29.5,56.1667 29.5,55.8333 29.5,55.5C 30.1667,55.5 30.8333,55.5 31.5,55.5C 31.1583,56.3382 30.4916,56.6716 29.5,56.5 Z"/></g><g><path style="opacity:.01" fill="#000" d="M 104.5,56.5 C 104.5,56.1667 104.5,55.8333 104.5,55.5C 105.167,55.5 105.833,55.5 106.5,55.5C 106.158,56.3382 105.492,56.6716 104.5,56.5 Z"/></g><g><path style="opacity:.012" fill="#000" d="M 27.5,57.5 C 27.5,57.1667 27.5,56.8333 27.5,56.5C 28.1667,56.5 28.8333,56.5 29.5,56.5C 29.1583,57.3382 28.4916,57.6716 27.5,57.5 Z"/></g><g><path style="opacity:.004" fill="#000" d="M 72.5,56.5 C 72.8333,56.5 73.1667,56.5 73.5,56.5C 73.3147,57.1701 72.9813,57.1701 72.5,56.5 Z"/></g><g><path style="opacity:.014" fill="#000" d="M 102.5,56.5 C 103.167,56.5 103.833,56.5 104.5,56.5C 103.833,57.8333 103.167,57.8333 102.5,56.5 Z"/></g><g><path style="opacity:.012" fill="#000" d="M 142.5,57.5 C 142.5,57.1667 142.5,56.8333 142.5,56.5C 143.167,56.5 143.833,56.5 144.5,56.5C 144.158,57.3382 143.492,57.6716 142.5,57.5 Z"/></g><g><path style="opacity:.013" fill="#000" d="M 24.5,58.5 C 24.5,58.1667 24.5,57.8333 24.5,57.5C 25.5,57.5 26.5,57.5 27.5,57.5C 26.791,58.404 25.791,58.7373 24.5,58.5 Z"/></g><g><path style="opacity:.011" fill="#000" d="M 38.5,58.5 C 40.6282,57.3709 42.9615,57.2042 45.5,58C 43.1902,58.4966 40.8568,58.6633 38.5,58.5 Z"/></g><g><path style="opacity:.011" fill="#000" d="M 72.5,57.5 C 70.3718,58.6291 68.0385,58.7958 65.5,58C 67.8098,57.5034 70.1432,57.3367 72.5,57.5 Z"/></g><g><path style="opacity:.012" fill="#000" d="M 139.5,58.5 C 139.5,58.1667 139.5,57.8333 139.5,57.5C 140.5,57.5 141.5,57.5 142.5,57.5C 141.791,58.404 140.791,58.7373 139.5,58.5 Z"/></g><g><path style="opacity:.011" fill="#000" d="M 199.5,57.5 C 199.5,57.8333 199.5,58.1667 199.5,58.5C 190.167,58.1667 190.167,57.8333 199.5,57.5 Z"/></g><g><path style="opacity:.012" fill="#000" d="M 24.5,58.5 C 21.6965,59.6378 18.6965,59.8045 15.5,59C 18.4816,58.502 21.4816,58.3354 24.5,58.5 Z"/></g><g><path style="opacity:.013" fill="#000" d="M 139.5,58.5 C 137.034,59.6341 134.367,59.8007 131.5,59C 134.146,58.5026 136.813,58.3359 139.5,58.5 Z"/></g><g><path style="opacity:.01" fill="#000" d="M 174.5,59.5 C 177.304,58.3622 180.304,58.1955 183.5,59C 180.518,59.498 177.518,59.6646 174.5,59.5 Z"/></g><g><path style="opacity:.004" fill="#000" d="M 156.5,74.5 C 156.833,74.5 157.167,74.5 157.5,74.5C 157.5,74.8333 157.5,75.1667 157.5,75.5C 157.167,75.1667 156.833,74.8333 156.5,74.5 Z"/></g></svg>