<svg xmlns="http://www.w3.org/2000/svg" viewBox="0 0 429.68 429.68"><defs><style>.cls-1{fill:#ed6d54;}.cls-2{fill:#fff;}</style></defs><title>desmos-logo</title><g id="Layer_2" data-name="Layer 2"><g id="Livello_1" data-name="Livello 1"><circle class="cls-1" cx="214.84" cy="214.84" r="214.84"/><path class="cls-2" d="M317.67,131.31C302,113,282.49,96.92,263.15,84.49c-48.65-31.25-99.22-42.86-123-28.22-11.5,7.08-20.18,20.85-26.26,42-17.8,20-26.65,62.34-27.63,131.23C85.29,300.84,96,345.84,118,363.18c10.17,8,25.25,12,43.22,12,20.56,0,44.9-5.2,70-15.5,1.86-.76,3.67-1.55,5.47-2.33a224.92,224.92,0,0,0,32.09-10.5c69.45-28.56,98.56-73.85,102.64-106.71C376.39,199.82,350.64,160.89,317.67,131.31ZM157.84,347.43a47.25,47.25,0,0,1-9.82-11c8.52,3.17,18.69,4.75,30,4.75,20.56,0,44.91-5.2,70-15.5,35.22-14.49,60.06-33.28,76.53-52.57-11.19,27.39-38.69,58.58-89.36,80.74C202.27,361.88,173.63,359.85,157.84,347.43Zm88.75-25.16C205.84,339,167.32,342.07,144.72,331c-12.13-22.52-17.9-60.77-17.14-114.31,1-67.41,9.79-109.84,26.9-129,24.86,1.26,57.66,13.21,89.83,33.88,45.71,29.37,92.26,79.18,85.82,130.92a73.79,73.79,0,0,1-2,10.21c-15.74,21.59-41.91,43.3-81.5,59.58ZM125.31,93.37c6.26-3.86,14.6-5.69,24.32-5.76-16.56,20.81-24.83,62.56-25.78,129-.71,50.2,4.38,87.3,15.11,111-.61-.43-1.26-.81-1.83-1.26-21.08-16.59-31.26-60.58-30.27-130.75.59-41,4.08-72.73,10.57-95.63a37.66,37.66,0,0,1,7.88-6.58Zm121,25c-31.25-20.07-63.25-32-88.47-34.1a36.14,36.14,0,0,1,5-3.78c6.39-3.94,14.89-5.83,24.88-5.83,25.28,0,60.07,12.15,94.12,34A265.23,265.23,0,0,1,315.07,134c21.48,25.13,35.63,54.52,31.9,84.58-1.37,10.93-5.62,23.3-13.37,36,.07-.53.16-1.06.23-1.57,6.65-53.45-40.85-104.54-87.51-134.52Zm-104.18-59c6.4-3.94,14.9-5.83,24.88-5.83,25.29,0,60.08,12.15,94.12,34A264.72,264.72,0,0,1,293.41,112q-4.76-3.36-9.54-6.43c-48.65-31.26-99.22-42.86-123-28.23A41.23,41.23,0,0,0,152.8,84c-11.87-.38-22,1.62-29.44,6.22a39.9,39.9,0,0,0-3.71,2.61c5.62-16.5,13.1-27.58,22.49-33.37ZM120.3,360.26C99.22,343.67,89,299.67,90,229.51c.85-59.8,7.9-99.94,21.43-121.62-5.08,22.21-7.8,51.2-8.32,87.63-1,71.39,9.64,116.39,31.68,133.73a44.7,44.7,0,0,0,7.28,4.57c3.88,7,8.34,12.52,13.44,16.54,10.17,8,25.25,12,43.22,12a142,142,0,0,0,18-1.25C176,375.1,139.07,375,120.3,360.26ZM367.68,239.65c-4,31.82-32.41,75.78-100.37,103.72-3.49,1.44-6.95,2.74-10.4,4,44.51-24.56,67.18-56.42,74.6-83C342.93,248.44,349,232.65,350.66,219c2.91-23.4-4.55-46.35-17.79-67.27C356,177.58,371.58,208.26,367.68,239.65Z"/></g></g></svg>