<svg width="106" height="31" viewBox="0 0 106 31" fill="none" xmlns="http://www.w3.org/2000/svg">
<path fill-rule="evenodd" clip-rule="evenodd" d="M16.5556 3.20359C18.3456 4.35359 20.1456 5.84359 21.5956 7.54359C24.6556 10.3036 27.0556 13.9536 26.5856 17.7436C26.1956 20.8336 23.4956 25.0836 17.0356 27.7536C16.0256 28.1736 15.0156 28.5036 14.0456 28.7436L14.0446 28.744C13.8949 28.8139 13.7453 28.8837 13.5956 28.9436C11.3056 29.8836 9.05557 30.3836 7.09557 30.3836C5.36557 30.3836 3.94556 29.9836 2.99556 29.2336C0.915565 27.5936 -0.0844259 23.3936 0.00557415 16.7436C0.0955741 10.3836 0.915572 6.44359 2.56557 4.54359C3.13557 2.56359 3.95555 1.27359 5.04555 0.603587C7.29555 -0.786413 12.0256 0.283593 16.5556 3.20359ZM6.45556 27.0036C6.60556 27.1736 6.75555 27.3136 6.91555 27.4436C8.31555 28.5436 10.8556 28.7236 13.7956 28.0136C17.6056 26.3336 19.9656 24.1036 21.2356 21.9736C19.7456 23.3936 17.7455 24.7336 15.1355 25.8136C12.8455 26.7536 10.5955 27.2536 8.63555 27.2536C7.83555 27.2536 7.10556 27.1636 6.45556 27.0036ZM5.73555 25.9336C7.75555 26.8936 11.1956 26.6036 14.8456 25.0936C18.4156 23.6136 20.7755 21.6536 22.1955 19.7136C22.2755 19.4036 22.3356 19.1136 22.3656 18.8336C22.9456 14.1636 18.7356 9.6436 14.5956 6.9736C11.7156 5.1136 8.79555 4.02359 6.57555 3.88359C5.08555 5.63359 4.31555 9.47359 4.22554 15.5636C4.15554 20.4236 4.66555 23.8936 5.73555 25.9336ZM23.1955 18.0536C23.5955 17.2336 23.8255 16.4336 23.9155 15.7036C24.2455 13.0136 22.9855 10.3636 21.0756 8.1136C20.1156 7.2436 19.0856 6.46358 18.0556 5.80358C15.0456 3.86358 11.8656 2.70359 9.53557 2.70359C8.63557 2.70359 7.90556 2.87359 7.36556 3.20359L7.34557 3.21359C9.60557 3.52359 12.3456 4.60359 15.0156 6.32359C19.0956 8.95359 23.2455 13.3536 23.1955 18.0536ZM5.60555 3.8936C4.93555 3.9436 4.36555 4.10359 3.91555 4.38359C3.68555 4.52359 3.46555 4.70358 3.26555 4.91358C2.68555 6.99358 2.37555 9.8836 2.32555 13.6136C2.24555 19.4136 2.98556 23.2436 4.52556 25.0136C3.75556 22.8036 3.39556 19.6436 3.45556 15.5536C3.53556 9.74358 4.22555 5.9536 5.60555 3.8936ZM6.23555 3.12359C6.46555 2.89359 6.69556 2.70359 6.95556 2.54359C8.76556 1.41359 12.2156 1.90359 15.8756 3.68359C12.9456 1.84359 9.88555 0.753596 7.63555 0.753596C6.73555 0.753596 6.00557 0.923591 5.46557 1.26359C4.76557 1.69359 4.17557 2.4736 3.71557 3.6136C4.38557 3.2636 5.24555 3.10359 6.23555 3.12359ZM4.54555 26.0936C2.46555 24.4536 1.45556 20.2536 1.55556 13.6036C1.58556 11.0636 1.74556 8.90359 2.02556 7.10359C1.25556 9.22359 0.845573 12.4136 0.785573 16.7436C0.695573 23.1436 1.59554 27.1336 3.47554 28.6236C4.86554 29.7136 7.39555 29.9036 10.3256 29.1936C8.69555 29.1536 7.35555 28.7636 6.44555 28.0436C5.96555 27.6636 5.54557 27.1536 5.18557 26.5136C4.95557 26.3836 4.74555 26.2436 4.54555 26.0936ZM24.6756 15.8036C24.5156 17.0836 23.9656 18.5636 22.9056 20.0436C22.3456 22.0536 20.8556 24.3836 18.1256 26.4136C23.2656 23.8736 25.4756 20.2936 25.8056 17.6536C26.0756 15.5236 25.3356 13.4136 24.0556 11.5036C24.6056 12.8836 24.8556 14.3336 24.6756 15.8036ZM65.5256 12.0636C65.7356 12.2036 65.8756 12.3036 65.9556 12.3836L66.9856 10.5236C66.4656 10.1736 65.8456 9.86359 65.1356 9.60359C64.4256 9.34359 63.6456 9.21359 62.8056 9.21359C62.2056 9.21359 61.6356 9.2936 61.1056 9.4536C60.5756 9.6236 60.1156 9.85359 59.7156 10.1636C59.3256 10.4736 59.0156 10.8536 58.7856 11.3236C58.5556 11.7936 58.4456 12.3236 58.4456 12.9236C58.4456 13.3736 58.5156 13.7636 58.6556 14.0936C58.7956 14.4136 59.0056 14.7036 59.2856 14.9536C59.5656 15.2036 59.9156 15.4236 60.3356 15.6036C60.7556 15.7936 61.2556 15.9536 61.8256 16.1136C62.2956 16.2436 62.7256 16.3636 63.1056 16.4736C63.4856 16.5936 63.8156 16.7136 64.0856 16.8436C64.3556 16.9836 64.5556 17.1336 64.7056 17.3136C64.8556 17.4936 64.9256 17.7036 64.9256 17.9636C64.9256 18.7736 64.2856 19.1736 63.0056 19.1736C62.5456 19.1736 62.0956 19.1136 61.6556 19.0036C61.2156 18.8936 60.8156 18.7536 60.4556 18.5936C60.0956 18.4336 59.7856 18.2736 59.5256 18.1136C59.2556 17.9536 59.0756 17.8236 58.9756 17.7236L57.9456 19.7036C58.6456 20.1936 59.4256 20.5636 60.3056 20.8336C61.1756 21.1036 62.0656 21.2336 62.9656 21.2336C63.5556 21.2336 64.1156 21.1736 64.6456 21.0436C65.1856 20.9136 65.6556 20.7136 66.0656 20.4336C66.4756 20.1536 66.8056 19.7936 67.0456 19.3436C67.2856 18.8936 67.4056 18.3536 67.4056 17.7236C67.4056 17.1836 67.3156 16.7336 67.1356 16.3536C66.9556 15.9736 66.6956 15.6636 66.3656 15.3936C66.0356 15.1236 65.6356 14.9036 65.1556 14.7236C64.6756 14.5436 64.1456 14.3836 63.5656 14.2236C63.4287 14.1871 63.2964 14.1524 63.1691 14.1191L63.1685 14.1189L63.1682 14.1188L63.1681 14.1188C62.8772 14.0426 62.6119 13.9731 62.3756 13.9036C62.0356 13.8036 61.7556 13.6936 61.5256 13.5736C61.3056 13.4536 61.1356 13.3136 61.0156 13.1536C60.8956 12.9936 60.8356 12.7836 60.8356 12.5436C60.8356 12.1236 60.9956 11.7936 61.3056 11.5636C61.6156 11.3336 62.0956 11.2136 62.7356 11.2136C63.0956 11.2136 63.4456 11.2536 63.7956 11.3436C64.1456 11.4336 64.4656 11.5436 64.7656 11.6736C65.0656 11.8036 65.3156 11.9336 65.5256 12.0636ZM43.8656 15.1836C43.8656 14.6236 43.7856 14.0936 43.6256 13.6236C43.4656 13.1436 43.2356 12.7336 42.9356 12.3936C42.6356 12.0536 42.2556 11.7836 41.8156 11.5936C41.3756 11.4036 40.8656 11.3136 40.3056 11.3136H38.2856V19.0936H40.3056C40.8756 19.0936 41.3856 18.9936 41.8356 18.7936C42.2756 18.5936 42.6456 18.3236 42.9456 17.9736C43.2456 17.6236 43.4656 17.2136 43.6256 16.7336C43.7856 16.2536 43.8656 15.7336 43.8656 15.1836ZM35.9656 21.1036V9.29359H40.3156C41.2956 9.29359 42.1456 9.4436 42.8856 9.7636C43.6256 10.0736 44.2356 10.4936 44.7356 11.0236C45.2256 11.5536 45.5956 12.1836 45.8456 12.8936C46.0956 13.6036 46.2156 14.3736 46.2156 15.1836C46.2156 16.0836 46.0756 16.8936 45.8056 17.6236C45.5256 18.3536 45.1356 18.9736 44.6156 19.4836C44.0956 19.9936 43.4756 20.3936 42.7556 20.6836C42.0256 20.9636 41.2156 21.1036 40.3156 21.1036H35.9656ZM56.2256 19.0836V21.1036H47.9156V9.29359H56.0756V11.3036H50.2456V14.1436H55.2856V16.0136H50.2456V19.0836H56.2256ZM79.1856 21.1036V13.2836L76.1056 19.1036H74.8356L71.7556 13.2836V21.1036H69.4256V9.29359H71.9256L75.4656 16.0136L79.0356 9.29359H81.5156V21.1036H79.1856ZM85.9656 16.6736C85.8056 16.1936 85.7256 15.7036 85.7256 15.1936C85.7256 14.7036 85.7956 14.2236 85.9556 13.7536C86.1056 13.2836 86.3256 12.8636 86.6156 12.4936C86.9156 12.1236 87.2756 11.8236 87.7156 11.5936C88.1556 11.3636 88.6556 11.2536 89.2156 11.2536C89.7556 11.2536 90.2456 11.3536 90.6756 11.5736C91.1156 11.7836 91.4756 12.0736 91.7756 12.4436C92.0756 12.8036 92.3056 13.2236 92.4656 13.7036C92.6256 14.1836 92.7056 14.6736 92.7056 15.1836C92.7056 15.6736 92.6256 16.1536 92.4756 16.6236C92.3256 17.0936 92.1056 17.5136 91.8056 17.8936C91.5056 18.2736 91.1356 18.5736 90.7056 18.8036C90.2756 19.0336 89.7756 19.1436 89.2156 19.1436C88.6656 19.1436 88.1756 19.0336 87.7456 18.8136C87.3056 18.5936 86.9456 18.3036 86.6456 17.9336C86.3456 17.5736 86.1256 17.1536 85.9656 16.6736ZM86.8156 20.6736C87.5256 21.0136 88.3156 21.1836 89.1956 21.1836C90.0356 21.1836 90.8156 21.0136 91.5456 20.7036C92.2556 20.3736 92.8756 19.9336 93.3956 19.3836C93.9056 18.8336 94.3156 18.2036 94.6056 17.4836C94.8956 16.7736 95.0456 16.0236 95.0456 15.2336C95.0456 14.4836 94.9056 13.7536 94.6256 13.0336C94.3456 12.3136 93.9556 11.6736 93.4456 11.1036C92.9356 10.5436 92.3256 10.0836 91.6156 9.7336C90.8956 9.3836 90.1056 9.21359 89.2456 9.21359C88.4056 9.21359 87.6256 9.3736 86.9056 9.7036C86.1856 10.0336 85.5656 10.4736 85.0456 11.0236C84.5256 11.5736 84.1156 12.2136 83.8156 12.9336C83.5156 13.6536 83.3656 14.4036 83.3656 15.1936C83.3656 15.9436 83.5056 16.6836 83.7856 17.4036C84.0656 18.1236 84.4656 18.7636 84.9756 19.3236C85.4856 19.8836 86.1056 20.3336 86.8156 20.6736ZM104.036 12.3836C103.956 12.3036 103.816 12.2036 103.606 12.0636C103.396 11.9336 103.146 11.8036 102.846 11.6736C102.546 11.5436 102.226 11.4336 101.876 11.3436C101.526 11.2536 101.176 11.2136 100.816 11.2136C100.176 11.2136 99.6956 11.3336 99.3856 11.5636C99.0756 11.7936 98.9156 12.1236 98.9156 12.5436C98.9156 12.7836 98.9756 12.9936 99.0956 13.1536C99.2156 13.3136 99.3856 13.4536 99.6056 13.5736C99.8356 13.6936 100.116 13.8036 100.456 13.9036C100.692 13.9731 100.957 14.0426 101.248 14.1188L101.248 14.1188C101.376 14.1523 101.508 14.187 101.646 14.2236C102.226 14.3836 102.756 14.5436 103.236 14.7236C103.716 14.9036 104.116 15.1236 104.446 15.3936C104.776 15.6636 105.036 15.9736 105.216 16.3536C105.396 16.7336 105.486 17.1836 105.486 17.7236C105.486 18.3536 105.366 18.8936 105.126 19.3436C104.886 19.7936 104.556 20.1536 104.146 20.4336C103.736 20.7136 103.266 20.9136 102.726 21.0436C102.196 21.1736 101.636 21.2336 101.046 21.2336C100.146 21.2336 99.2556 21.1036 98.3856 20.8336C97.5056 20.5636 96.7256 20.1936 96.0256 19.7036L97.0556 17.7236C97.1556 17.8236 97.3356 17.9536 97.6056 18.1136C97.8656 18.2736 98.1756 18.4336 98.5356 18.5936C98.8956 18.7536 99.2956 18.8936 99.7356 19.0036C100.176 19.1136 100.626 19.1736 101.086 19.1736C102.366 19.1736 103.006 18.7736 103.006 17.9636C103.006 17.7036 102.936 17.4936 102.786 17.3136C102.636 17.1336 102.436 16.9836 102.166 16.8436C101.896 16.7136 101.566 16.5936 101.186 16.4736C100.806 16.3636 100.376 16.2436 99.9056 16.1136C99.3356 15.9536 98.8356 15.7936 98.4156 15.6036C97.9956 15.4236 97.6456 15.2036 97.3656 14.9536C97.0856 14.7036 96.8756 14.4136 96.7356 14.0936C96.5956 13.7636 96.5256 13.3736 96.5256 12.9236C96.5256 12.3236 96.6356 11.7936 96.8656 11.3236C97.0956 10.8536 97.4056 10.4736 97.7956 10.1636C98.1956 9.85359 98.6556 9.6236 99.1856 9.4536C99.7156 9.2936 100.286 9.21359 100.886 9.21359C101.726 9.21359 102.506 9.34359 103.216 9.60359C103.926 9.86359 104.546 10.1736 105.066 10.5236L104.036 12.3836Z" fill="#ED6C53"/>
<path d="M0.045541 15.1736C0.025541 15.6736 0.015563 16.1936 0.00556302 16.7336C-0.00443698 17.7936 0.00554105 18.7936 0.045541 19.7236V15.1736Z" fill="#ED6C53"/>
<path d="M26.5956 15.9436V17.6236C26.6556 17.0536 26.6556 16.4936 26.5956 15.9436Z" fill="#ED6C53"/>
<path d="M63.7155 21.1936H62.1855C62.4455 21.2136 62.7155 21.2336 62.9855 21.2336C63.2255 21.2336 63.4655 21.2236 63.7155 21.1936Z" fill="#ED6C53"/>
<path d="M101.786 21.1936H100.256C100.516 21.2136 100.786 21.2336 101.056 21.2336C101.306 21.2336 101.546 21.2236 101.786 21.1936Z" fill="#ED6C53"/>
</svg>
