<svg id="Layer_1" data-name="Layer 1" xmlns="http://www.w3.org/2000/svg" viewBox="0 0 196.39 41.01"><defs><style>.cls-1{fill:#ed6c53;}</style></defs><title>Artboard 2</title><path class="cls-1" d="M63.55,20.41A10.76,10.76,0,0,0,63,17a7.47,7.47,0,0,0-1.49-2.65,6.64,6.64,0,0,0-2.37-1.72,8.41,8.41,0,0,0-3.25-.6H51.53V28.83h4.36a8,8,0,0,0,3.28-.64,6.91,6.91,0,0,0,2.4-1.78A7.75,7.75,0,0,0,63,23.74a10.43,10.43,0,0,0,.51-3.33m-17,12.76V7.72h9.38a14.15,14.15,0,0,1,5.53,1,11.42,11.42,0,0,1,4,2.72,11.19,11.19,0,0,1,2.4,4,15.07,15.07,0,0,1,.8,4.93,14.93,14.93,0,0,1-.91,5.3,11.19,11.19,0,0,1-2.56,4,11.47,11.47,0,0,1-4,2.58,14.49,14.49,0,0,1-5.25.92Z"/><polygon class="cls-1" points="90.19 28.83 90.19 33.17 72.28 33.17 72.28 7.72 89.87 7.72 89.87 12.06 77.3 12.06 77.3 18.18 88.16 18.18 88.16 22.2 77.3 22.2 77.3 28.83 90.19 28.83"/><path class="cls-1" d="M111.17,14.39a6.22,6.22,0,0,0-.93-.69,12.67,12.67,0,0,0-1.64-.84,15,15,0,0,0-2.08-.7,9.32,9.32,0,0,0-2.29-.28,5.25,5.25,0,0,0-3.09.75,2.47,2.47,0,0,0-1,2.11,2.16,2.16,0,0,0,.38,1.31,3.4,3.4,0,0,0,1.11.92,9.25,9.25,0,0,0,1.83.71c.74.22,1.6.45,2.57.68,1.26.34,2.4.7,3.43,1.08a9.67,9.67,0,0,1,2.62,1.43,6.12,6.12,0,0,1,1.65,2.06,6.73,6.73,0,0,1,.58,3,7.32,7.32,0,0,1-.78,3.5,6.5,6.5,0,0,1-2.11,2.34,9,9,0,0,1-3,1.31,15.62,15.62,0,0,1-3.61.42A19.25,19.25,0,0,1,99,32.63a17.55,17.55,0,0,1-5.09-2.43l2.22-4.27a5.75,5.75,0,0,0,1.18.84,16.22,16.22,0,0,0,2,1,15.7,15.7,0,0,0,2.58.88,11.89,11.89,0,0,0,2.91.36Q109,29,109,26.39a2.16,2.16,0,0,0-.47-1.4,4.28,4.28,0,0,0-1.35-1,14.36,14.36,0,0,0-2.1-.79l-2.76-.79a21.4,21.4,0,0,1-3.22-1.09,8.19,8.19,0,0,1-2.27-1.4,5.12,5.12,0,0,1-1.36-1.86A6.24,6.24,0,0,1,95,15.53a7.86,7.86,0,0,1,.73-3.44,7,7,0,0,1,2-2.51,9.44,9.44,0,0,1,3-1.52,12.67,12.67,0,0,1,3.67-.52,14.67,14.67,0,0,1,5,.84,18.7,18.7,0,0,1,4,2Z"/><polygon class="cls-1" points="139.68 33.17 139.68 16.32 133.04 28.87 130.31 28.87 123.66 16.32 123.66 33.17 118.65 33.17 118.65 7.72 124.02 7.72 131.66 22.2 139.36 7.72 144.7 7.72 144.7 33.17 139.68 33.17"/><path class="cls-1" d="M153.77,20.44a10.14,10.14,0,0,0,.51,3.19,8.12,8.12,0,0,0,1.47,2.73,7.13,7.13,0,0,0,2.36,1.9,6.88,6.88,0,0,0,3.18.71,6.75,6.75,0,0,0,3.21-.73,7.33,7.33,0,0,0,2.36-2,8.67,8.67,0,0,0,1.46-2.75,10.2,10.2,0,0,0,.49-3.1,9.93,9.93,0,0,0-.53-3.19,8.8,8.8,0,0,0-1.49-2.72,7.1,7.1,0,0,0-2.36-1.81,6.83,6.83,0,0,0-3.14-.7,7,7,0,0,0-3.24.73,7.23,7.23,0,0,0-2.36,2,8.55,8.55,0,0,0-1.43,2.72,9.9,9.9,0,0,0-.49,3.1m7.48,12.91a11.86,11.86,0,0,1-5.14-1.1,12.34,12.34,0,0,1-4-2.9,13.23,13.23,0,0,1-2.56-4.14,13,13,0,0,1-.91-4.77,12.74,12.74,0,0,1,1-4.87,13.54,13.54,0,0,1,2.66-4.13,12.58,12.58,0,0,1,4-2.84,12,12,0,0,1,5-1.06,11.41,11.41,0,0,1,5.1,1.13,12.74,12.74,0,0,1,4,2.95,13.51,13.51,0,0,1,2.6,4.11,13.26,13.26,0,0,1,.91,4.74,12.6,12.6,0,0,1-1,4.85,13.33,13.33,0,0,1-2.61,4.09,12.5,12.5,0,0,1-4,2.83,12.21,12.21,0,0,1-5.05,1.06"/><path class="cls-1" d="M193.24,14.39a6.14,6.14,0,0,0-.92-.69,12.67,12.67,0,0,0-1.64-.84,15.54,15.54,0,0,0-2.09-.7,9.32,9.32,0,0,0-2.29-.28,5.2,5.2,0,0,0-3.08.75,2.47,2.47,0,0,0-1,2.11,2.16,2.16,0,0,0,.38,1.31,3.4,3.4,0,0,0,1.11.92,9.25,9.25,0,0,0,1.83.71c.74.22,1.6.45,2.57.68,1.25.34,2.4.7,3.43,1.08a9.35,9.35,0,0,1,2.61,1.43,6,6,0,0,1,1.66,2.06,6.9,6.9,0,0,1,.58,3,7.32,7.32,0,0,1-.78,3.5,6.59,6.59,0,0,1-2.11,2.34,8.94,8.94,0,0,1-3,1.31,15.77,15.77,0,0,1-3.62.42,19.25,19.25,0,0,1-5.74-.87A17.67,17.67,0,0,1,176,30.16l2.21-4.27a5.82,5.82,0,0,0,1.19.84,14.93,14.93,0,0,0,2,1,15.25,15.25,0,0,0,2.6.94,11.89,11.89,0,0,0,2.91.36q4.14,0,4.14-2.62a2.16,2.16,0,0,0-.47-1.4,4.28,4.28,0,0,0-1.35-1,14.48,14.48,0,0,0-2.11-.79l-2.76-.79a21.28,21.28,0,0,1-3.21-1.09,8.19,8.19,0,0,1-2.27-1.4,5.12,5.12,0,0,1-1.36-1.86,6.24,6.24,0,0,1-.46-2.53,7.86,7.86,0,0,1,.73-3.44,7,7,0,0,1,2-2.51,9.44,9.44,0,0,1,3-1.52,12.67,12.67,0,0,1,3.67-.52,14.43,14.43,0,0,1,5,.84,18.7,18.7,0,0,1,4,2Z"/><path class="cls-1" d="M29.13,10.18a31.93,31.93,0,0,0-6.79-5.86C16.23.38,9.84-1.06,6.81.81c-1.46.91-2.57,2.65-3.35,5.32C1.22,8.67.13,14,0,22.59c-.13,9,1.23,14.64,4,16.85A8.77,8.77,0,0,0,9.54,41a23.6,23.6,0,0,0,8.76-1.94l.62-.27a28.42,28.42,0,0,0,4-1.33c8.71-3.6,12.36-9.33,12.88-13.5.63-5.11-2.59-10-6.73-13.77M9.33,37a4.93,4.93,0,0,1-.62-.59,12.12,12.12,0,0,0,2.94.34,23.72,23.72,0,0,0,8.77-2,26.27,26.27,0,0,0,8.22-5.11c-1.71,2.87-4.89,5.88-10,8.14-4,1-7.4.72-9.28-.76M20,33.86c-4.92,2-9.56,2.43-12.29,1.13-1.44-2.75-2.13-7.43-2-14C5.84,12.77,6.88,7.59,8.9,5.23c3,.2,6.94,1.67,10.82,4.17C25.3,13,31,19.1,30.21,25.4A9.46,9.46,0,0,1,30,26.58a22.8,22.8,0,0,1-9.93,7.26M32.22,21.2a10.29,10.29,0,0,1-1,3.17C31.3,18,25.7,12.1,20.22,8.54A26.92,26.92,0,0,0,9.87,4.34h0a5.52,5.52,0,0,1,3-.67c3.14,0,7.43,1.56,11.49,4.18A32.43,32.43,0,0,1,28.41,11c2.6,3.06,4.3,6.62,3.85,10.26M5.26,5.94a5.23,5.23,0,0,1,2.28-.66C5.68,8.06,4.75,13.18,4.63,21q-.11,8.28,1.44,12.77C4,31.39,3,26.23,3.07,18.4A48.26,48.26,0,0,1,4.4,6.67a4.74,4.74,0,0,1,.88-.73m4.1-2.48a5.07,5.07,0,0,0-1,.78A7,7,0,0,0,5,4.9,6.36,6.36,0,0,1,7.36,1.67,5.45,5.45,0,0,1,10.29,1c3,0,7.17,1.47,11.11,4-4.92-2.4-9.57-3.05-12-1.53M2.09,18.37c-.13,9,1.23,14.64,4,16.86a8,8,0,0,0,.87.56,7,7,0,0,0,1.7,2.06,8.69,8.69,0,0,0,5.23,1.55c-4,1-7.36.7-9.24-.78-2.53-2-3.75-7.39-3.63-16,.08-5.84.63-10.15,1.67-13a64.43,64.43,0,0,0-.63,8.77m28.82,8.67a12.85,12.85,0,0,0,2.39-5.71,11.69,11.69,0,0,0-.84-5.81,12.33,12.33,0,0,1,2.37,8.3c-.44,3.57-3.42,8.4-10.37,11.81a16.86,16.86,0,0,0,6.45-8.59"/></svg>