<svg width="28" height="28" viewBox="0 0 28 28" fill="none" xmlns="http://www.w3.org/2000/svg">
<circle cx="14" cy="14" r="14" fill="white"/>
<path d="M22.5356 8.31753C22.3542 7.6307 21.771 6.94388 20.7213 6.1793C19.879 5.57023 18.9848 5.22034 18.2721 5.22034C18.1296 5.22034 18 5.2333 17.8704 5.25921C17.5464 5.32401 17.2613 5.55727 17.0799 5.90716C16.8596 6.32185 16.8077 6.87908 16.9503 7.21602C17.0021 7.31969 17.0669 7.44928 17.1447 7.56591C16.4578 7.9806 16.0691 8.09723 16.0172 8.11019C17.8056 8.7063 19.2959 9.95036 20.2289 11.5702L20.2419 11.4147C20.2807 10.9871 20.4103 10.4946 20.5918 9.98923C20.7732 10.0411 20.9546 10.067 21.136 10.067C21.6155 10.067 22.0302 9.87261 22.2894 9.52271C22.5486 9.17282 22.6522 8.7063 22.5356 8.31753Z" fill="#5E12A0"/>
<path d="M20.6696 9.61351C21.8488 9.93748 22.3283 9.03036 22.1728 8.42129C22.0043 7.81222 21.4601 7.19018 20.5011 6.4904C19.5421 5.79062 18.5702 5.50552 17.9482 5.63511C17.3262 5.7647 17.1447 6.7107 17.3002 7.07355C17.365 7.2161 17.5076 7.42345 17.702 7.65671C17.4558 7.82517 17.2225 7.95476 17.0281 8.07139C18.2203 8.60271 19.257 9.43208 20.0346 10.4688C20.1253 10.1189 20.2549 9.80789 20.3715 9.53576C20.4622 9.54872 20.5659 9.57463 20.6696 9.61351Z" fill="url(#paint0_radial)"/>
<path d="M13.9179 22.3133C17.9187 22.3133 21.162 19.07 21.162 15.0692C21.162 11.0684 17.9187 7.82513 13.9179 7.82513C9.91716 7.82513 6.67389 11.0684 6.67389 15.0692C6.67389 19.07 9.91716 22.3133 13.9179 22.3133Z" fill="url(#paint1_radial)"/>
<path opacity="0.6" d="M21.5766 7.82509C20.5918 6.78838 19.7624 6.51624 18.7645 6.29594C17.987 6.11451 18.1943 5.67391 19.1404 5.76462C18.6868 5.60911 18.2591 5.57023 17.9481 5.63503C17.3261 5.76462 17.1447 6.71062 17.3002 7.07347C17.365 7.21602 17.5075 7.42337 17.7019 7.65663C17.352 7.88989 17.054 8.05836 16.8077 8.18795C16.9244 8.23978 17.0669 8.30458 17.2354 8.39529C17.676 8.62855 18.1555 9.01732 18.1555 9.01732C17.4298 8.39529 17.5853 8.11019 18.5831 7.41041C18.8941 7.19011 19.4643 7.21602 19.9956 7.48816C20.527 7.7603 21.149 8.44712 21.149 8.44712L20.5529 9.58751C20.5918 9.60047 20.6306 9.61343 20.6695 9.62639C21.0453 9.73006 21.3434 9.70414 21.5766 9.61343C21.8488 9.44497 22.5615 8.87477 21.5766 7.82509Z" fill="#A98698"/>
<path d="M18.7517 6.9179C19.0109 7.02157 19.3478 7.203 19.7625 7.47514C20.2549 7.79911 20.6826 8.16196 20.9547 8.44706C20.5011 9.04317 20.2031 9.85959 20.0217 10.4298C20.1124 10.5594 20.216 10.689 20.3068 10.8186C20.3975 10.4946 20.553 10.0151 20.7603 9.53561C20.8122 9.54857 20.877 9.54857 20.9417 9.54857C21.0973 9.54857 21.2787 9.52265 21.4212 9.40602C21.5249 9.32827 21.6415 9.18572 21.6286 8.92654C21.6286 8.68032 21.4342 8.36931 21.0325 7.9935C20.7474 7.72136 20.3586 7.4233 19.9698 7.15116C18.8554 6.4125 18.0778 6.20516 17.7279 6.55505C17.4947 6.78831 17.5206 7.07341 17.5983 7.28075C17.1836 7.55289 16.8338 7.74728 16.6005 7.87686C16.756 7.9287 16.8986 7.9935 17.0541 8.05829C17.4687 7.83799 18.0649 7.46218 18.7517 6.9179ZM21.2009 8.77103C21.2398 8.83583 21.2528 8.90062 21.2528 8.9395C21.2528 9.05613 21.2139 9.09501 21.188 9.12093C21.1361 9.1598 21.0325 9.18572 20.9417 9.18572C21.0195 9.03021 21.1102 8.90062 21.2009 8.77103ZM18.0001 6.84015C18.0389 6.80127 18.1426 6.77535 18.3111 6.80127C18.1815 6.90494 18.0519 6.99566 17.9223 7.08637C17.9094 6.99566 17.9223 6.90494 18.0001 6.84015Z" fill="#5E12A0"/>
<path d="M13.918 7.3974C9.68043 7.3974 6.24631 10.8315 6.24631 15.0691C6.24631 19.3067 9.68043 22.7408 13.918 22.7408C18.1556 22.7408 21.5897 19.3067 21.5897 15.0691C21.5897 10.8315 18.1426 7.3974 13.918 7.3974ZM13.918 22.3132C9.91369 22.3132 6.67395 19.0734 6.67395 15.0691C6.67395 11.0648 9.91369 7.82505 13.918 7.82505C17.9223 7.82505 21.1621 11.0648 21.1621 15.0691C21.1621 19.0734 17.9094 22.3132 13.918 22.3132Z" fill="#5E12A0"/>
<path opacity="0.6" d="M13.9179 22.3132C17.9187 22.3132 21.162 19.0699 21.162 15.0691C21.162 11.0683 17.9187 7.82507 13.9179 7.82507C9.91713 7.82507 6.67386 11.0683 6.67386 15.0691C6.67386 19.0699 9.91713 22.3132 13.9179 22.3132Z" fill="url(#paint2_linear)"/>
<path opacity="0.6" d="M13.866 21.4319C9.91355 20.7969 7.23105 17.0777 7.879 13.1252C8.16409 11.3757 9.0453 9.88547 10.2894 8.80988C8.47511 9.85955 7.12738 11.6868 6.76453 13.9157C6.12954 17.8682 8.81204 21.5874 12.7516 22.2224C14.9546 22.5853 17.0799 21.8984 18.6479 20.5507C17.2613 21.3542 15.5766 21.704 13.866 21.4319Z" fill="#A98698"/>
<path opacity="0.6" d="M15.0714 7.92866C13.2442 7.6306 11.4688 8.04529 10.0174 8.96538C9.99146 8.99129 9.96554 9.01721 9.96554 9.01721C10.5228 8.68028 11.3392 8.38222 11.3392 8.38222C9.23984 9.60037 8.59189 10.987 8.59189 10.987C9.4083 9.40598 11.8057 8.29151 13.6848 8.21376C15.5638 8.136 16.7949 8.69324 18.2982 9.89842C19.8014 11.1166 20.7085 13.6047 20.6178 15.5744C20.5401 17.5442 19.5033 19.1382 19.5033 19.1382C20.2161 18.2181 20.6437 17.5442 20.9159 16.8574C20.9677 16.65 21.0195 16.4427 21.0455 16.2224C21.6934 12.2829 19.0239 8.56365 15.0714 7.92866Z" fill="url(#paint3_linear)"/>
<path d="M20.7991 15.0043C20.7991 18.8012 17.7149 21.8855 13.9179 21.8855C10.1209 21.8855 7.02374 18.8012 7.02374 15.0043H20.7991Z" fill="url(#paint4_linear)"/>
<g opacity="0.6">
<path opacity="0.6" d="M20.2549 15.0043C20.2549 18.7105 17.3262 21.7429 13.6458 21.8855C13.7365 21.8855 13.8272 21.8855 13.918 21.8855C17.7149 21.8855 20.7992 18.8012 20.7992 15.0043H20.2549Z" fill="url(#paint5_linear)"/>
</g>
<g opacity="0.7">
<path opacity="0.7" d="M7.99566 15.0043H7.02374C7.02374 18.8012 10.108 21.8855 13.905 21.8855C14.0734 21.8855 14.2289 21.8855 14.3844 21.8725C10.8207 21.6133 7.99566 18.6328 7.99566 15.0043Z" fill="url(#paint6_linear)"/>
</g>
<path d="M20.7861 15.0691C20.7861 14.2786 19.4125 13.8251 17.5853 13.6695C16.2635 13.5659 14.9287 13.6955 13.3995 14.162C12.0777 14.5508 10.8855 14.486 10.0172 14.3823C8.08635 14.162 7.02371 14.1361 7.02371 15.0691C7.02371 16.4168 9.77101 18.1015 13.892 17.5184C15.9784 17.2203 17.0539 16.6112 18.285 16.1965C19.6198 15.7559 20.7861 15.7689 20.7861 15.0691Z" fill="url(#paint7_linear)"/>
<path d="M16.1728 11.8034C16.8169 11.8034 17.3391 11.2813 17.3391 10.6371C17.3391 9.993 16.8169 9.47083 16.1728 9.47083C15.5287 9.47083 15.0065 9.993 15.0065 10.6371C15.0065 11.2813 15.5287 11.8034 16.1728 11.8034Z" fill="white"/>
<path d="M18.0777 12.6718C18.3497 12.6718 18.5702 12.4513 18.5702 12.1793C18.5702 11.9074 18.3497 11.6869 18.0777 11.6869C17.8058 11.6869 17.5853 11.9074 17.5853 12.1793C17.5853 12.4513 17.8058 12.6718 18.0777 12.6718Z" fill="white"/>
<g opacity="0.6">
<path opacity="0.6" d="M19.8402 9.70409C19.8272 9.70409 19.8143 9.70409 19.8143 9.70409C19.7365 9.69113 19.6847 9.61338 19.6976 9.52267C19.8143 8.92655 20.3067 8.35636 20.3326 8.33044C20.3845 8.26565 20.4881 8.26565 20.54 8.31748C20.6048 8.36932 20.6048 8.47299 20.5529 8.52483C20.54 8.53778 20.0864 9.0691 19.9827 9.58746C19.9698 9.66522 19.905 9.70409 19.8402 9.70409Z" fill="url(#paint8_linear)"/>
</g>
<path d="M18.2721 5.2203C18.9978 5.2203 19.892 5.5702 20.7214 6.17927C21.7711 6.94385 22.3542 7.61771 22.5356 8.3175C22.6393 8.71922 22.5486 9.17279 22.2894 9.50972C22.0173 9.85961 21.6156 10.054 21.1361 10.054C20.9676 10.054 20.7862 10.0281 20.5918 9.97624C20.4752 10.2743 20.3844 10.5724 20.3197 10.8575C21.1102 12.0626 21.5767 13.514 21.5767 15.0691C21.5767 19.3067 18.1425 22.7408 13.905 22.7408C9.66739 22.7408 6.24622 19.3067 6.24622 15.0691C6.24622 10.8315 9.68035 7.39741 13.9179 7.39741C14.851 7.39741 15.7451 7.56587 16.5745 7.87689C16.73 7.79914 16.9244 7.69546 17.1447 7.56587C17.067 7.44924 16.9892 7.33261 16.9503 7.21598C16.8078 6.86609 16.8596 6.32181 17.0799 5.90713C17.2613 5.57019 17.5335 5.33693 17.8704 5.25918C17.987 5.23326 18.1296 5.2203 18.2721 5.2203ZM18.2721 5C18.1166 5 17.9611 5.01296 17.8186 5.05184C17.4298 5.14255 17.0929 5.40173 16.8726 5.81642C16.6264 6.2959 16.5616 6.91793 16.73 7.31966C16.7559 7.37149 16.7819 7.43629 16.8207 7.50108C16.73 7.55292 16.6393 7.60475 16.5486 7.64363C15.6933 7.34557 14.8121 7.19006 13.905 7.19006C12.8423 7.19006 11.8056 7.39741 10.8337 7.81209C9.88769 8.21382 9.04536 8.78402 8.31965 9.50972C7.59395 10.2354 7.02376 11.0778 6.62203 12.0238C6.20734 12.9957 6 14.0324 6 15.095C6 16.1577 6.20734 17.1944 6.62203 18.1663C7.02376 19.1123 7.59395 19.9546 8.31965 20.6803C9.04536 21.406 9.88769 21.9762 10.8337 22.378C11.8056 22.7927 12.8423 23 13.905 23C14.9676 23 16.0043 22.7927 16.9762 22.378C17.9222 21.9762 18.7646 21.406 19.4903 20.6803C20.216 19.9546 20.7862 19.1123 21.1879 18.1663C21.6026 17.1944 21.8099 16.1577 21.8099 15.095C21.8099 13.5788 21.3823 12.1145 20.5659 10.8445C20.6048 10.6501 20.6695 10.4557 20.7343 10.2613C20.8639 10.2873 21.0065 10.3002 21.1361 10.3002C21.6803 10.3002 22.1598 10.0799 22.4708 9.66523C22.7689 9.27646 22.8855 8.73218 22.7559 8.27862C22.5486 7.527 21.9525 6.81425 20.851 6.02376C19.9827 5.36285 19.0367 5 18.2721 5Z" fill="white"/>
<path opacity="0.2" d="M13.4391 20.4731C13.6395 20.4731 13.802 20.3106 13.802 20.1102C13.802 19.9098 13.6395 19.7474 13.4391 19.7474C13.2387 19.7474 13.0763 19.9098 13.0763 20.1102C13.0763 20.3106 13.2387 20.4731 13.4391 20.4731Z" fill="white"/>
<g opacity="0.4">
<path opacity="0.6" d="M13.2311 20.3435C13.0886 20.201 13.0886 19.9677 13.2311 19.8252C13.2571 19.7993 13.283 19.7863 13.3089 19.7604C13.2571 19.7733 13.2182 19.7993 13.1793 19.8381C13.0368 19.9807 13.0368 20.2139 13.1793 20.3565C13.2959 20.4731 13.4774 20.499 13.6199 20.4213C13.4903 20.4731 13.3348 20.4472 13.2311 20.3435Z" fill="url(#paint9_linear)"/>
</g>
<path opacity="0.3" d="M13.568 20.0066C13.611 20.0066 13.6458 19.9718 13.6458 19.9288C13.6458 19.8859 13.611 19.8511 13.568 19.8511C13.5251 19.8511 13.4903 19.8859 13.4903 19.9288C13.4903 19.9718 13.5251 20.0066 13.568 20.0066Z" fill="white"/>
<path opacity="0.2" d="M15.3312 20.2916C15.5316 20.2916 15.694 20.1292 15.694 19.9288C15.694 19.7284 15.5316 19.5659 15.3312 19.5659C15.1308 19.5659 14.9683 19.7284 14.9683 19.9288C14.9683 20.1292 15.1308 20.2916 15.3312 20.2916Z" fill="white"/>
<g opacity="0.4">
<path opacity="0.6" d="M15.1231 20.1619C14.9806 20.0194 14.9806 19.7861 15.1231 19.6436C15.149 19.6177 15.1749 19.6047 15.2009 19.5788C15.149 19.5918 15.1101 19.6177 15.0713 19.6566C14.9287 19.7991 14.9287 20.0324 15.0713 20.1749C15.1879 20.2915 15.3693 20.3175 15.5119 20.2397C15.3823 20.2915 15.2268 20.2656 15.1231 20.1619Z" fill="url(#paint10_linear)"/>
</g>
<path opacity="0.3" d="M15.4601 19.825C15.503 19.825 15.5378 19.7902 15.5378 19.7472C15.5378 19.7043 15.503 19.6695 15.4601 19.6695C15.4171 19.6695 15.3823 19.7043 15.3823 19.7472C15.3823 19.7902 15.4171 19.825 15.4601 19.825Z" fill="white"/>
<path opacity="0.2" d="M14.3974 21.1339C14.5477 21.1339 14.6696 21.012 14.6696 20.8617C14.6696 20.7114 14.5477 20.5896 14.3974 20.5896C14.2471 20.5896 14.1253 20.7114 14.1253 20.8617C14.1253 21.012 14.2471 21.1339 14.3974 21.1339Z" fill="white"/>
<g opacity="0.4">
<path opacity="0.6" d="M14.2419 21.0302C14.1383 20.9266 14.1383 20.7451 14.2419 20.6415C14.2549 20.6285 14.2808 20.6156 14.2938 20.6026C14.2549 20.6156 14.229 20.6415 14.2031 20.6674C14.0994 20.7711 14.0994 20.9525 14.2031 21.0562C14.2938 21.1469 14.4234 21.1598 14.54 21.095C14.4363 21.1339 14.3197 21.108 14.2419 21.0302Z" fill="url(#paint11_linear)"/>
</g>
<path opacity="0.3" d="M14.4881 20.7711C14.5167 20.7711 14.5399 20.7479 14.5399 20.7193C14.5399 20.6906 14.5167 20.6674 14.4881 20.6674C14.4594 20.6674 14.4362 20.6906 14.4362 20.7193C14.4362 20.7479 14.4594 20.7711 14.4881 20.7711Z" fill="white"/>
<path opacity="0.2" d="M16.0691 20.9395C16.2194 20.9395 16.3413 20.8177 16.3413 20.6674C16.3413 20.5171 16.2194 20.3953 16.0691 20.3953C15.9188 20.3953 15.797 20.5171 15.797 20.6674C15.797 20.8177 15.9188 20.9395 16.0691 20.9395Z" fill="white"/>
<g opacity="0.4">
<path opacity="0.6" d="M15.9136 20.8358C15.81 20.7322 15.81 20.5508 15.9136 20.4471C15.9266 20.4341 15.9525 20.4212 15.9655 20.4082C15.9266 20.4212 15.9007 20.4471 15.8748 20.473C15.7711 20.5767 15.7711 20.7581 15.8748 20.8618C15.9655 20.9525 16.0951 20.9654 16.2117 20.9006C16.108 20.9395 15.9914 20.9136 15.9136 20.8358Z" fill="url(#paint12_linear)"/>
</g>
<path opacity="0.3" d="M16.1599 20.5766C16.1885 20.5766 16.2117 20.5534 16.2117 20.5248C16.2117 20.4962 16.1885 20.473 16.1599 20.473C16.1312 20.473 16.108 20.4962 16.108 20.5248C16.108 20.5534 16.1312 20.5766 16.1599 20.5766Z" fill="white"/>
<path opacity="0.2" d="M11.8963 20.3434C12.2255 20.3434 12.4924 20.0765 12.4924 19.7473C12.4924 19.4181 12.2255 19.1512 11.8963 19.1512C11.5671 19.1512 11.3002 19.4181 11.3002 19.7473C11.3002 20.0765 11.5671 20.3434 11.8963 20.3434Z" fill="white"/>
<g opacity="0.4">
<path opacity="0.6" d="M11.5594 20.1231C11.3262 19.8898 11.3262 19.514 11.5594 19.2808C11.5983 19.2419 11.6372 19.216 11.689 19.1901C11.6113 19.216 11.5465 19.2678 11.4817 19.3197C11.2484 19.5529 11.2484 19.9287 11.4817 20.162C11.6761 20.3564 11.9741 20.3952 12.2074 20.2527C11.9871 20.3434 11.7279 20.3045 11.5594 20.1231Z" fill="url(#paint13_linear)"/>
</g>
<path opacity="0.3" d="M12.1037 19.5658C12.1753 19.5658 12.2333 19.5078 12.2333 19.4362C12.2333 19.3647 12.1753 19.3066 12.1037 19.3066C12.0321 19.3066 11.9741 19.3647 11.9741 19.4362C11.9741 19.5078 12.0321 19.5658 12.1037 19.5658Z" fill="white"/>
<path opacity="0.2" d="M17.2225 18.8791C17.5517 18.8791 17.8186 18.6122 17.8186 18.283C17.8186 17.9538 17.5517 17.6869 17.2225 17.6869C16.8933 17.6869 16.6264 17.9538 16.6264 18.283C16.6264 18.6122 16.8933 18.8791 17.2225 18.8791Z" fill="white"/>
<g opacity="0.4">
<path opacity="0.6" d="M16.8726 18.6588C16.6393 18.4255 16.6393 18.0497 16.8726 17.8164C16.9115 17.7775 16.9503 17.7516 17.0022 17.7257C16.9244 17.7516 16.8596 17.8035 16.7948 17.8553C16.5616 18.0886 16.5616 18.4644 16.7948 18.6976C16.9892 18.892 17.2873 18.9309 17.5205 18.7883C17.3002 18.8791 17.054 18.8402 16.8726 18.6588Z" fill="url(#paint14_linear)"/>
</g>
<path opacity="0.3" d="M17.4298 18.1016C17.5014 18.1016 17.5594 18.0436 17.5594 17.972C17.5594 17.9004 17.5014 17.8424 17.4298 17.8424C17.3583 17.8424 17.3002 17.9004 17.3002 17.972C17.3002 18.0436 17.3583 18.1016 17.4298 18.1016Z" fill="white"/>
<defs>
<radialGradient id="paint0_radial" cx="0" cy="0" r="1" gradientUnits="userSpaceOnUse" gradientTransform="translate(21.9364 7.60486) scale(5.79193)">
<stop stop-color="#FFEAFF" stop-opacity="0.6"/>
<stop offset="0.6807" stop-color="#A087C9"/>
<stop offset="1" stop-color="#10002F"/>
</radialGradient>
<radialGradient id="paint1_radial" cx="0" cy="0" r="1" gradientUnits="userSpaceOnUse" gradientTransform="translate(18.7141 10.075) scale(14.1708)">
<stop stop-color="#FFEAFF" stop-opacity="0.6"/>
<stop offset="0.6807" stop-color="#A087C9"/>
<stop offset="1" stop-color="#10002F"/>
</radialGradient>
<linearGradient id="paint2_linear" x1="12.7559" y1="22.2104" x2="15.0729" y2="7.91583" gradientUnits="userSpaceOnUse">
<stop stop-color="#81FFFF"/>
<stop offset="0.6202" stop-color="white" stop-opacity="0"/>
</linearGradient>
<linearGradient id="paint3_linear" x1="19.0232" y1="10.1494" x2="13.0331" y2="15.6455" gradientUnits="userSpaceOnUse">
<stop offset="0.2888" stop-color="white"/>
<stop offset="0.7796" stop-color="white" stop-opacity="0"/>
</linearGradient>
<linearGradient id="paint4_linear" x1="7.02957" y1="18.4409" x2="20.7958" y2="18.4409" gradientUnits="userSpaceOnUse">
<stop stop-color="#0002E9"/>
<stop offset="0.9952" stop-color="#FF00C7"/>
</linearGradient>
<linearGradient id="paint5_linear" x1="21.4475" y1="15.6081" x2="13.9546" y2="22.6893" gradientUnits="userSpaceOnUse">
<stop offset="0.2888" stop-color="white"/>
<stop offset="0.7796" stop-color="white" stop-opacity="0"/>
</linearGradient>
<linearGradient id="paint6_linear" x1="7.02957" y1="18.4408" x2="14.3944" y2="18.4408" gradientUnits="userSpaceOnUse">
<stop stop-color="#000292"/>
<stop offset="0.9952" stop-color="#7D00C7"/>
</linearGradient>
<linearGradient id="paint7_linear" x1="7.03878" y1="15.6408" x2="20.7865" y2="15.6408" gradientUnits="userSpaceOnUse">
<stop stop-color="#000292"/>
<stop offset="0.9952" stop-color="#BE00C7"/>
</linearGradient>
<linearGradient id="paint8_linear" x1="20.561" y1="8.26733" x2="19.5729" y2="9.87295" gradientUnits="userSpaceOnUse">
<stop offset="0.2888" stop-color="white"/>
<stop offset="0.7796" stop-color="white" stop-opacity="0"/>
</linearGradient>
<linearGradient id="paint9_linear" x1="13.072" y1="20.1214" x2="13.6203" y2="20.1214" gradientUnits="userSpaceOnUse">
<stop offset="0.2888" stop-color="white"/>
<stop offset="0.7796" stop-color="white" stop-opacity="0"/>
</linearGradient>
<linearGradient id="paint10_linear" x1="14.9627" y1="19.9373" x2="15.511" y2="19.9373" gradientUnits="userSpaceOnUse">
<stop offset="0.2888" stop-color="white"/>
<stop offset="0.7796" stop-color="white" stop-opacity="0"/>
</linearGradient>
<linearGradient id="paint11_linear" x1="14.1236" y1="20.8649" x2="14.5352" y2="20.8649" gradientUnits="userSpaceOnUse">
<stop offset="0.2888" stop-color="white"/>
<stop offset="0.7796" stop-color="white" stop-opacity="0"/>
</linearGradient>
<linearGradient id="paint12_linear" x1="15.7897" y1="20.67" x2="16.2013" y2="20.67" gradientUnits="userSpaceOnUse">
<stop offset="0.2888" stop-color="white"/>
<stop offset="0.7796" stop-color="white" stop-opacity="0"/>
</linearGradient>
<linearGradient id="paint13_linear" x1="11.3008" y1="19.7625" x2="12.1962" y2="19.7625" gradientUnits="userSpaceOnUse">
<stop offset="0.2888" stop-color="white"/>
<stop offset="0.7796" stop-color="white" stop-opacity="0"/>
</linearGradient>
<linearGradient id="paint14_linear" x1="16.6189" y1="18.2977" x2="17.5143" y2="18.2977" gradientUnits="userSpaceOnUse">
<stop offset="0.2888" stop-color="white"/>
<stop offset="0.7796" stop-color="white" stop-opacity="0"/>
</linearGradient>
</defs>
</svg>
