<svg width="156" height="63" viewBox="0 0 156 63" fill="none" xmlns="http://www.w3.org/2000/svg">
<g clip-path="url(#clip0)">
<path d="M84.5816 36.4143H80.605C80.5766 36.4171 80.5479 36.4143 80.5205 36.406C80.4932 36.3977 80.4677 36.3841 80.4456 36.366C80.4236 36.3478 80.4053 36.3255 80.3918 36.3003C80.3784 36.2751 80.37 36.2475 80.3673 36.219C80.3656 36.2044 80.3656 36.1896 80.3673 36.1749V27.8124C80.3729 27.7554 80.3672 27.6979 80.3505 27.6431C80.3338 27.5883 80.3064 27.5374 80.27 27.4932C80.2335 27.449 80.1887 27.4125 80.1381 27.3857C80.0875 27.3589 80.0321 27.3423 79.9751 27.337C79.9446 27.3336 79.9138 27.3336 79.8834 27.337H78.5148C78.4504 27.33 78.3853 27.3376 78.3243 27.3591C78.2632 27.3806 78.2078 27.4155 78.162 27.4613C78.1162 27.5071 78.0813 27.5626 78.0598 27.6236C78.0382 27.6847 78.0307 27.7498 78.0377 27.8141V37.6233C78.0377 38.2311 78.3773 38.5792 78.9936 38.5792H84.5765C84.6409 38.5862 84.706 38.5786 84.7671 38.5571C84.8281 38.5356 84.8836 38.5007 84.9294 38.4549C84.9751 38.4091 85.0101 38.3537 85.0316 38.2926C85.0531 38.2316 85.0606 38.1664 85.0537 38.1021V36.8931C85.0606 36.8288 85.0531 36.7637 85.0316 36.7026C85.0101 36.6415 84.9751 36.5861 84.9294 36.5403C84.8836 36.4945 84.8281 36.4596 84.7671 36.4381C84.706 36.4166 84.6409 36.409 84.5765 36.416L84.5816 36.4143Z" fill="#28646E"/>
<path d="M143.094 31.689H141.566C141.51 31.6839 141.454 31.6898 141.4 31.7065C141.346 31.7232 141.296 31.7503 141.253 31.7862C141.21 31.8222 141.174 31.8663 141.148 31.916C141.122 31.9658 141.106 32.0202 141.101 32.0762C141.098 32.1061 141.098 32.1362 141.101 32.1662V38.1006C141.094 38.1563 141.098 38.2129 141.113 38.267C141.128 38.3212 141.154 38.3718 141.189 38.416C141.223 38.4602 141.267 38.4971 141.316 38.5245C141.365 38.552 141.419 38.5695 141.474 38.576C141.504 38.5794 141.534 38.5794 141.564 38.576H143.093C143.149 38.5811 143.205 38.5751 143.259 38.5584C143.313 38.5416 143.363 38.5144 143.407 38.4783C143.45 38.4422 143.486 38.3979 143.512 38.3479C143.538 38.298 143.554 38.2433 143.559 38.1871C143.562 38.1578 143.562 38.1282 143.559 38.0989V32.1662C143.572 32.0532 143.54 31.9397 143.469 31.8505C143.399 31.7614 143.295 31.7039 143.183 31.6907C143.153 31.6868 143.124 31.6862 143.094 31.689Z" fill="#28646E"/>
<path d="M141.61 30.1422C141.741 30.0641 141.72 29.9282 141.707 29.8213C141.639 29.2932 141.119 27.0383 140.959 26.5765C140.945 26.4935 140.897 26.4198 140.828 26.3715C140.759 26.3231 140.674 26.304 140.591 26.3184H140.566C140.34 26.3625 140.046 26.5085 139.584 26.787C139.122 27.0655 138.854 27.2573 138.711 27.4373C138.683 27.4686 138.661 27.5052 138.647 27.545C138.633 27.5847 138.627 27.6268 138.629 27.6689C138.632 27.711 138.642 27.7523 138.66 27.7903C138.678 27.8284 138.704 27.8625 138.735 27.8907L138.754 27.906C139.093 28.2625 140.842 29.7737 141.279 30.0776C141.367 30.1388 141.477 30.222 141.606 30.1422H141.61Z" fill="#28646E"/>
<path d="M142.969 27.1674C143.103 27.2387 143.208 27.1504 143.293 27.0842C144.141 26.3675 144.945 25.5991 145.699 24.7834C145.763 24.7282 145.803 24.6496 145.81 24.565C145.817 24.4803 145.79 24.3965 145.735 24.3318L145.718 24.3131C145.565 24.1433 145.288 23.9633 144.813 23.7103C144.337 23.4573 144.035 23.3249 143.807 23.2926C143.766 23.2845 143.723 23.2846 143.681 23.293C143.64 23.3014 143.6 23.3179 143.565 23.3415C143.53 23.3652 143.5 23.3955 143.477 23.4309C143.453 23.4662 143.437 23.5057 143.429 23.5473C143.429 23.5473 143.429 23.5626 143.429 23.5694C143.295 24.0397 142.896 26.3184 142.857 26.8499C142.848 26.9568 142.834 27.0927 142.969 27.1657V27.1674Z" fill="#28646E"/>
<path d="M91.1346 31.689H89.6064C89.5502 31.6839 89.4936 31.6899 89.4397 31.7066C89.3858 31.7234 89.3358 31.7506 89.2924 31.7867C89.2491 31.8228 89.2132 31.8671 89.187 31.9171C89.1608 31.967 89.1446 32.0217 89.1395 32.0779C89.1369 32.1072 89.1369 32.1368 89.1395 32.1662V38.1005C89.1266 38.2135 89.159 38.327 89.2297 38.4162C89.3004 38.5053 89.4035 38.5628 89.5164 38.576C89.5458 38.5794 89.5754 38.5794 89.6047 38.576H91.1329C91.1889 38.5811 91.2453 38.5752 91.299 38.5585C91.3526 38.5418 91.4025 38.5147 91.4457 38.4788C91.4889 38.4428 91.5246 38.3987 91.5508 38.349C91.5769 38.2992 91.593 38.2448 91.5981 38.1888C91.6007 38.1589 91.6007 38.1288 91.5981 38.0988V32.1662C91.605 32.1104 91.6008 32.0538 91.5857 31.9997C91.5706 31.9455 91.545 31.8949 91.5103 31.8507C91.4755 31.8066 91.4324 31.7697 91.3834 31.7422C91.3344 31.7147 91.2804 31.6973 91.2246 31.6907C91.1947 31.6868 91.1646 31.6862 91.1346 31.689Z" fill="#28646E"/>
<path d="M89.6533 30.1422C89.784 30.0641 89.7619 29.9282 89.7483 29.8213C89.6821 29.2932 89.1626 27.0383 89.0029 26.5764C88.9876 26.4937 88.9404 26.4203 88.8715 26.372C88.8026 26.3238 88.7175 26.3045 88.6345 26.3184H88.6124C88.3866 26.3625 88.0912 26.5085 87.631 26.787C87.1709 27.0655 86.9009 27.2573 86.7583 27.4373C86.7301 27.4686 86.7083 27.5052 86.6942 27.545C86.6801 27.5847 86.674 27.6268 86.6762 27.6689C86.6784 27.711 86.6889 27.7523 86.7071 27.7903C86.7252 27.8284 86.7507 27.8625 86.782 27.8907L86.8007 27.906C87.1403 28.2625 88.8892 29.7737 89.3256 30.0776C89.4139 30.1388 89.5225 30.222 89.6533 30.1422Z" fill="#28646E"/>
<path d="M91.0116 27.1674C91.1457 27.2387 91.251 27.1504 91.3359 27.0842C92.1844 26.3675 92.9879 25.5991 93.7419 24.7834C93.8062 24.7285 93.8462 24.6502 93.8528 24.5658C93.8595 24.4815 93.8324 24.3979 93.7775 24.3335L93.7588 24.3131C93.6077 24.1433 93.3309 23.9633 92.8538 23.7103C92.3767 23.4573 92.0779 23.3249 91.8504 23.2926C91.8088 23.2845 91.766 23.2846 91.7244 23.293C91.6829 23.3014 91.6434 23.3179 91.6083 23.3415C91.5731 23.3652 91.543 23.3955 91.5195 23.4309C91.4961 23.4662 91.4798 23.5057 91.4717 23.5473C91.4717 23.5473 91.4717 23.5626 91.4717 23.5694C91.3376 24.0397 90.9386 26.3184 90.8995 26.8499C90.891 26.9568 90.8774 27.0927 91.0116 27.1657V27.1674Z" fill="#28646E"/>
<path d="M103.693 38.5692H102.323C102.259 38.5762 102.194 38.5687 102.133 38.5472C102.072 38.5256 102.016 38.4907 101.97 38.4449C101.925 38.3992 101.89 38.3437 101.868 38.2826C101.847 38.2216 101.839 38.1565 101.846 38.0921V36.0698C101.833 35.658 101.659 35.2675 101.363 34.9809C101.067 34.6944 100.671 34.5342 100.259 34.5342C99.8472 34.5342 99.4513 34.6944 99.1552 34.9809C98.8591 35.2675 98.686 35.658 98.6725 36.0698V38.0921C98.6844 38.2067 98.6503 38.3213 98.5777 38.4108C98.5051 38.5003 98.3999 38.5572 98.2854 38.5692C98.2549 38.5726 98.2241 38.5726 98.1937 38.5692H96.8251C96.7105 38.5816 96.5957 38.548 96.5059 38.4757C96.4161 38.4034 96.3587 38.2984 96.3463 38.1838C96.3429 38.1533 96.3429 38.1226 96.3463 38.0921V28.0164C96.3344 27.9014 96.3687 27.7863 96.4416 27.6965C96.5145 27.6068 96.6201 27.5496 96.7351 27.5376C96.765 27.5342 96.7952 27.5342 96.8251 27.5376H98.1937C98.2505 27.5312 98.3079 27.5362 98.3628 27.5522C98.4177 27.5681 98.4688 27.5948 98.5134 27.6306C98.5579 27.6664 98.5948 27.7107 98.6222 27.7609C98.6495 27.8111 98.6666 27.8662 98.6725 27.923C98.6759 27.9541 98.6759 27.9854 98.6725 28.0164V32.2885C98.6725 32.3749 98.7069 32.4579 98.768 32.519C98.8291 32.5801 98.912 32.6145 98.9985 32.6145H99.0121C99.1379 32.5956 99.2578 32.5488 99.363 32.4773C99.4682 32.4059 99.556 32.3118 99.62 32.2019L101.462 29.4852C101.685 29.1778 101.877 29.0284 102.18 29.0284H103.787C104.126 29.0284 104.308 29.3103 104.113 29.6142L102.046 32.4175C101.938 32.5873 101.916 32.7435 102.177 32.8743C102.776 33.1655 103.282 33.6195 103.635 34.1843C103.988 34.7491 104.176 35.4019 104.176 36.0681V38.0904C104.182 38.1468 104.178 38.204 104.162 38.2587C104.147 38.3133 104.12 38.3644 104.085 38.4089C104.05 38.4534 104.006 38.4904 103.956 38.518C103.906 38.5455 103.852 38.5629 103.795 38.5692C103.761 38.5742 103.727 38.5742 103.693 38.5692Z" fill="#28646E"/>
<path d="M111.395 28.8059C109.174 28.8059 107.691 30.4105 107.691 32.2409V35.2853C107.691 37.1157 109.174 38.7203 111.395 38.7203C113.419 38.7203 114.195 37.7644 114.59 36.968C114.646 36.8673 114.664 36.75 114.641 36.6371C114.619 36.5242 114.557 36.423 114.466 36.3517L113.5 35.7132C113.458 35.6784 113.41 35.6522 113.358 35.6363C113.306 35.6203 113.251 35.6149 113.197 35.6202C113.143 35.6256 113.09 35.6417 113.042 35.6676C112.994 35.6934 112.952 35.7286 112.918 35.7709C112.905 35.7848 112.893 35.8002 112.884 35.8168C112.493 36.4739 112.035 36.766 111.395 36.766C111.202 36.7712 111.011 36.7384 110.831 36.6696C110.652 36.6008 110.488 36.4973 110.348 36.365C110.209 36.2327 110.096 36.0742 110.018 35.8986C109.94 35.7229 109.897 35.5336 109.892 35.3414V34.9152C109.889 34.8883 109.892 34.8611 109.899 34.8352C109.907 34.8093 109.92 34.7852 109.937 34.7642C109.954 34.7432 109.975 34.7258 109.999 34.713C110.022 34.7001 110.048 34.6921 110.075 34.6893C110.09 34.6876 110.105 34.6876 110.119 34.6893H114.195C114.77 34.6893 115.1 34.3599 115.1 33.7843V32.2409C115.096 30.4105 113.616 28.8059 111.395 28.8059ZM112.896 32.611C112.899 32.6379 112.896 32.6651 112.889 32.6911C112.881 32.7171 112.869 32.7414 112.852 32.7625C112.835 32.7837 112.814 32.8013 112.791 32.8143C112.767 32.8274 112.741 32.8356 112.714 32.8386H110.123C110.096 32.8414 110.068 32.8388 110.042 32.8311C110.016 32.8233 109.992 32.8104 109.971 32.7932C109.95 32.776 109.932 32.7548 109.919 32.7309C109.906 32.7069 109.898 32.6806 109.895 32.6535C109.894 32.6394 109.894 32.6251 109.895 32.611V32.2409C109.908 31.8513 110.072 31.4821 110.353 31.2111C110.633 30.9402 111.007 30.7887 111.397 30.7887C111.787 30.7887 112.162 30.9402 112.442 31.2111C112.722 31.4821 112.886 31.8513 112.899 32.2409L112.896 32.611Z" fill="#28646E"/>
<path d="M122.776 29.2049C123.722 29.2049 124.108 29.828 124.517 30.514C124.666 30.7517 124.924 30.7721 125.16 30.6227L126.169 29.9571C126.427 29.7873 126.362 29.463 126.298 29.3119C125.89 28.2591 124.688 27.1639 122.776 27.1639C120.457 27.1639 118.91 28.8398 118.91 30.7517V35.141C118.91 37.0529 120.457 38.727 122.776 38.727C124.688 38.727 125.89 37.6319 126.298 36.5791C126.362 36.4297 126.427 36.1071 126.169 35.9356L125.16 35.27C125.116 35.2339 125.066 35.2067 125.011 35.1902C124.957 35.1736 124.9 35.1679 124.843 35.1734C124.787 35.1789 124.732 35.1956 124.681 35.2223C124.631 35.2491 124.587 35.2855 124.551 35.3294C124.538 35.3446 124.527 35.3604 124.517 35.377C124.108 36.0646 123.722 36.6861 122.776 36.6861C122.576 36.6913 122.376 36.6569 122.189 36.5849C122.001 36.5128 121.83 36.4046 121.684 36.2663C121.539 36.128 121.422 35.9624 121.34 35.7789C121.259 35.5954 121.214 35.3977 121.209 35.197V30.7449C121.207 30.5443 121.244 30.345 121.318 30.1587C121.393 29.9723 121.503 29.8025 121.644 29.6589C121.784 29.5152 121.951 29.4006 122.135 29.3215C122.32 29.2425 122.518 29.2005 122.719 29.1981L122.776 29.2049Z" fill="#28646E"/>
<path d="M133.045 28.9094C130.824 28.9094 129.344 30.514 129.344 32.3444V35.2853C129.344 37.1157 130.824 38.7202 133.045 38.7202C135.266 38.7202 136.749 37.1157 136.749 35.2853V32.3444C136.749 30.5208 135.268 28.9094 133.045 28.9094ZM134.548 35.2853C134.535 35.6748 134.371 36.0441 134.091 36.315C133.81 36.586 133.436 36.7375 133.046 36.7375C132.656 36.7375 132.282 36.586 132.002 36.315C131.721 36.0441 131.557 35.6748 131.544 35.2853V32.3444C131.557 31.9548 131.721 31.5856 132.002 31.3146C132.282 31.0437 132.656 30.8922 133.046 30.8922C133.436 30.8922 133.81 31.0437 134.091 31.3146C134.371 31.5856 134.535 31.9548 134.548 32.3444V35.2853Z" fill="#28646E"/>
<path d="M152.09 28.9163C151.428 28.9135 150.776 29.0857 150.201 29.4155C150.153 29.4453 150.096 29.4551 150.041 29.4427C149.986 29.4303 149.939 29.3967 149.909 29.3493C149.904 29.3429 149.9 29.336 149.897 29.3289C149.854 29.2649 149.795 29.2132 149.727 29.1789C149.658 29.1447 149.581 29.1291 149.504 29.1336H148.655C148.541 29.1218 148.426 29.1559 148.337 29.2284C148.247 29.301 148.19 29.4062 148.178 29.5208C148.175 29.5512 148.175 29.582 148.178 29.6125V38.1022C148.171 38.1666 148.179 38.2317 148.2 38.2928C148.222 38.3538 148.257 38.4093 148.303 38.4551C148.348 38.5008 148.404 38.5358 148.465 38.5573C148.526 38.5788 148.591 38.5863 148.655 38.5794H150.024C150.139 38.5917 150.253 38.5581 150.343 38.4858C150.433 38.4135 150.49 38.3085 150.503 38.1939C150.506 38.1635 150.506 38.1327 150.503 38.1022V32.5448C150.503 32.1242 150.67 31.7208 150.967 31.4234C151.265 31.126 151.668 30.9589 152.089 30.9589C152.509 30.9589 152.913 31.126 153.21 31.4234C153.508 31.7208 153.675 32.1242 153.675 32.5448V38.1005C153.668 38.1649 153.675 38.23 153.697 38.2911C153.718 38.3521 153.753 38.4076 153.799 38.4534C153.845 38.4991 153.9 38.5341 153.961 38.5556C154.022 38.5771 154.087 38.5846 154.152 38.5777H155.52C155.635 38.59 155.75 38.5564 155.839 38.4841C155.929 38.4118 155.987 38.3068 155.999 38.1922C156.002 38.1618 156.002 38.131 155.999 38.1005V32.5448C156.001 30.6109 154.437 28.9163 152.09 28.9163Z" fill="#28646E"/>
<path d="M31.2 62.4C13.9963 62.4 0 48.4037 0 31.2C0 13.9963 13.9963 0 31.2 0C48.4037 0 62.4 13.9963 62.4 31.2C62.4 48.4037 48.4037 62.4 31.2 62.4ZM31.2 2.64202C15.4514 2.64202 2.64202 15.4514 2.64202 31.2C2.64202 46.9486 15.4514 59.758 31.2 59.758C46.9486 59.758 59.7682 46.9469 59.7682 31.2C59.7682 15.4531 46.9469 2.64202 31.2 2.64202Z" fill="#28646E"/>
<path d="M29.1385 25.4998C28.9582 25.5003 28.782 25.4457 28.6335 25.3434C28.485 25.2411 28.3713 25.0959 28.3074 24.9273C28.2436 24.7586 28.2327 24.5745 28.2762 24.3995C28.3197 24.2245 28.4156 24.067 28.551 23.9479C31.0572 21.7405 32.166 19.9169 32.363 19.5739C33.0999 18.2903 34.2834 17.6264 35.5263 17.7962C35.7593 17.8279 35.9702 17.951 36.1125 18.1382C36.2549 18.3254 36.317 18.5615 36.2853 18.7946C36.2535 19.0276 36.1305 19.2385 35.9433 19.3809C35.756 19.5232 35.5199 19.5853 35.2869 19.5536C34.5618 19.4568 34.0762 20.153 33.9013 20.4586C33.6806 20.844 32.4394 22.885 29.726 25.2791C29.5634 25.4214 29.3547 25.4999 29.1385 25.4998Z" fill="#28646E"/>
<path d="M14.2032 40.5387C14.021 40.5384 13.8432 40.4821 13.6941 40.3774C13.545 40.2727 13.4317 40.1246 13.3696 39.9533C13.3075 39.782 13.2996 39.5957 13.3469 39.4198C13.3943 39.2438 13.4946 39.0867 13.6344 38.9697C14.6632 38.1571 15.755 37.4275 16.8995 36.7879C17.1086 36.6938 17.346 36.6843 17.562 36.7613C17.7779 36.8383 17.9558 36.9958 18.0582 37.201C18.1607 37.4061 18.1798 37.6429 18.1116 37.8618C18.0435 38.0807 17.8933 38.2648 17.6925 38.3755C16.6726 38.9551 15.697 39.6095 14.7737 40.3332C14.6139 40.4672 14.4117 40.54 14.2032 40.5387Z" fill="#28646E"/>
<path d="M36.508 32.1219C36.8594 32.4513 37.2686 32.3087 37.6456 31.9521C40.2163 29.502 42.9398 25.6544 43.8482 23.6576C44.0418 23.2314 44.434 22.9937 44.8551 23.1618C45.3492 23.3622 45.3424 24.2128 44.8942 25.1365C43.7056 27.5816 42.0586 30.2745 38.8053 33.6433C38.6744 33.7668 38.5978 33.9371 38.5924 34.117C38.587 34.2969 38.6532 34.4715 38.7764 34.6026L38.8206 34.6468C39.1075 34.9049 39.5728 34.8879 40.0091 34.4447C41.7071 32.7213 42.8362 31.3884 43.8143 30.0046C44.0639 29.6412 44.3661 29.4952 44.6632 29.5614C45.0911 29.6463 45.1591 30.0572 45.0283 30.5513C44.8161 31.3494 42.5714 34.2868 41.6833 35.2835C39.2722 37.9731 36.8594 39.4469 32.2189 41.8597C30.5991 42.7087 29.3867 43.5067 28.6532 44.7463C27.9859 45.8737 27.7855 46.2422 27.7176 46.3848C27.5868 46.6498 27.5653 46.9556 27.6577 47.2363C27.7501 47.5171 27.9491 47.7503 28.2117 47.8858C28.4726 48.0108 28.7723 48.0274 29.0454 47.932C29.3184 47.8365 29.5425 47.6367 29.6686 47.3764C29.6686 47.3594 29.6839 47.3407 29.6924 47.3221C29.7008 47.3034 29.6584 47.3407 30.5311 45.8652C31.1863 44.8109 32.137 43.9725 33.2649 43.4541C37.9071 41.3385 39.8088 39.6643 42.5017 36.9713C43.7311 35.742 45.429 33.1084 45.8977 32.3291C47.1949 30.1455 46.514 28.2727 45.3424 27.9551C45.3042 27.9455 45.2712 27.9212 45.2506 27.8876C45.23 27.854 45.2233 27.8136 45.2321 27.7752C45.2357 27.7608 45.2414 27.7471 45.249 27.7344C46.1558 26.1808 46.5684 25.1077 46.7399 24.2757C46.9708 23.1448 46.6499 21.7729 45.0979 21.4384C45.0594 21.4291 45.0262 21.405 45.0055 21.3712C44.9848 21.3375 44.9784 21.2969 44.9876 21.2584C45.0843 20.9001 45.1811 20.4485 45.2473 20.1513C45.5734 18.6826 44.6446 17.3531 43.529 17.1137C43.1694 17.0331 42.7967 17.0304 42.4359 17.1057C42.0751 17.1809 41.7346 17.3324 41.4371 17.55C41.3956 17.5779 41.3454 17.5898 41.2958 17.5836C41.2462 17.5774 41.2005 17.5534 41.1672 17.5161C41.0208 17.3523 40.8427 17.2199 40.6436 17.1271C40.4446 17.0343 40.2287 16.9829 40.0091 16.9761C39.0362 16.9592 38.0803 17.258 37.3807 18.7522C36.8798 19.8202 36.1344 21.255 33.9508 23.6763C31.9252 25.9227 29.1049 28.113 27.3644 29.2558C27.0588 29.4561 26.6309 29.4086 26.6853 28.9994C26.7668 28.3474 27.4646 23.9751 27.5835 22.6864C27.7771 20.5928 26.6513 19.63 25.388 19.4602C24.3489 19.3193 22.7715 19.6182 21.9072 21.9851C21.3978 23.3723 20.3451 25.651 19.4503 29.322C18.8203 31.9046 18.7167 34.9151 19.2924 38.3738C19.3295 38.5824 19.2891 38.7975 19.1786 38.9783C18.4892 40.1125 17.4806 41.605 16.9169 42.9074C16.8045 43.1599 16.7896 43.4451 16.8753 43.7079C16.9609 43.9707 17.1409 44.1924 17.3805 44.3303C17.6349 44.4694 17.9342 44.5018 18.2125 44.4203C18.4908 44.3387 18.7253 44.15 18.8645 43.8956C18.8747 43.8769 18.8848 43.8565 18.8933 43.8378C19.2329 43.1315 19.9121 41.8003 20.1855 41.2553C20.6541 40.2959 20.9648 39.6626 21.0922 39.2635C21.2077 38.9002 21.2756 38.4791 21.0667 37.5214C20.7135 35.9101 20.5896 32.8809 21.2467 30.2202C21.9632 27.4561 22.8362 24.735 23.8616 22.07C24.1264 21.4163 24.5017 21.2125 24.8803 21.2465C25.259 21.2805 25.9721 21.4621 25.7667 22.7933C25.3999 25.1858 24.8803 28.2268 24.7088 29.2456C24.6256 29.755 24.5289 30.9181 25.4542 31.4529C26.1759 31.8706 26.9705 31.638 27.8484 31.0522C29.8248 29.7346 33.2292 27.0501 35.3686 24.6475C37.6133 22.126 38.3282 20.625 38.9055 19.2667C39.1687 18.6469 39.8444 18.652 40.0839 18.7216C40.3233 18.7913 40.6119 19.1139 40.4082 19.7964C39.9107 21.4536 37.8612 25.2503 33.9118 28.8109C33.4652 29.215 33.528 29.6921 33.7556 29.9417C33.9831 30.1913 34.3855 30.3408 34.8457 29.9417C38.3944 26.916 40.4201 23.2993 41.3302 21.3654C41.6362 20.7145 41.8972 20.0433 42.1112 19.3567C42.3048 18.7946 42.7378 18.5943 43.04 18.6571C43.4713 18.7488 43.7565 19.192 43.619 19.9204C43.3983 20.8523 43.0743 21.7567 42.6529 22.6168C41.5152 25.0312 39.1126 28.2625 36.5215 31.0369C36.4497 31.1002 36.391 31.177 36.3488 31.263C36.3067 31.349 36.2819 31.4425 36.2759 31.538C36.2699 31.6336 36.2828 31.7294 36.3139 31.82C36.345 31.9106 36.3936 31.9941 36.457 32.0659C36.4757 32.0914 36.4927 32.1049 36.508 32.1219Z" fill="#28646E"/>
<path d="M20.4654 20.097C20.6029 19.9765 20.5486 19.822 20.5095 19.698C20.3194 19.0884 19.231 16.5381 18.9457 16.0253C18.8014 15.7672 18.6197 15.7316 18.4244 15.8063C18.168 15.9048 17.8505 16.1459 17.3649 16.567C16.8793 16.9881 16.6042 17.2767 16.4735 17.5178C16.3733 17.7029 16.3852 17.888 16.6229 18.0629C17.0932 18.4126 19.4806 19.8236 20.0613 20.1004C20.1784 20.1548 20.3245 20.2278 20.462 20.1004L20.4654 20.097Z" fill="#28646E"/>
<path d="M40.1445 42.673C39.9628 42.6849 39.9119 42.8428 39.8677 42.9616C39.6487 43.5627 38.9627 46.2506 38.8795 46.8313C38.837 47.1217 38.9593 47.2609 39.1597 47.3203C39.4228 47.3984 39.8185 47.4035 40.4637 47.3594C41.1089 47.3152 41.4977 47.2592 41.749 47.1454C41.9409 47.0605 42.0428 46.906 41.9613 46.6225C41.7915 46.0604 40.7608 43.488 40.4637 42.9209C40.4043 42.8071 40.3312 42.6594 40.1496 42.673H40.1445Z" fill="#28646E"/>
<path d="M41.6945 41.4302C41.6113 41.6 41.7165 41.7172 41.798 41.8174C42.1971 42.3166 44.1378 44.2981 44.5895 44.6716C44.817 44.8601 44.9987 44.8278 45.1532 44.6869C45.357 44.5018 45.5675 44.1673 45.8647 43.5934C46.1618 43.0195 46.3163 42.6561 46.3503 42.3845C46.3774 42.1773 46.2976 42.0092 46.0107 41.9311C45.4453 41.7766 42.7082 41.3266 42.0697 41.2876C41.9407 41.2876 41.7777 41.2638 41.6928 41.4268L41.6945 41.4302Z" fill="#28646E"/>
<path d="M19.5271 21.7609C19.4948 21.5809 19.3335 21.547 19.2095 21.5164C18.5881 21.3636 15.8408 20.9765 15.255 20.9544C14.9612 20.9442 14.8356 21.0817 14.7982 21.294C14.749 21.564 14.7881 21.9579 14.9018 22.5929C15.0156 23.228 15.1141 23.6117 15.2533 23.8494C15.3603 24.0294 15.525 24.1143 15.7966 24.0039C16.34 23.7815 18.7834 22.4758 19.3131 22.1124C19.4201 22.0394 19.5593 21.9528 19.5271 21.7728V21.7609Z" fill="#28646E"/>
<path d="M31.2008 57.352C31.7476 57.352 32.1908 56.9088 32.1908 56.3621C32.1908 55.8154 31.7476 55.3722 31.2008 55.3722C30.6541 55.3722 30.2109 55.8154 30.2109 56.3621C30.2109 56.9088 30.6541 57.352 31.2008 57.352Z" fill="#28646E"/>
<path d="M31.2008 7.02792C31.7476 7.02792 32.1908 6.58472 32.1908 6.03801C32.1908 5.49129 31.7476 5.0481 31.2008 5.0481C30.6541 5.0481 30.2109 5.49129 30.2109 6.03801C30.2109 6.58472 30.6541 7.02792 31.2008 7.02792Z" fill="#28646E"/>
<path d="M37.7126 56.4945C38.2593 56.4945 38.7025 56.0513 38.7025 55.5046C38.7025 54.9578 38.2593 54.5146 37.7126 54.5146C37.1659 54.5146 36.7227 54.9578 36.7227 55.5046C36.7227 56.0513 37.1659 56.4945 37.7126 56.4945Z" fill="#28646E"/>
<path d="M24.6891 7.88534C25.2358 7.88534 25.679 7.44214 25.679 6.89543C25.679 6.34872 25.2358 5.90552 24.6891 5.90552C24.1424 5.90552 23.6992 6.34872 23.6992 6.89543C23.6992 7.44214 24.1424 7.88534 24.6891 7.88534Z" fill="#28646E"/>
<path d="M43.7829 53.9815C44.3296 53.9815 44.7728 53.5383 44.7728 52.9916C44.7728 52.4449 44.3296 52.0017 43.7829 52.0017C43.2362 52.0017 42.793 52.4449 42.793 52.9916C42.793 53.5383 43.2362 53.9815 43.7829 53.9815Z" fill="#28646E"/>
<path d="M19.5972 9.56788C19.6848 9.02823 19.3184 8.51975 18.7787 8.43215C18.2391 8.34455 17.7306 8.71101 17.643 9.25066C17.5554 9.79031 17.9218 10.2988 18.4615 10.3864C19.0011 10.474 19.5096 10.1075 19.5972 9.56788Z" fill="#28646E"/>
<path d="M48.9938 49.9829C49.5405 49.9829 49.9837 49.5397 49.9837 48.993C49.9837 48.4463 49.5405 48.0031 48.9938 48.0031C48.4471 48.0031 48.0039 48.4463 48.0039 48.993C48.0039 49.5397 48.4471 49.9829 48.9938 49.9829Z" fill="#28646E"/>
<path d="M13.4079 14.3971C13.9546 14.3971 14.3978 13.9539 14.3978 13.4071C14.3978 12.8604 13.9546 12.4172 13.4079 12.4172C12.8612 12.4172 12.418 12.8604 12.418 13.4071C12.418 13.9539 12.8612 14.3971 13.4079 14.3971Z" fill="#28646E"/>
<path d="M52.9899 44.7718C53.5366 44.7718 53.9798 44.3286 53.9798 43.7819C53.9798 43.2352 53.5366 42.792 52.9899 42.792C52.4432 42.792 52 43.2352 52 43.7819C52 44.3286 52.4432 44.7718 52.9899 44.7718Z" fill="#28646E"/>
<path d="M9.40788 19.608C9.95459 19.608 10.3978 19.1648 10.3978 18.6181C10.3978 18.0714 9.95459 17.6282 9.40788 17.6282C8.86117 17.6282 8.41797 18.0714 8.41797 18.6181C8.41797 19.1648 8.86117 19.608 9.40788 19.608Z" fill="#28646E"/>
<path d="M55.5055 38.7016C56.0523 38.7016 56.4954 38.2584 56.4954 37.7117C56.4954 37.165 56.0523 36.7218 55.5055 36.7218C54.9588 36.7218 54.5156 37.165 54.5156 37.7117C54.5156 38.2584 54.9588 38.7016 55.5055 38.7016Z" fill="#28646E"/>
<path d="M6.89616 25.6782C7.44287 25.6782 7.88607 25.235 7.88607 24.6883C7.88607 24.1416 7.44287 23.6984 6.89616 23.6984C6.34945 23.6984 5.90625 24.1416 5.90625 24.6883C5.90625 25.235 6.34945 25.6782 6.89616 25.6782Z" fill="#28646E"/>
<path d="M56.361 32.19C56.9077 32.19 57.3509 31.7468 57.3509 31.2001C57.3509 30.6534 56.9077 30.2102 56.361 30.2102C55.8143 30.2102 55.3711 30.6534 55.3711 31.2001C55.3711 31.7468 55.8143 32.19 56.361 32.19Z" fill="#28646E"/>
<path d="M6.03679 32.19C6.5835 32.19 7.0267 31.7468 7.0267 31.2001C7.0267 30.6534 6.5835 30.2102 6.03679 30.2102C5.49007 30.2102 5.04688 30.6534 5.04688 31.2001C5.04688 31.7468 5.49007 32.19 6.03679 32.19Z" fill="#28646E"/>
<path d="M55.5055 25.6782C56.0523 25.6782 56.4954 25.235 56.4954 24.6883C56.4954 24.1416 56.0523 23.6984 55.5055 23.6984C54.9588 23.6984 54.5156 24.1416 54.5156 24.6883C54.5156 25.235 54.9588 25.6782 55.5055 25.6782Z" fill="#28646E"/>
<path d="M6.89616 38.7016C7.44287 38.7016 7.88607 38.2584 7.88607 37.7117C7.88607 37.165 7.44287 36.7218 6.89616 36.7218C6.34945 36.7218 5.90625 37.165 5.90625 37.7117C5.90625 38.2584 6.34945 38.7016 6.89616 38.7016Z" fill="#28646E"/>
<path d="M52.9899 19.608C53.5366 19.608 53.9798 19.1648 53.9798 18.6181C53.9798 18.0714 53.5366 17.6282 52.9899 17.6282C52.4432 17.6282 52 18.0714 52 18.6181C52 19.1648 52.4432 19.608 52.9899 19.608Z" fill="#28646E"/>
<path d="M9.40788 44.7718C9.95459 44.7718 10.3978 44.3286 10.3978 43.7819C10.3978 43.2352 9.95459 42.792 9.40788 42.792C8.86117 42.792 8.41797 43.2352 8.41797 43.7819C8.41797 44.3286 8.86117 44.7718 9.40788 44.7718Z" fill="#28646E"/>
<path d="M48.9938 14.3971C49.5405 14.3971 49.9837 13.9539 49.9837 13.4071C49.9837 12.8604 49.5405 12.4172 48.9938 12.4172C48.4471 12.4172 48.0039 12.8604 48.0039 13.4071C48.0039 13.9539 48.4471 14.3971 48.9938 14.3971Z" fill="#28646E"/>
<path d="M13.4079 49.9829C13.9546 49.9829 14.3978 49.5397 14.3978 48.993C14.3978 48.4463 13.9546 48.0031 13.4079 48.0031C12.8612 48.0031 12.418 48.4463 12.418 48.993C12.418 49.5397 12.8612 49.9829 13.4079 49.9829Z" fill="#28646E"/>
<path d="M43.7829 10.3983C44.3296 10.3983 44.7728 9.95508 44.7728 9.40837C44.7728 8.86165 44.3296 8.41846 43.7829 8.41846C43.2362 8.41846 42.793 8.86165 42.793 9.40837C42.793 9.95508 43.2362 10.3983 43.7829 10.3983Z" fill="#28646E"/>
<path d="M18.6188 53.9815C19.1655 53.9815 19.6087 53.5383 19.6087 52.9916C19.6087 52.4449 19.1655 52.0017 18.6188 52.0017C18.0721 52.0017 17.6289 52.4449 17.6289 52.9916C17.6289 53.5383 18.0721 53.9815 18.6188 53.9815Z" fill="#28646E"/>
<path d="M37.7126 7.88534C38.2593 7.88534 38.7025 7.44214 38.7025 6.89543C38.7025 6.34872 38.2593 5.90552 37.7126 5.90552C37.1659 5.90552 36.7227 6.34872 36.7227 6.89543C36.7227 7.44214 37.1659 7.88534 37.7126 7.88534Z" fill="#28646E"/>
<path d="M24.6891 56.4945C25.2358 56.4945 25.679 56.0513 25.679 55.5046C25.679 54.9578 25.2358 54.5146 24.6891 54.5146C24.1424 54.5146 23.6992 54.9578 23.6992 55.5046C23.6992 56.0513 24.1424 56.4945 24.6891 56.4945Z" fill="#28646E"/>
</g>
<defs>
<clipPath id="clip0">
<rect width="156" height="62.4" fill="white"/>
</clipPath>
</defs>
</svg>
