<svg width="187" height="48" viewBox="0 0 187 48" fill="none" xmlns="http://www.w3.org/2000/svg">
<path d="M69.8882 32.2808H63.3902C63.3376 32.286 63.2846 32.2795 63.2348 32.2616C63.1851 32.2438 63.14 32.2151 63.1028 32.1776C63.0656 32.1401 63.0372 32.0948 63.0197 32.045C63.0023 31.9952 62.9961 31.9421 63.0017 31.8896V18.2248C63.0127 18.1195 62.9999 18.0131 62.9645 17.9133C62.929 17.8135 62.8716 17.723 62.7966 17.6482C62.7216 17.5735 62.6308 17.5165 62.5309 17.4813C62.4311 17.4462 62.3246 17.4338 62.2193 17.4452H59.983C59.8778 17.4338 59.7714 17.4461 59.6717 17.4812C59.5719 17.5164 59.4813 17.5735 59.4065 17.6483C59.3317 17.7231 59.2746 17.8137 59.2394 17.9135C59.2043 18.0133 59.1919 18.1196 59.2033 18.2248V34.2535C59.2033 35.2468 59.7583 35.8156 60.7654 35.8156H69.8882C69.9934 35.827 70.0998 35.8146 70.1995 35.7795C70.2993 35.7443 70.39 35.6873 70.4648 35.6125C70.5396 35.5377 70.5966 35.447 70.6318 35.3473C70.6669 35.2475 70.6793 35.1411 70.6679 35.0359V33.0604C70.6793 32.9553 70.6669 32.8489 70.6318 32.7491C70.5966 32.6493 70.5396 32.5587 70.4648 32.4839C70.39 32.4091 70.2993 32.352 70.1995 32.3168C70.0998 32.2817 69.9934 32.2694 69.8882 32.2808V32.2808Z" fill="#28646E"/>
<path d="M165.506 24.559H163.009C162.905 24.5496 162.8 24.5635 162.703 24.5997C162.605 24.6358 162.516 24.6934 162.444 24.7681C162.371 24.8429 162.316 24.9329 162.283 25.0316C162.25 25.1303 162.239 25.2352 162.251 25.3387V35.0358C162.239 35.1392 162.25 35.2441 162.283 35.3429C162.316 35.4416 162.371 35.5316 162.444 35.6063C162.516 35.6811 162.605 35.7386 162.703 35.7748C162.8 35.811 162.905 35.8249 163.009 35.8154H165.506C165.61 35.8248 165.714 35.8109 165.812 35.7747C165.91 35.7385 165.998 35.681 166.071 35.6064C166.144 35.5317 166.199 35.4417 166.233 35.343C166.267 35.2443 166.278 35.1394 166.266 35.0358V25.3387C166.278 25.2351 166.267 25.1301 166.233 25.0314C166.199 24.9327 166.144 24.8428 166.071 24.7681C165.998 24.6934 165.91 24.6359 165.812 24.5998C165.714 24.5636 165.61 24.5497 165.506 24.559Z" fill="#28646E"/>
<path d="M163.078 22.0316C163.291 21.904 163.258 21.682 163.236 21.5072C163.125 20.6443 162.276 16.9597 162.015 16.205C162.003 16.1338 161.977 16.0659 161.937 16.0055C161.897 15.9451 161.846 15.8936 161.785 15.8542C161.725 15.8148 161.657 15.7884 161.585 15.7767C161.514 15.765 161.441 15.7682 161.371 15.7861C161.002 15.8582 160.522 16.0968 159.768 16.5518C159.013 17.0069 158.575 17.3204 158.342 17.6145C158.293 17.6681 158.257 17.7312 158.234 17.7997C158.211 17.8682 158.203 17.9406 158.209 18.0125C158.216 18.0844 158.237 18.1542 158.272 18.2174C158.306 18.2807 158.354 18.3362 158.411 18.3803C158.966 18.9629 161.824 21.4323 162.537 21.9289C162.681 22.0288 162.861 22.1648 163.072 22.0344L163.078 22.0316Z" fill="#28646E"/>
<path d="M165.302 17.1622C165.521 17.2787 165.693 17.1344 165.832 17.0262C167.218 15.8543 168.531 14.5988 169.764 13.2667C169.819 13.2197 169.863 13.1619 169.895 13.097C169.926 13.032 169.944 12.9612 169.947 12.889C169.95 12.8169 169.938 12.7449 169.911 12.6777C169.885 12.6104 169.845 12.5493 169.794 12.4981C169.545 12.2207 169.092 11.9265 168.315 11.5131C167.539 11.0997 167.045 10.8833 166.673 10.8306C166.602 10.8167 166.529 10.8176 166.458 10.8332C166.388 10.8487 166.321 10.8786 166.262 10.9211C166.204 10.9635 166.155 11.0175 166.118 11.0797C166.081 11.142 166.058 11.2111 166.049 11.2828C165.829 12.0514 165.177 15.7749 165.114 16.6433C165.1 16.8181 165.078 17.0401 165.297 17.1594L165.302 17.1622Z" fill="#28646E"/>
<path d="M80.6018 24.559H78.1047C78.0008 24.5497 77.8962 24.5636 77.7984 24.5998C77.7006 24.6359 77.612 24.6934 77.5392 24.7681C77.4664 24.8428 77.4112 24.9327 77.3775 25.0314C77.3438 25.1301 77.3325 25.2351 77.3445 25.3387V35.0358C77.3325 35.1394 77.3438 35.2443 77.3775 35.343C77.4112 35.4417 77.4664 35.5317 77.5392 35.6064C77.612 35.681 77.7006 35.7385 77.7984 35.7747C77.8962 35.8109 78.0008 35.8248 78.1047 35.8154H80.6018C80.7056 35.8249 80.8101 35.811 80.9079 35.7748C81.0056 35.7386 81.0939 35.6811 81.1665 35.6063C81.2392 35.5316 81.2941 35.4416 81.3275 35.3429C81.3608 35.2441 81.3717 35.1392 81.3593 35.0358V25.3387C81.3717 25.2352 81.3608 25.1303 81.3275 25.0316C81.2941 24.9329 81.2392 24.8429 81.1665 24.7681C81.0939 24.6934 81.0056 24.6358 80.9079 24.5997C80.8101 24.5635 80.7056 24.5496 80.6018 24.559V24.559Z" fill="#28646E"/>
<path d="M78.1793 22.0316C78.393 21.9039 78.3569 21.682 78.3347 21.5072C78.2265 20.6443 77.3775 16.9596 77.1167 16.205C77.1043 16.134 77.0775 16.0663 77.0378 16.0061C76.9981 15.9459 76.9465 15.8946 76.8861 15.8553C76.8257 15.816 76.7578 15.7895 76.6867 15.7776C76.6157 15.7657 76.5429 15.7686 76.473 15.786C76.1039 15.8582 75.6212 16.0968 74.8693 16.5518C74.1174 17.0068 73.6762 17.3203 73.4431 17.6145C73.3949 17.6681 73.3582 17.7312 73.3354 17.7996C73.3126 17.8681 73.3042 17.9406 73.3107 18.0125C73.3172 18.0844 73.3385 18.1541 73.3733 18.2174C73.408 18.2807 73.4554 18.3361 73.5125 18.3802C74.0674 18.9629 76.9252 21.4323 77.6383 21.9289C77.7826 22.0288 77.9601 22.1647 78.1738 22.0343L78.1793 22.0316Z" fill="#28646E"/>
<path d="M80.396 17.1622C80.6152 17.2787 80.7872 17.1344 80.926 17.0262C82.3119 15.8543 83.6249 14.5988 84.8575 13.2667C84.9126 13.2198 84.9573 13.1619 84.9887 13.0968C85.0202 13.0317 85.0378 12.9608 85.0404 12.8885C85.0431 12.8162 85.0306 12.7442 85.0039 12.677C84.9772 12.6098 84.9368 12.5489 84.8853 12.4981C84.6383 12.2207 84.1861 11.9265 83.4064 11.5131C82.6268 11.0997 82.1385 10.8833 81.7667 10.8306C81.6957 10.8167 81.6227 10.8176 81.5521 10.8332C81.4814 10.8487 81.4148 10.8786 81.3562 10.9211C81.2977 10.9635 81.2485 11.0175 81.2117 11.0797C81.1749 11.142 81.1513 11.2111 81.1424 11.2828C80.9232 12.0514 80.2712 15.7749 80.2074 16.6433C80.1935 16.8181 80.1713 17.0401 80.3905 17.1594L80.396 17.1622Z" fill="#28646E"/>
<path d="M101.119 35.8017H98.8797C98.7745 35.8131 98.6681 35.8008 98.5683 35.7656C98.4685 35.7305 98.3779 35.6734 98.3031 35.5986C98.2283 35.5238 98.1712 35.4332 98.1361 35.3334C98.1009 35.2336 98.0886 35.1272 98.1 35.022V31.7175C98.078 31.0446 97.7952 30.4065 97.3113 29.9382C96.8275 29.47 96.1805 29.2082 95.5072 29.2082C94.8338 29.2082 94.1869 29.47 93.703 29.9382C93.2192 30.4065 92.9364 31.0446 92.9143 31.7175V35.022C92.9253 35.1274 92.9125 35.2338 92.877 35.3336C92.8416 35.4333 92.7842 35.5239 92.7092 35.5986C92.6342 35.6734 92.5434 35.7304 92.4436 35.7655C92.3437 35.8007 92.2372 35.813 92.1319 35.8017H89.8956C89.7903 35.813 89.6838 35.8007 89.584 35.7655C89.4841 35.7304 89.3933 35.6734 89.3183 35.5986C89.2433 35.5239 89.186 35.4333 89.1505 35.3336C89.115 35.2338 89.1022 35.1274 89.1132 35.022V18.5578C89.1023 18.4523 89.1151 18.3458 89.1506 18.246C89.186 18.1461 89.2433 18.0554 89.3183 17.9804C89.3932 17.9055 89.4839 17.8482 89.5838 17.8127C89.6837 17.7772 89.7902 17.7645 89.8956 17.7753H92.1319C92.2374 17.7639 92.3442 17.7764 92.4443 17.8117C92.5444 17.8469 92.6353 17.9042 92.7104 17.9793C92.7855 18.0543 92.8427 18.1453 92.878 18.2454C92.9133 18.3455 92.9257 18.4522 92.9143 18.5578V25.5386C92.9143 25.6104 92.9287 25.6816 92.9569 25.7477C92.985 25.8138 93.0263 25.8736 93.0781 25.9233C93.13 25.9731 93.1914 26.0119 93.2586 26.0373C93.3258 26.0627 93.3975 26.0743 93.4693 26.0713C93.6747 26.0405 93.8707 25.9639 94.0426 25.8472C94.2145 25.7305 94.358 25.5767 94.4626 25.3971L97.473 20.9578C97.8364 20.4556 98.1499 20.2114 98.6466 20.2114H101.271C101.826 20.2114 102.123 20.672 101.804 21.1686L98.4302 25.7495C98.2526 26.0269 98.2165 26.2822 98.6438 26.4958C99.6232 26.9714 100.449 27.7132 101.026 28.6361C101.604 29.5591 101.91 30.626 101.909 31.7148V35.0193C101.922 35.1257 101.909 35.2335 101.874 35.3346C101.838 35.4356 101.78 35.5272 101.704 35.6026C101.628 35.6779 101.536 35.735 101.434 35.7695C101.333 35.804 101.225 35.815 101.119 35.8017V35.8017Z" fill="#28646E"/>
<path d="M113.704 19.8479C110.075 19.8479 107.652 22.4699 107.652 25.4609V30.4356C107.652 33.4266 110.075 36.0486 113.704 36.0486C117.011 36.0486 118.279 34.4865 118.925 33.1852C119.017 33.0207 119.047 32.8289 119.01 32.6443C118.973 32.4596 118.871 32.2943 118.723 32.1781L117.144 31.1348C117.069 31.0734 116.982 31.0287 116.889 31.0037C116.795 30.9787 116.697 30.9741 116.602 30.9902C116.507 31.0062 116.416 31.0425 116.335 31.0967C116.255 31.1508 116.188 31.2216 116.137 31.3041C115.499 32.3778 114.75 32.8551 113.704 32.8551C113.382 32.8637 113.062 32.8073 112.762 32.6892C112.463 32.5711 112.19 32.3938 111.961 32.1679C111.732 31.942 111.55 31.6721 111.428 31.3745C111.305 31.0768 111.244 30.7575 111.248 30.4356V29.8308C111.243 29.7808 111.249 29.7302 111.266 29.6829C111.283 29.6355 111.31 29.5925 111.346 29.5571C111.381 29.5216 111.424 29.4947 111.472 29.4782C111.519 29.4617 111.57 29.4561 111.62 29.4618H118.279C119.22 29.4618 119.758 28.9235 119.758 27.9829V25.4609C119.752 22.4699 117.333 19.8479 113.704 19.8479ZM116.156 26.0657C116.162 26.1157 116.156 26.1663 116.14 26.2138C116.123 26.2613 116.097 26.3045 116.061 26.3402C116.026 26.3758 115.983 26.4031 115.935 26.42C115.888 26.4368 115.837 26.4428 115.787 26.4375H111.626C111.575 26.4427 111.525 26.4367 111.477 26.4199C111.43 26.403 111.387 26.3758 111.351 26.3402C111.315 26.3046 111.288 26.2614 111.271 26.2139C111.255 26.1665 111.248 26.1158 111.254 26.0657V25.4609C111.275 24.8243 111.543 24.2209 112.001 23.7781C112.459 23.3354 113.071 23.0879 113.708 23.0879C114.345 23.0879 114.957 23.3354 115.415 23.7781C115.873 24.2209 116.141 24.8243 116.162 25.4609L116.156 26.0657Z" fill="#28646E"/>
<path d="M132.306 20.4888C133.851 20.4888 134.481 21.5071 135.15 22.628C135.394 23.0165 135.816 23.0498 136.201 22.8056L137.85 21.718C138.271 21.4405 138.166 20.9106 138.06 20.6636C137.395 18.9434 135.43 17.1538 132.306 17.1538C128.516 17.1538 125.988 19.8923 125.988 23.0165V30.1887C125.988 33.3129 128.516 36.0486 132.306 36.0486C135.43 36.0486 137.395 34.259 138.06 32.5388C138.166 32.2946 138.271 31.7675 137.85 31.4872L136.201 30.3996C136.123 30.3354 136.033 30.2887 135.935 30.2626C135.838 30.2364 135.736 30.2315 135.636 30.248C135.536 30.2646 135.441 30.3023 135.358 30.3586C135.274 30.4149 135.203 30.4885 135.15 30.5744C134.481 31.6981 133.851 32.7136 132.306 32.7136C131.97 32.7222 131.636 32.663 131.324 32.5396C131.012 32.4163 130.728 32.2312 130.489 31.9955C130.25 31.7598 130.061 31.4783 129.933 31.1679C129.805 30.8574 129.741 30.5244 129.745 30.1887V23.0165C129.741 22.6805 129.804 22.3472 129.932 22.0365C130.06 21.7257 130.249 21.4439 130.488 21.2079C130.727 20.9719 131.011 20.7866 131.324 20.663C131.636 20.5395 131.97 20.4802 132.306 20.4888Z" fill="#28646E"/>
<path d="M149.084 20.0172C145.455 20.0172 143.035 22.6392 143.035 25.6302V30.4357C143.035 33.4267 145.455 36.0487 149.084 36.0487C152.713 36.0487 155.135 33.4267 155.135 30.4357V25.6302C155.135 22.6503 152.716 20.0172 149.084 20.0172ZM151.539 30.4357C151.518 31.0723 151.25 31.6757 150.792 32.1184C150.334 32.5612 149.722 32.8087 149.085 32.8087C148.448 32.8087 147.836 32.5612 147.378 32.1184C146.92 31.6757 146.652 31.0723 146.631 30.4357V25.6302C146.652 24.9936 146.92 24.3902 147.378 23.9475C147.836 23.5047 148.448 23.2572 149.085 23.2572C149.722 23.2572 150.334 23.5047 150.792 23.9475C151.25 24.3902 151.518 24.9936 151.539 25.6302V30.4357Z" fill="#28646E"/>
<path d="M180.201 20.0283C179.118 20.023 178.053 20.3044 177.113 20.844C177.072 20.87 177.026 20.887 176.978 20.8939C176.929 20.9008 176.88 20.8975 176.833 20.8841C176.787 20.8708 176.743 20.8477 176.706 20.8164C176.668 20.7851 176.638 20.7463 176.617 20.7025C176.547 20.5979 176.451 20.5134 176.339 20.4575C176.226 20.4015 176.101 20.3759 175.976 20.3834H174.588C174.483 20.3725 174.377 20.3852 174.277 20.4207C174.177 20.4562 174.087 20.5135 174.012 20.5885C173.937 20.6635 173.88 20.7543 173.845 20.8542C173.81 20.9541 173.797 21.0606 173.809 21.1658V35.0387C173.797 35.1438 173.81 35.2502 173.845 35.35C173.88 35.4498 173.937 35.5404 174.012 35.6152C174.087 35.69 174.177 35.7471 174.277 35.7823C174.377 35.8174 174.483 35.8297 174.588 35.8183H176.825C176.93 35.8297 177.037 35.8173 177.136 35.7822C177.236 35.747 177.327 35.69 177.402 35.6153C177.477 35.5405 177.534 35.45 177.57 35.3502C177.605 35.2504 177.618 35.144 177.607 35.0387V25.9575C177.607 25.2702 177.88 24.6111 178.366 24.1251C178.852 23.6391 179.511 23.3661 180.199 23.3661C180.886 23.3661 181.545 23.6391 182.031 24.1251C182.517 24.6111 182.79 25.2702 182.79 25.9575V35.0359C182.779 35.1411 182.791 35.2475 182.826 35.3472C182.861 35.447 182.918 35.5377 182.993 35.6125C183.068 35.6873 183.159 35.7443 183.258 35.7795C183.358 35.8146 183.465 35.827 183.57 35.8156H185.806C185.911 35.8269 186.018 35.8145 186.118 35.7794C186.218 35.7442 186.308 35.6872 186.383 35.6125C186.458 35.5377 186.516 35.4472 186.551 35.3474C186.587 35.2477 186.599 35.1412 186.588 35.0359V25.9575C186.591 22.7973 184.036 20.0283 180.201 20.0283Z" fill="#28646E"/>
<path d="M24 48C37.2548 48 48 37.2548 48 24C48 10.7452 37.2548 0 24 0C10.7452 0 0 10.7452 0 24C0 37.2548 10.7452 48 24 48Z" fill="url(#paint0_linear)"/>
<path d="M24 46.5C11.5935 46.5 1.5 36.4065 1.5 24C1.5 11.5935 11.5935 1.5 24 1.5C36.4065 1.5 46.5 11.5935 46.5 24C46.5 36.4065 36.4065 46.5 24 46.5ZM24 3.40531C12.6441 3.40531 3.40531 12.6441 3.40531 24C3.40531 35.3559 12.6441 44.5947 24 44.5947C35.3559 44.5947 44.5959 35.3559 44.5959 24C44.5959 12.6441 35.3559 3.40531 24 3.40531Z" fill="#28646E"/>
<path d="M22.5119 19.8894C22.3818 19.8898 22.2548 19.8504 22.1477 19.7766C22.0406 19.7029 21.9585 19.5982 21.9125 19.4766C21.8665 19.3549 21.8586 19.2222 21.89 19.096C21.9214 18.9698 21.9905 18.8561 22.0882 18.7703C23.8955 17.1784 24.6951 15.8633 24.8372 15.616C25.3686 14.6903 26.2221 14.2115 27.1184 14.3339C27.2865 14.3568 27.4385 14.4455 27.5412 14.5806C27.6438 14.7156 27.6886 14.8859 27.6657 15.0539C27.6429 15.222 27.5541 15.3741 27.4191 15.4767C27.2841 15.5794 27.1138 15.6242 26.9457 15.6013C26.4229 15.5315 26.0727 16.0335 25.9466 16.2539C25.7874 16.5319 24.8923 18.0037 22.9355 19.7303C22.8183 19.8329 22.6677 19.8895 22.5119 19.8894Z" fill="#28646E"/>
<path d="M11.745 30.7346C11.6136 30.7344 11.4854 30.6938 11.3778 30.6183C11.2703 30.5428 11.1886 30.436 11.1438 30.3125C11.099 30.189 11.0933 30.0546 11.1275 29.9278C11.1616 29.8009 11.234 29.6876 11.3348 29.6032C12.0767 29.0171 12.8641 28.4909 13.6895 28.0297C13.8402 27.9619 14.0114 27.9551 14.1672 28.0106C14.3229 28.0661 14.4512 28.1797 14.525 28.3276C14.5989 28.4756 14.6127 28.6463 14.5636 28.8042C14.5144 28.9621 14.4061 29.0948 14.2613 29.1746C13.525 29.5927 12.8207 30.0646 12.1539 30.5865C12.0394 30.6826 11.8945 30.7351 11.745 30.7346Z" fill="#28646E"/>
<path d="M27.8294 24.6649C28.0829 24.9024 28.378 24.7996 28.6498 24.5424C30.5037 22.7755 32.4678 20.0008 33.1229 18.5608C33.2625 18.2535 33.5453 18.082 33.849 18.2033C34.2053 18.3478 34.2004 18.9612 33.8772 19.6273C33.02 21.3906 31.8323 23.3327 29.4861 25.762C29.4365 25.8087 29.3972 25.8652 29.3706 25.9279C29.3441 25.9906 29.3309 26.0582 29.3319 26.1263C29.333 26.1944 29.3482 26.2615 29.3767 26.3234C29.4051 26.3853 29.4462 26.4406 29.4972 26.4857C29.7041 26.6718 30.0396 26.6596 30.3543 26.34C31.5727 25.0971 32.3931 24.1359 33.0984 23.138C33.2784 22.8759 33.4964 22.7706 33.7106 22.8184C34.0192 22.8796 34.0682 23.1759 33.9739 23.5322C33.8208 24.1078 32.2021 26.2261 31.5617 26.9449C29.8229 28.8845 28.0829 29.9473 24.7364 31.6873C23.5682 32.2996 22.6939 32.8751 22.1649 33.769C21.6837 34.582 21.5392 34.8478 21.4902 34.9506C21.3959 35.1417 21.3804 35.3623 21.447 35.5647C21.5137 35.7672 21.6571 35.9353 21.8466 36.0331C21.9431 36.0793 22.0481 36.1053 22.1551 36.1095C22.2621 36.1138 22.3688 36.0962 22.4687 36.0578C22.5687 36.0194 22.6597 35.961 22.7363 35.8862C22.813 35.8115 22.8735 35.7218 22.9143 35.6229C22.9143 35.6131 22.8898 35.6363 23.5192 34.5722C23.9918 33.812 24.6773 33.2073 25.4906 32.8335C28.8384 31.3078 30.2098 30.1004 32.1519 28.1584C33.0384 27.2718 34.2629 25.3727 34.6008 24.8106C35.5364 23.2359 35.0453 21.8853 34.2004 21.6563C34.1841 21.6523 34.169 21.6446 34.1562 21.6337C34.1434 21.6228 34.1333 21.6091 34.1268 21.5936C34.1203 21.5782 34.1174 21.5614 34.1185 21.5446C34.1196 21.5279 34.1246 21.5116 34.1331 21.4971C34.787 20.3767 35.0845 19.6029 35.2082 19.0029C35.3747 18.1873 35.1433 17.198 34.0241 16.9567C34.0101 16.9533 33.9969 16.9471 33.9853 16.9385C33.9737 16.9299 33.964 16.919 33.9567 16.9066C33.9494 16.8941 33.9446 16.8804 33.9427 16.866C33.9409 16.8517 33.9419 16.8372 33.9457 16.8233C34.0155 16.5649 34.0853 16.2392 34.1331 16.0249C34.3682 14.9657 33.6984 14.0069 32.8939 13.8343C32.6345 13.7762 32.3658 13.7742 32.1056 13.8285C31.8454 13.8828 31.5998 13.9921 31.3853 14.149C31.3554 14.1691 31.3192 14.1777 31.2834 14.1732C31.2476 14.1687 31.2147 14.1514 31.1906 14.1245C31.0851 14.0064 30.9567 13.9109 30.8131 13.844C30.6695 13.777 30.5139 13.74 30.3555 13.7351C29.6539 13.7229 28.9645 13.9384 28.46 15.0159C28.0988 15.7861 27.5613 16.8208 25.9866 18.5669C24.5257 20.1869 22.4919 21.7665 21.2368 22.5906C21.0164 22.7351 20.7078 22.7008 20.747 22.4057C20.8057 21.9355 21.309 18.7824 21.3947 17.8531C21.5343 16.3433 20.7225 15.649 19.8115 15.5265C19.0621 15.4249 17.9245 15.6404 17.3013 17.3473C16.9339 18.3478 16.1747 19.991 15.5294 22.6384C15.0751 24.5008 15.0004 26.6718 15.4155 29.1661C15.4419 29.3166 15.4127 29.4715 15.3335 29.602C14.8364 30.42 14.109 31.4963 13.7025 32.4355C13.6214 32.6176 13.6107 32.8233 13.6724 33.0128C13.7342 33.2023 13.864 33.3622 14.0368 33.4616C14.1311 33.5131 14.2349 33.5448 14.3418 33.5548C14.4488 33.5647 14.5567 33.5527 14.6589 33.5194C14.761 33.4862 14.8553 33.4324 14.936 33.3614C15.0166 33.2904 15.0819 33.2037 15.1278 33.1065C15.3727 32.5971 15.8625 31.6371 16.0596 31.2441C16.3976 30.5522 16.6217 30.0955 16.7135 29.8078C16.7968 29.5457 16.8457 29.242 16.6951 28.5514C16.4404 27.3894 16.351 25.2049 16.8249 23.28C17.3416 21.2867 17.9712 19.3243 18.7106 17.4024C18.9017 16.931 19.1723 16.7841 19.4453 16.8086C19.7184 16.8331 20.2327 16.9641 20.0845 17.9241C19.82 19.6494 19.4453 21.8424 19.3217 22.5771C19.2617 22.9384 19.1919 23.7833 19.8592 24.169C20.3796 24.4702 20.9527 24.3024 21.5857 23.88C23.011 22.9298 25.4661 20.9939 27.009 19.2612C28.6278 17.4429 29.1433 16.3604 29.5596 15.3808C29.7494 14.9339 30.2368 14.9375 30.4094 14.9878C30.5821 15.038 30.7902 15.2706 30.6433 15.7629C30.2845 16.958 28.8066 19.6959 25.9584 22.2637C25.6364 22.5551 25.6817 22.8992 25.8457 23.0792C26.0098 23.2592 26.3 23.3669 26.6319 23.0792C29.191 20.8971 30.6519 18.289 31.3082 16.8943C31.5268 16.4298 31.7142 15.9511 31.869 15.4616C32.0086 15.0563 32.3208 14.9118 32.5388 14.9571C32.8498 15.0233 33.0555 15.3429 32.9564 15.8682C32.7974 16.5403 32.5637 17.1925 32.2596 17.8127C31.4392 19.5539 29.7066 21.8841 27.838 23.8849C27.7829 23.9335 27.7386 23.9932 27.7079 24.0601C27.6773 24.1269 27.6611 24.1995 27.6603 24.273C27.6595 24.3465 27.6741 24.4194 27.7033 24.4869C27.7324 24.5544 27.7754 24.615 27.8294 24.6649V24.6649Z" fill="#28646E"/>
<path d="M16.2576 15.993C16.3568 15.9061 16.3176 15.7946 16.2894 15.7053C16.1523 15.2657 15.3674 13.4265 15.1616 13.0567C15.0576 12.8706 14.9265 12.8449 14.7857 12.8987C14.6008 12.9697 14.3719 13.1436 14.0216 13.4473C13.6714 13.751 13.4731 13.9591 13.3788 14.133C13.3065 14.2665 13.3151 14.4 13.4865 14.5261C13.8257 14.7783 15.5474 15.7959 15.9661 15.9955C16.0506 16.0346 16.1559 16.0873 16.2551 15.9955L16.2576 15.993Z" fill="#28646E"/>
<path d="M30.4496 32.2739C30.3185 32.2825 30.2818 32.3964 30.25 32.4821C30.092 32.9156 29.5973 34.8539 29.5373 35.2727C29.5067 35.4821 29.5949 35.5825 29.7393 35.6254C29.9291 35.6817 30.2144 35.6854 30.6798 35.6535C31.1451 35.6217 31.4255 35.5813 31.6067 35.4993C31.7451 35.438 31.8185 35.3266 31.7598 35.1221C31.6434 34.7168 30.894 32.8617 30.6798 32.4527C30.6369 32.3707 30.5842 32.2641 30.4532 32.2739H30.4496Z" fill="#28646E"/>
<path d="M31.5688 31.3751C31.5088 31.4914 31.5847 31.582 31.6435 31.6543C31.9313 32.0143 33.3308 33.4432 33.6566 33.7126C33.8206 33.8486 33.9517 33.8253 34.0631 33.7237C34.21 33.5902 34.3619 33.349 34.5761 32.9351C34.7904 32.5212 34.9019 32.2592 34.9264 32.0632C34.9459 31.9139 34.8884 31.7926 34.6815 31.7363C34.2737 31.6249 32.2998 31.3004 31.8394 31.2722C31.7464 31.2661 31.6288 31.2551 31.5676 31.3726L31.5688 31.3751Z" fill="#28646E"/>
<path d="M15.5815 17.1931C15.5583 17.0633 15.4419 17.0388 15.3525 17.0168C14.9044 16.9066 12.9232 16.6274 12.5007 16.6115C12.2889 16.6041 12.1983 16.7033 12.1713 16.8564C12.1358 17.0511 12.164 17.3351 12.246 17.7931C12.3281 18.2511 12.3991 18.5278 12.4995 18.6992C12.5766 18.829 12.6954 18.8902 12.8913 18.8106C13.2832 18.6502 15.0452 17.7086 15.4272 17.4466C15.5044 17.3939 15.6048 17.3315 15.5815 17.2017V17.1931Z" fill="#28646E"/>
<path d="M24.0029 42.8595C24.3972 42.8595 24.7168 42.5399 24.7168 42.1456C24.7168 41.7514 24.3972 41.4318 24.0029 41.4318C23.6087 41.4318 23.2891 41.7514 23.2891 42.1456C23.2891 42.5399 23.6087 42.8595 24.0029 42.8595Z" fill="#28646E"/>
<path d="M24.0029 6.56814C24.3972 6.56814 24.7168 6.24852 24.7168 5.85426C24.7168 5.45999 24.3972 5.14038 24.0029 5.14038C23.6087 5.14038 23.2891 5.45999 23.2891 5.85426C23.2891 6.24852 23.6087 6.56814 24.0029 6.56814Z" fill="#28646E"/>
<path d="M28.6983 42.2412C29.0925 42.2412 29.4121 41.9216 29.4121 41.5274C29.4121 41.1331 29.0925 40.8135 28.6983 40.8135C28.304 40.8135 27.9844 41.1331 27.9844 41.5274C27.9844 41.9216 28.304 42.2412 28.6983 42.2412Z" fill="#28646E"/>
<path d="M19.3037 7.18654C19.698 7.18654 20.0176 6.86693 20.0176 6.47267C20.0176 6.0784 19.698 5.75879 19.3037 5.75879C18.9095 5.75879 18.5898 6.0784 18.5898 6.47267C18.5898 6.86693 18.9095 7.18654 19.3037 7.18654Z" fill="#28646E"/>
<path d="M33.0733 40.429C33.4675 40.429 33.7871 40.1094 33.7871 39.7151C33.7871 39.3208 33.4675 39.0012 33.0733 39.0012C32.679 39.0012 32.3594 39.3208 32.3594 39.7151C32.3594 40.1094 32.679 40.429 33.0733 40.429Z" fill="#28646E"/>
<path d="M14.9248 8.9988C15.3191 8.9988 15.6387 8.67919 15.6387 8.28492C15.6387 7.89066 15.3191 7.57104 14.9248 7.57104C14.5306 7.57104 14.2109 7.89066 14.2109 8.28492C14.2109 8.67919 14.5306 8.9988 14.9248 8.9988Z" fill="#28646E"/>
<path d="M36.8311 37.5454C37.2253 37.5454 37.5449 37.2258 37.5449 36.8316C37.5449 36.4373 37.2253 36.1177 36.8311 36.1177C36.4368 36.1177 36.1172 36.4373 36.1172 36.8316C36.1172 37.2258 36.4368 37.5454 36.8311 37.5454Z" fill="#28646E"/>
<path d="M11.167 11.8825C11.5613 11.8825 11.8809 11.5629 11.8809 11.1686C11.8809 10.7743 11.5613 10.4547 11.167 10.4547C10.7727 10.4547 10.4531 10.7743 10.4531 11.1686C10.4531 11.5629 10.7727 11.8825 11.167 11.8825Z" fill="#28646E"/>
<path d="M39.7139 33.7874C40.1081 33.7874 40.4278 33.4678 40.4278 33.0735C40.4278 32.6792 40.1081 32.3596 39.7139 32.3596C39.3196 32.3596 39 32.6792 39 33.0735C39 33.4678 39.3196 33.7874 39.7139 33.7874Z" fill="#28646E"/>
<path d="M8.28419 15.6404C8.67845 15.6404 8.99807 15.3208 8.99807 14.9265C8.99807 14.5323 8.67845 14.2126 8.28419 14.2126C7.88993 14.2126 7.57031 14.5323 7.57031 14.9265C7.57031 15.3208 7.88993 15.6404 8.28419 15.6404Z" fill="#28646E"/>
<path d="M41.5264 29.4098C41.9206 29.4098 42.2403 29.0902 42.2403 28.6959C42.2403 28.3017 41.9206 27.9821 41.5264 27.9821C41.1321 27.9821 40.8125 28.3017 40.8125 28.6959C40.8125 29.0902 41.1321 29.4098 41.5264 29.4098Z" fill="#28646E"/>
<path d="M6.4756 20.018C6.86986 20.018 7.18947 19.6983 7.18947 19.3041C7.18947 18.9098 6.86986 18.5902 6.4756 18.5902C6.08133 18.5902 5.76172 18.9098 5.76172 19.3041C5.76172 19.6983 6.08133 20.018 6.4756 20.018Z" fill="#28646E"/>
<path d="M42.1475 24.7138C42.5417 24.7138 42.8613 24.3942 42.8613 23.9999C42.8613 23.6056 42.5417 23.286 42.1475 23.286C41.7532 23.286 41.4336 23.6056 41.4336 23.9999C41.4336 24.3942 41.7532 24.7138 42.1475 24.7138Z" fill="#28646E"/>
<path d="M5.8545 24.7138C6.24877 24.7138 6.56838 24.3942 6.56838 23.9999C6.56838 23.6056 6.24877 23.286 5.8545 23.286C5.46024 23.286 5.14062 23.6056 5.14062 23.9999C5.14062 24.3942 5.46024 24.7138 5.8545 24.7138Z" fill="#28646E"/>
<path d="M41.5264 20.018C41.9206 20.018 42.2403 19.6983 42.2403 19.3041C42.2403 18.9098 41.9206 18.5902 41.5264 18.5902C41.1321 18.5902 40.8125 18.9098 40.8125 19.3041C40.8125 19.6983 41.1321 20.018 41.5264 20.018Z" fill="#28646E"/>
<path d="M6.4756 29.4098C6.86986 29.4098 7.18947 29.0902 7.18947 28.6959C7.18947 28.3017 6.86986 27.9821 6.4756 27.9821C6.08133 27.9821 5.76172 28.3017 5.76172 28.6959C5.76172 29.0902 6.08133 29.4098 6.4756 29.4098Z" fill="#28646E"/>
<path d="M39.7139 15.6404C40.1081 15.6404 40.4278 15.3208 40.4278 14.9265C40.4278 14.5323 40.1081 14.2126 39.7139 14.2126C39.3196 14.2126 39 14.5323 39 14.9265C39 15.3208 39.3196 15.6404 39.7139 15.6404Z" fill="#28646E"/>
<path d="M8.28419 33.7874C8.67845 33.7874 8.99807 33.4678 8.99807 33.0735C8.99807 32.6792 8.67845 32.3596 8.28419 32.3596C7.88993 32.3596 7.57031 32.6792 7.57031 33.0735C7.57031 33.4678 7.88993 33.7874 8.28419 33.7874Z" fill="#28646E"/>
<path d="M36.8311 11.8825C37.2253 11.8825 37.5449 11.5629 37.5449 11.1686C37.5449 10.7743 37.2253 10.4547 36.8311 10.4547C36.4368 10.4547 36.1172 10.7743 36.1172 11.1686C36.1172 11.5629 36.4368 11.8825 36.8311 11.8825Z" fill="#28646E"/>
<path d="M11.167 37.5454C11.5613 37.5454 11.8809 37.2258 11.8809 36.8316C11.8809 36.4373 11.5613 36.1177 11.167 36.1177C10.7727 36.1177 10.4531 36.4373 10.4531 36.8316C10.4531 37.2258 10.7727 37.5454 11.167 37.5454Z" fill="#28646E"/>
<path d="M33.0733 8.9988C33.4675 8.9988 33.7871 8.67919 33.7871 8.28492C33.7871 7.89066 33.4675 7.57104 33.0733 7.57104C32.679 7.57104 32.3594 7.89066 32.3594 8.28492C32.3594 8.67919 32.679 8.9988 33.0733 8.9988Z" fill="#28646E"/>
<path d="M14.9248 40.429C15.3191 40.429 15.6387 40.1094 15.6387 39.7151C15.6387 39.3208 15.3191 39.0012 14.9248 39.0012C14.5306 39.0012 14.2109 39.3208 14.2109 39.7151C14.2109 40.1094 14.5306 40.429 14.9248 40.429Z" fill="#28646E"/>
<path d="M28.6983 7.18654C29.0925 7.18654 29.4121 6.86693 29.4121 6.47267C29.4121 6.0784 29.0925 5.75879 28.6983 5.75879C28.304 5.75879 27.9844 6.0784 27.9844 6.47267C27.9844 6.86693 28.304 7.18654 28.6983 7.18654Z" fill="#28646E"/>
<path d="M19.3037 42.2412C19.698 42.2412 20.0176 41.9216 20.0176 41.5274C20.0176 41.1331 19.698 40.8135 19.3037 40.8135C18.9095 40.8135 18.5898 41.1331 18.5898 41.5274C18.5898 41.9216 18.9095 42.2412 19.3037 42.2412Z" fill="#28646E"/>
<defs>
<linearGradient id="paint0_linear" x1="0" y1="24" x2="48" y2="24" gradientUnits="userSpaceOnUse">
<stop stop-color="#D2F0F0"/>
<stop offset="1" stop-color="#F0E6B4"/>
</linearGradient>
</defs>
</svg>
